<?xml version="1.0" encoding="UTF-8"?>
<!DOCTYPE svg PUBLIC "-//W3C//DTD SVG 1.1//EN" "http://www.w3.org/Graphics/SVG/1.1/DTD/svg11.dtd">
<!-- Creator: CorelDRAW X7 -->
<svg xmlns="http://www.w3.org/2000/svg" xml:space="preserve" width="45.4546mm" height="16.5614mm" version="1.1" style="shape-rendering:geometricPrecision; text-rendering:geometricPrecision; image-rendering:optimizeQuality; fill-rule:evenodd; clip-rule:evenodd"
viewBox="0 0 1392 507"
 xmlns:xlink="http://www.w3.org/1999/xlink">
 <defs>
  <style type="text/css">
   <![CDATA[
    .fil0 {fill:#FEFEFE}
    .fil1 {fill:#323F84;fill-rule:nonzero}
   ]]>
  </style>
 </defs>
 <g id="__x0023_Layer_x0020_1">
  <metadata id="CorelCorpID_0Corel-Layer"/>
  <path class="fil0" d="M1176 408c1,3 2,6 2,10 0,3 -1,6 -1,9 -1,3 -1,6 -2,8 -1,3 -2,7 -4,10 -1,4 -4,8 -7,12l-1 0 -1 1c-4,5 -10,8 -16,10 -6,2 -12,3 -18,3 -4,0 -9,-1 -13,-2 -6,-1 -12,-4 -17,-8l0 -1c-3,-2 -5,-4 -7,-7 0,0 0,1 0,1 -7,6 -15,10 -24,13 -9,3 -19,4 -29,4 -4,0 -9,0 -14,-1 -4,0 -8,-1 -12,-2 -4,-1 -8,-3 -12,-5 -3,-2 -6,-3 -8,-5 -6,3 -12,6 -19,9 -10,3 -20,4 -30,4 -9,0 -18,-1 -27,-4 -8,-2 -14,-5 -20,-10 -1,0 -1,1 -1,1 -4,4 -9,7 -16,9 -3,1 -6,2 -10,2 -3,1 -6,1 -9,1 -4,0 -7,0 -10,-1 -4,0 -7,-1 -10,-2l-1 0c-2,-1 -4,-2 -6,-3 -3,1 -5,2 -8,3 -4,1 -8,2 -13,3 -5,1 -10,1 -15,1 -16,0 -31,-3 -43,-13l0 0c-4,4 -9,7 -15,9l-1 0c-3,1 -6,2 -10,2 -3,1 -6,1 -9,1 -4,0 -7,0 -10,-1 -4,0 -7,-1 -11,-2l0 0 -1 -1c0,0 -1,0 -2,0 0,1 -1,2 -1,3 -4,8 -9,15 -15,21 -6,6 -14,10 -22,13 -8,3 -17,4 -25,4 -5,0 -11,0 -16,-1 -6,-2 -12,-4 -18,-9l-1 -1 -2 -1c-3,-4 -6,-9 -7,-14l0 -1 -1 -1c0,-3 -1,-5 -1,-8 -2,0 -5,0 -8,0 -9,0 -18,-1 -26,-3 -8,-2 -15,-5 -21,-10 0,0 0,0 0,0 -4,4 -10,7 -15,9l-1 0c-3,1 -6,2 -10,2 -3,1 -6,1 -9,1 -3,0 -7,0 -10,-1 -4,0 -7,-1 -11,-2l-1 -1c-3,-1 -6,-2 -8,-4 -3,2 -7,4 -11,5 -4,1 -7,2 -10,2 -4,1 -7,1 -10,1 -3,0 -6,0 -10,-1 -3,0 -7,-1 -10,-2l-1 0c-3,-1 -5,-3 -8,-4 -1,0 -3,1 -5,2 -4,1 -8,2 -12,3 -5,1 -9,2 -14,2 -5,1 -10,1 -15,1 -9,0 -18,-1 -26,-3 -9,-2 -17,-6 -24,-12 -2,-2 -3,-3 -4,-4 -6,6 -13,10 -21,14 -9,4 -19,5 -29,5 -8,0 -16,-1 -23,-4 -6,2 -12,3 -18,3 -8,0 -15,-1 -22,-4 -14,-7 -22,-22 -19,-37l28 -139c1,-5 3,-10 7,-14l1 -1 0 -1c4,-5 10,-8 15,-9 3,-2 7,-2 11,-3 3,0 7,0 10,0 3,0 7,0 10,0 4,1 8,2 11,3 8,3 14,8 18,16l0 0c4,7 5,15 3,22l0 2c4,1 7,1 11,3 6,2 12,5 17,9 3,2 5,5 7,7 1,0 1,0 1,-1 7,-6 15,-10 24,-13 10,-4 20,-6 30,-6 9,0 18,1 26,4 6,2 12,5 17,9 4,-4 9,-7 14,-8 3,-1 6,-2 10,-2 3,-1 6,-1 9,-1 3,0 6,0 9,1 3,0 6,1 10,2 0,0 1,-1 2,-1 7,-2 15,-4 22,-4 8,0 17,2 24,5 8,3 15,8 20,14 0,1 0,1 0,1 1,0 1,0 1,-1 8,-6 16,-10 24,-13 10,-4 20,-6 31,-6 8,0 17,1 26,4 4,2 7,3 11,5 2,-1 4,-2 6,-3 1,-4 2,-8 4,-11 4,-8 8,-15 14,-21 7,-6 14,-10 22,-13 8,-3 17,-4 25,-4 3,0 6,0 9,0 3,0 6,1 9,1 2,1 4,2 7,3 1,0 3,1 4,2 4,-1 9,-2 14,-2 5,0 10,1 15,2 7,2 14,6 19,12 6,7 9,14 9,23 0,2 0,4 0,7 9,-3 18,-5 27,-5 4,0 8,1 13,1 3,1 6,2 9,2 0,-1 0,-2 0,-3 1,-5 3,-10 5,-14 2,-6 7,-11 12,-15 5,-4 11,-7 16,-8 5,-2 10,-2 15,-2 6,0 11,0 15,2 8,2 15,6 21,12 5,6 8,14 8,22 0,3 0,6 0,8 0,0 0,0 0,0 10,-3 20,-5 30,-5 9,0 19,2 28,4 8,3 16,8 23,14 7,-6 15,-10 23,-13 9,-3 18,-5 28,-5 4,0 8,1 13,1 3,1 7,2 11,3 1,0 1,0 2,0 1,-2 1,-3 1,-5 1,-3 2,-6 3,-9 2,-5 4,-10 8,-14l1 -1c4,-4 9,-6 13,-9 4,-1 8,-3 12,-4 4,-1 8,-2 13,-2 4,-1 9,-2 13,-2 8,0 15,1 22,3 6,1 12,3 18,7 6,3 11,7 15,12 4,4 8,9 10,14 3,5 5,11 6,16 1,5 1,10 1,14 0,9 -1,17 -3,25 -3,9 -8,18 -13,25 -7,8 -14,14 -23,18 -3,2 -5,3 -8,4l-1 2 0 1c0,1 -1,3 -2,5zm-1145 -246c0,-6 1,-11 2,-16 2,-6 4,-10 8,-15 3,-4 7,-7 13,-10 5,-3 11,-5 19,-5l5 -20c0,-2 1,-3 3,-3 2,-1 5,-1 9,-1 2,0 4,0 6,0 1,0 2,0 3,0 1,1 2,1 2,2 0,0 0,1 0,2l-4 24c0,2 -1,4 -1,6 -1,1 -1,2 -2,3 -1,1 -2,1 -3,2 -1,0 -3,0 -4,0l-1 0c-5,0 -9,1 -13,3 -3,1 -6,4 -8,6 -2,3 -4,6 -5,9 -1,3 -1,6 -1,9 0,2 0,5 1,7 1,2 2,4 4,6 1,1 3,2 6,3 2,1 5,2 8,2 4,0 7,-1 10,-1 3,-1 5,-2 7,-3 2,-1 4,-2 6,-3 1,0 2,-1 3,-1 0,0 1,1 1,1 1,1 1,2 1,4 0,1 0,2 -1,3 0,2 0,3 0,5 -1,1 -1,3 -2,4 0,2 -1,3 -2,4 0,1 -2,2 -4,3 -2,0 -4,1 -7,2 -3,1 -6,2 -9,2 -3,0 -6,1 -9,1 -6,0 -10,-1 -14,-2 -4,-1 -8,-2 -11,-4 -3,-1 -5,-3 -8,-5 -2,-3 -3,-5 -5,-8 -1,-2 -2,-5 -2,-8 -1,-3 -1,-6 -1,-8zm49 -90c0,-1 0,-2 0,-4 0,-2 1,-4 1,-5 0,-2 1,-4 2,-5 0,-2 1,-3 2,-4 1,-1 3,-2 5,-3 2,0 5,-1 8,-1 3,0 5,1 6,1 2,0 3,1 4,2 1,0 2,1 2,2 0,2 1,3 1,4 0,1 -1,3 -1,4 0,2 0,4 -1,5 0,2 -1,4 -1,5 -1,2 -2,3 -3,4 -1,2 -3,3 -5,3 -2,1 -5,1 -8,1 -2,0 -5,0 -6,0 -2,-1 -3,-2 -4,-2 -1,-1 -2,-2 -2,-3 0,-1 0,-3 0,-4zm167 -18c0,2 0,5 -1,8 0,3 -1,6 -2,8 -1,2 -2,3 -4,3 0,0 -2,0 -3,-2 -1,-1 -3,-2 -5,-3 -2,-2 -4,-3 -7,-4 -4,-1 -7,-2 -12,-2 -5,0 -10,1 -14,3 -5,2 -8,5 -12,8 -3,4 -6,8 -8,12 -3,4 -5,9 -7,14 -1,4 -3,9 -3,14 -1,5 -2,9 -2,13 0,5 1,9 2,13 2,4 3,7 6,9 2,2 5,4 8,6 3,1 7,1 11,1 5,0 10,0 13,-1 4,-1 7,-2 9,-4 3,-1 5,-2 6,-3 2,-1 3,-2 5,-2 1,0 1,1 1,1 1,1 1,2 1,3 0,1 0,1 0,2 0,1 -1,2 -1,4 0,1 0,2 -1,4 0,1 0,2 0,4 -1,1 -1,2 -2,3 0,1 -1,2 -1,3 -1,0 -3,1 -5,3 -2,1 -5,2 -8,3 -3,1 -7,2 -11,3 -4,0 -8,1 -13,1 -8,0 -14,-1 -21,-3 -6,-2 -11,-5 -15,-10 -4,-4 -8,-9 -10,-15 -2,-6 -3,-13 -3,-22 0,-6 0,-13 2,-20 1,-7 3,-14 6,-21 2,-6 6,-13 10,-19 4,-6 9,-11 14,-15 6,-5 12,-8 20,-11 7,-3 15,-4 23,-4 5,0 10,1 14,2 5,1 8,2 12,4 3,1 5,3 6,4 2,1 2,3 2,5zm82 119c0,1 0,1 0,2 -1,1 -2,1 -3,1 -1,1 -2,1 -3,1 -2,0 -3,0 -6,0 -2,0 -4,0 -5,0 -1,0 -2,0 -3,-1 -1,0 -1,0 -2,-1 0,-1 0,-1 0,-2l3 -15c-1,2 -3,5 -6,7 -2,3 -5,5 -8,7 -3,2 -7,4 -10,5 -4,1 -8,2 -12,2 -5,0 -9,-1 -12,-2 -4,-1 -6,-3 -8,-6 -2,-2 -4,-5 -5,-8 -1,-3 -1,-7 -1,-11 0,-2 0,-5 0,-7 1,-2 1,-5 1,-8l12 -57c0,-1 0,-2 1,-2 1,-1 1,-1 2,-2 1,0 3,0 5,0 1,0 4,-1 6,-1 3,0 5,1 6,1 2,0 3,0 4,0 1,1 2,1 2,2 0,0 0,1 0,2l-11 56c0,1 -1,3 -1,4 0,2 0,4 0,5 0,2 0,3 1,5 0,1 0,2 1,3 1,1 2,2 3,3 1,0 2,0 4,0 3,0 6,-1 9,-3 3,-1 6,-4 8,-7 3,-3 6,-7 8,-12 2,-4 4,-9 5,-14l8 -40c0,-1 0,-2 1,-2 0,-1 1,-1 2,-2 1,0 3,0 5,0 1,0 3,-1 6,-1 2,0 5,1 6,1 2,0 3,0 4,0 1,1 2,1 2,2 0,0 0,1 0,2l-19 93zm114 0c-1,2 -2,3 -4,3 -2,1 -5,1 -9,1 -2,0 -4,0 -5,0 -2,0 -3,0 -4,-1 0,0 -1,0 -1,-1 0,0 -1,-1 0,-2l3 -15c-2,2 -3,5 -5,7 -3,3 -6,5 -9,7 -3,2 -6,4 -10,5 -4,1 -8,2 -12,2 -5,0 -10,-1 -14,-3 -3,-2 -6,-5 -9,-8 -2,-3 -4,-7 -4,-11 -1,-4 -2,-9 -2,-14 0,-4 1,-9 1,-14 1,-5 3,-10 4,-16 2,-5 4,-10 7,-14 3,-5 6,-9 10,-13 4,-4 8,-7 13,-9 5,-2 10,-3 17,-3 5,0 10,1 15,3 4,3 8,6 12,11l1 -8c1,-2 2,-3 4,-4 2,0 5,-1 9,-1 2,0 4,1 5,1 1,0 3,0 3,0 1,1 2,1 2,2 0,0 0,1 0,2l-18 93zm-14 -65c-2,-4 -5,-7 -8,-9 -3,-2 -6,-3 -10,-3 -3,0 -6,1 -8,2 -2,2 -5,4 -7,6 -1,2 -3,5 -5,8 -1,3 -2,6 -3,10 -1,3 -2,6 -2,10 -1,3 -1,6 -1,9 0,2 0,4 1,6 0,2 1,3 1,5 1,1 2,2 4,3 1,1 3,2 5,2 3,0 6,-1 10,-3 3,-2 6,-4 9,-8 2,-3 5,-7 7,-11 2,-4 4,-8 5,-13l2 -14zm66 65c0,1 0,1 -1,2 0,0 -1,1 -2,1 -1,1 -2,1 -4,1 -2,0 -4,0 -7,0 -2,0 -4,0 -6,0 -2,0 -3,0 -4,-1 -1,0 -1,-1 -2,-1 0,-1 0,-1 0,-2l28 -138c0,0 0,-1 0,-2 1,0 2,-1 3,-1 1,0 2,-1 4,-1 2,0 4,0 7,0 2,0 4,0 6,0 2,0 3,1 4,1 1,0 1,1 1,1 1,1 1,2 1,2l-28 138zm124 -73c0,5 -1,10 -4,14 -2,4 -5,7 -10,10 -5,3 -11,5 -18,7 -8,1 -16,2 -27,2l-9 0c0,2 -1,3 -1,5 0,1 0,3 0,4 0,6 1,10 4,13 3,3 8,4 14,4 5,0 9,0 13,-1 4,0 7,-1 9,-2 3,-1 6,-2 7,-2 2,-1 3,-1 4,-1 1,0 2,0 2,1 0,0 1,1 1,2 0,1 0,2 -1,4 0,1 0,3 -1,4 0,2 0,3 -1,5 -1,1 -1,2 -2,3 -1,1 -2,1 -5,2 -2,1 -5,2 -8,3 -3,0 -6,1 -10,1 -4,1 -8,1 -12,1 -7,0 -13,-1 -18,-2 -5,-2 -9,-4 -12,-7 -4,-2 -6,-6 -8,-10 -2,-5 -2,-10 -2,-16 0,-5 0,-10 1,-15 1,-6 2,-11 4,-16 2,-5 5,-10 8,-15 3,-5 7,-9 11,-12 4,-4 9,-7 15,-9 6,-2 12,-3 20,-3 6,0 11,0 16,2 5,1 8,3 11,6 3,2 5,5 7,8 1,4 2,7 2,10zm-26 2c0,-3 -1,-5 -3,-7 -3,-2 -6,-3 -10,-3 -3,0 -6,1 -9,2 -3,2 -5,3 -7,5 -2,2 -4,5 -6,8 -1,3 -2,6 -3,9l8 0c6,0 11,0 14,-1 4,-1 7,-2 9,-3 3,-1 4,-3 5,-4 1,-2 2,-4 2,-6zm111 -18c0,1 0,2 -1,3 0,2 0,4 -1,5 0,2 -1,4 -1,5 -1,1 -2,2 -3,2 -1,0 -2,-1 -3,-1 -1,-1 -3,-2 -4,-3 -2,0 -4,-1 -6,-2 -3,0 -5,-1 -9,-1 -2,0 -4,1 -6,1 -2,1 -4,2 -5,3 -1,1 -2,2 -3,4 0,1 -1,3 -1,4 0,3 1,4 3,6 2,1 4,3 7,4 2,1 5,3 8,4 3,1 6,3 9,5 2,2 5,5 6,8 2,3 3,7 3,11 0,5 -1,10 -3,15 -2,4 -5,8 -9,11 -4,4 -9,6 -14,8 -6,2 -12,3 -19,3 -3,0 -6,0 -9,-1 -4,0 -6,-1 -9,-2 -2,0 -4,-1 -6,-2 -1,-1 -3,-2 -4,-2 0,-1 0,-1 -1,-2 0,-1 0,-2 0,-3 0,0 0,-1 0,-2 0,-1 0,-2 1,-3 0,-1 0,-3 0,-4 1,-1 1,-2 2,-3 0,-1 0,-2 1,-2 0,-1 1,-1 1,-1 1,0 3,0 4,1 1,1 2,2 4,3 2,1 5,2 7,3 3,0 6,1 11,1 2,0 5,0 7,-1 2,-1 4,-2 5,-3 2,-1 3,-2 3,-4 1,-2 1,-3 1,-5 0,-2 -1,-4 -2,-6 -2,-1 -4,-3 -7,-4 -2,-2 -5,-3 -8,-4 -3,-2 -6,-3 -8,-5 -3,-2 -5,-5 -7,-8 -2,-3 -2,-7 -2,-11 0,-5 1,-10 2,-14 2,-4 5,-8 9,-11 3,-3 8,-6 13,-8 5,-1 11,-2 17,-2 3,0 6,0 9,0 3,1 5,1 7,2 3,0 5,1 6,2 2,1 3,1 4,2 0,1 1,2 1,4zm133 0c0,1 -1,2 -1,3 0,2 0,4 -1,5 0,2 -1,4 -2,5 0,1 -1,2 -2,2 -1,0 -2,-1 -3,-1 -1,-1 -3,-2 -4,-3 -2,0 -4,-1 -7,-2 -2,0 -5,-1 -8,-1 -2,0 -4,1 -6,1 -2,1 -4,2 -5,3 -1,1 -2,2 -3,4 -1,1 -1,3 -1,4 0,3 1,4 3,6 2,1 4,3 6,4 3,1 6,3 9,4 3,1 6,3 9,5 2,2 4,5 6,8 2,3 3,7 3,11 0,5 -1,10 -3,15 -2,4 -5,8 -9,11 -4,4 -9,6 -14,8 -6,2 -12,3 -19,3 -3,0 -7,0 -10,-1 -3,0 -5,-1 -8,-2 -2,0 -4,-1 -6,-2 -2,-1 -3,-2 -4,-2 0,-1 -1,-1 -1,-2 0,-1 0,-2 0,-3 0,0 0,-1 0,-2 0,-1 0,-2 0,-3 1,-1 1,-3 1,-4 1,-1 1,-2 1,-3 1,-1 1,-2 2,-2 0,-1 1,-1 1,-1 1,0 2,0 4,1 1,1 2,2 4,3 2,1 4,2 7,3 3,0 6,1 10,1 3,0 6,0 8,-1 2,-1 4,-2 5,-3 1,-1 3,-2 3,-4 1,-2 1,-3 1,-5 0,-2 -1,-4 -2,-6 -2,-1 -4,-3 -7,-4 -2,-2 -5,-3 -8,-4 -3,-2 -6,-3 -9,-5 -2,-2 -4,-5 -6,-8 -2,-3 -3,-7 -3,-11 0,-5 1,-10 3,-14 2,-4 5,-8 9,-11 3,-3 8,-6 13,-8 5,-1 11,-2 17,-2 3,0 6,0 9,0 3,1 5,1 7,2 2,0 4,1 6,2 2,1 3,1 4,2 0,1 1,2 1,4zm110 27c0,5 0,10 -1,16 -1,5 -3,10 -5,15 -2,5 -4,10 -7,14 -4,5 -7,9 -12,12 -4,3 -9,6 -15,8 -6,2 -12,3 -19,3 -8,0 -14,-1 -19,-3 -5,-1 -9,-4 -13,-7 -3,-3 -6,-7 -7,-11 -2,-5 -3,-10 -3,-16 0,-5 1,-11 2,-16 1,-5 2,-10 4,-15 2,-5 5,-10 8,-15 3,-4 7,-8 11,-11 5,-4 10,-6 16,-8 5,-2 12,-3 19,-3 7,0 13,1 18,2 5,2 10,4 13,7 3,4 6,7 8,12 1,5 2,10 2,16zm-27 2c0,-3 0,-6 -1,-8 -1,-2 -2,-4 -3,-6 -1,-1 -3,-2 -5,-3 -2,-1 -5,-1 -8,-1 -3,0 -7,0 -9,2 -3,1 -6,3 -8,5 -2,2 -4,5 -6,8 -1,3 -2,6 -4,10 -1,3 -1,6 -2,10 0,3 -1,7 -1,10 0,3 1,5 1,7 1,3 2,5 3,6 2,2 3,3 6,4 2,1 4,1 7,1 4,0 7,-1 10,-2 3,-1 5,-3 7,-5 2,-3 4,-5 6,-8 2,-3 3,-7 4,-10 1,-3 2,-7 2,-10 1,-4 1,-7 1,-10zm138 -12c0,2 -1,4 -1,7 0,2 -1,5 -1,7l-12 58c0,1 0,1 -1,2 0,0 -1,1 -2,1 -1,1 -3,1 -4,1 -2,0 -4,0 -7,0 -2,0 -4,0 -6,0 -2,0 -3,0 -4,-1 -1,0 -1,-1 -2,-1 0,-1 0,-1 0,-2l11 -56c1,-2 1,-3 1,-5 0,-2 0,-3 0,-5 0,-3 0,-5 -2,-8 -1,-2 -3,-3 -6,-3 -3,0 -6,1 -9,3 -3,2 -6,4 -9,8 -3,3 -5,6 -7,10 -3,5 -4,9 -5,14l-8 42c-1,1 -1,1 -1,2 -1,0 -2,1 -3,1 -1,1 -2,1 -4,1 -2,0 -4,0 -7,0 -2,0 -4,0 -6,0 -1,0 -3,0 -4,-1 -1,0 -1,-1 -1,-1 -1,-1 -1,-1 -1,-2l19 -93c0,-1 0,-2 1,-2 0,-1 1,-1 2,-2 1,0 2,0 4,0 1,0 3,-1 5,-1 2,0 4,1 5,1 2,0 3,0 3,0 1,1 2,1 2,2 0,0 0,1 0,2l-3 15c2,-3 4,-5 6,-8 2,-2 5,-4 8,-6 4,-2 7,-4 11,-5 3,-2 7,-2 11,-2 5,0 9,0 13,2 3,1 6,3 8,6 2,2 3,5 4,8 1,3 2,7 2,11zm87 72c0,1 0,1 -1,2 0,0 -1,1 -2,1 -1,1 -3,1 -5,1 -1,0 -3,0 -6,0 -3,0 -5,0 -6,0 -2,0 -3,0 -4,-1 -1,0 -2,-1 -2,-1 0,-1 0,-1 0,-2l27 -138c0,0 1,-1 1,-2 1,0 1,-1 3,-1 1,0 2,-1 4,-1 1,0 4,0 6,0 3,0 5,0 7,0 1,0 2,1 3,1 1,0 2,1 2,1 0,1 1,2 0,2l-27 138zm129 -62c0,5 0,10 -1,16 -1,5 -3,10 -5,15 -2,5 -4,10 -7,14 -4,5 -7,9 -12,12 -4,3 -9,6 -15,8 -6,2 -12,3 -19,3 -7,0 -14,-1 -19,-3 -5,-1 -9,-4 -12,-7 -4,-3 -6,-7 -8,-11 -2,-5 -3,-10 -3,-16 0,-5 1,-11 2,-16 1,-5 2,-10 4,-15 2,-5 5,-10 8,-15 3,-4 7,-8 11,-11 5,-4 10,-6 16,-8 5,-2 12,-3 19,-3 7,0 13,1 18,2 5,2 10,4 13,7 4,4 6,7 8,12 1,5 2,10 2,16zm-27 2c0,-3 0,-6 -1,-8 0,-2 -1,-4 -3,-6 -1,-1 -3,-2 -5,-3 -2,-1 -5,-1 -8,-1 -3,0 -6,0 -9,2 -3,1 -6,3 -8,5 -2,2 -4,5 -5,8 -2,3 -3,6 -4,10 -1,3 -2,6 -3,10 0,3 0,7 0,10 0,3 0,5 0,7 1,3 2,5 3,6 2,2 4,3 6,4 2,1 4,1 7,1 4,0 7,-1 10,-2 3,-1 5,-3 7,-5 3,-3 4,-5 6,-8 2,-3 3,-7 4,-10 1,-3 2,-7 2,-10 1,-4 1,-7 1,-10zm114 -29c0,1 0,2 0,3 0,2 -1,4 -1,5 -1,2 -1,4 -2,5 -1,1 -1,2 -2,2 -1,0 -2,-1 -3,-1 -2,-1 -3,-2 -5,-3 -2,0 -4,-1 -6,-2 -2,0 -5,-1 -8,-1 -3,0 -5,1 -7,1 -2,1 -3,2 -4,3 -2,1 -3,2 -3,4 -1,1 -1,3 -1,4 0,3 1,4 2,6 2,1 4,3 7,4 3,1 5,3 9,4 3,1 5,3 8,5 3,2 5,5 7,8 1,3 2,7 2,11 0,5 -1,10 -3,15 -2,4 -5,8 -9,11 -3,4 -8,6 -14,8 -5,2 -11,3 -18,3 -4,0 -7,0 -10,-1 -3,0 -6,-1 -8,-2 -3,0 -5,-1 -6,-2 -2,-1 -3,-2 -4,-2 -1,-1 -1,-1 -1,-2 -1,-1 -1,-2 -1,-3 0,0 0,-1 0,-2 1,-1 1,-2 1,-3 0,-1 1,-3 1,-4 0,-1 1,-2 1,-3 0,-1 1,-2 1,-2 1,-1 1,-1 2,-1 1,0 2,0 3,1 1,1 3,2 5,3 2,1 4,2 7,3 2,0 6,1 10,1 3,0 5,0 7,-1 3,-1 4,-2 6,-3 1,-1 2,-2 3,-4 0,-2 1,-3 1,-5 0,-2 -1,-4 -3,-6 -2,-1 -4,-3 -6,-4 -3,-2 -6,-3 -9,-4 -3,-2 -5,-3 -8,-5 -3,-2 -5,-5 -6,-8 -2,-3 -3,-7 -3,-11 0,-5 1,-10 3,-14 2,-4 4,-8 8,-11 4,-3 8,-6 13,-8 5,-1 11,-2 18,-2 3,0 6,0 8,0 3,1 6,1 8,2 2,0 4,1 6,2 1,1 2,1 3,2 1,1 1,2 1,4zm-1054 287c0,4 0,9 -1,15 -1,5 -2,10 -4,15 -2,5 -4,10 -6,15 -3,5 -6,9 -10,13 -4,3 -9,6 -13,8 -5,2 -11,4 -17,4 -6,0 -11,-2 -15,-4 -5,-2 -9,-6 -12,-10l-2 8c0,1 -1,2 -3,3 -2,0 -5,1 -9,1 -4,0 -7,-1 -9,-1 -1,-1 -2,-2 -2,-3l28 -138c0,-1 0,-1 1,-2 0,0 1,-1 2,-1 1,-1 3,-1 4,-1 2,0 4,-1 7,-1 3,0 5,1 6,1 2,0 3,0 4,1 1,0 2,1 2,1 0,1 0,1 0,2l-7 37c-1,2 -1,4 -1,6 -1,1 -1,3 -2,5 0,2 -1,3 -1,5 -1,2 -1,3 -2,4 1,-2 3,-4 6,-6 2,-3 5,-5 8,-7 3,-1 6,-3 9,-4 4,-1 7,-2 10,-2 4,0 8,1 11,2 3,1 5,2 7,4 3,2 4,4 6,6 1,2 2,5 3,8 1,2 2,5 2,8 0,2 0,5 0,8zm-27 3c0,-2 0,-4 0,-6 0,-2 -1,-3 -2,-5 0,-2 -2,-3 -3,-4 -1,-1 -3,-1 -6,-1 -3,0 -6,1 -9,3 -3,1 -6,4 -9,7 -3,3 -5,7 -7,11 -2,5 -4,9 -5,14l-3 14c3,4 5,7 8,8 3,2 7,3 11,3 2,0 5,0 7,-2 3,-1 5,-3 7,-5 2,-2 3,-5 5,-8 1,-3 2,-6 3,-9 1,-4 2,-7 3,-11 0,-3 0,-6 0,-9zm135 -12c0,5 -1,9 -4,13 -2,4 -6,8 -10,11 -5,3 -11,5 -18,6 -8,2 -17,3 -27,3l-9 0c-1,1 -1,3 -1,4 0,2 0,3 0,5 0,5 1,10 4,13 3,2 8,4 14,4 5,0 9,-1 13,-1 3,-1 7,-2 9,-2 3,-1 5,-2 7,-3 2,0 3,-1 4,-1 1,0 2,1 2,1 0,1 0,1 0,2 0,2 0,3 0,4 0,2 0,4 -1,5 0,2 -1,3 -1,4 -1,2 -1,3 -2,3 -1,1 -3,2 -5,3 -2,1 -5,1 -8,2 -3,1 -7,1 -10,2 -4,0 -8,1 -12,1 -7,0 -13,-1 -18,-3 -5,-1 -9,-3 -12,-6 -4,-3 -6,-6 -8,-11 -2,-4 -2,-10 -2,-16 0,-4 0,-9 1,-15 1,-5 2,-10 4,-15 2,-6 5,-11 8,-15 3,-5 6,-9 11,-13 4,-3 9,-6 15,-8 6,-3 12,-4 19,-4 7,0 12,1 17,3 4,1 8,3 11,6 3,2 5,5 7,8 1,3 2,6 2,10zm-26 2c0,-3 -1,-5 -4,-7 -2,-2 -5,-3 -9,-3 -3,0 -7,1 -9,2 -3,1 -5,3 -8,5 -2,2 -3,5 -5,7 -1,3 -3,6 -4,10l9 0c6,0 10,-1 14,-1 4,-1 7,-2 9,-3 2,-2 4,-3 5,-5 1,-2 2,-3 2,-5zm134 -2c0,3 0,5 0,7 -1,3 -1,5 -2,8l-11 58c0,0 -1,1 -1,1 -1,1 -1,1 -2,2 -2,0 -3,0 -5,1 -1,0 -4,0 -6,0 -3,0 -5,0 -6,0 -2,-1 -3,-1 -4,-1 -1,-1 -2,-1 -2,-2 0,0 0,-1 0,-1l11 -56c0,-2 0,-4 1,-6 0,-1 0,-3 0,-4 0,-3 -1,-6 -2,-8 -1,-2 -4,-3 -7,-3 -3,0 -6,1 -9,3 -3,2 -6,4 -9,7 -2,3 -5,7 -7,11 -2,4 -4,9 -5,13l-8 43c0,0 0,1 -1,1 0,1 -1,1 -2,2 -1,0 -3,0 -5,1 -1,0 -3,0 -6,0 -3,0 -5,0 -6,0 -2,-1 -3,-1 -4,-1 -1,-1 -2,-1 -2,-2 0,0 0,-1 0,-1l18 -94c1,-1 1,-1 1,-2 1,0 2,-1 2,-1 1,0 3,-1 4,-1 2,0 3,0 6,0 2,0 3,0 5,0 1,0 2,1 3,1 1,0 1,1 2,1 0,1 0,1 0,2l-3 15c1,-2 3,-4 5,-7 3,-3 6,-5 9,-7 3,-2 7,-3 10,-5 4,-1 8,-2 12,-2 5,0 9,1 12,2 4,2 6,4 8,6 2,3 4,6 5,9 1,3 1,6 1,10zm110 0c0,5 -1,9 -3,13 -3,4 -6,8 -11,11 -5,3 -11,5 -18,6 -8,2 -16,3 -26,3l-10 0c0,1 -1,3 -1,4 0,2 0,3 0,5 0,5 2,10 4,13 3,2 8,4 15,4 4,0 8,-1 12,-1 4,-1 7,-2 10,-2 2,-1 5,-2 6,-3 2,0 4,-1 4,-1 1,0 2,1 2,1 1,1 1,1 1,2 0,2 0,3 -1,4 0,2 0,4 -1,5 0,2 0,3 -1,4 -1,2 -1,3 -2,3 -1,1 -2,2 -5,3 -2,1 -5,1 -8,2 -3,1 -6,1 -10,2 -4,0 -8,1 -12,1 -7,0 -13,-1 -18,-3 -5,-1 -9,-3 -12,-6 -4,-3 -6,-6 -8,-11 -1,-4 -2,-10 -2,-16 0,-4 0,-9 1,-15 1,-5 2,-10 4,-15 2,-6 5,-11 8,-15 3,-5 7,-9 11,-13 4,-3 9,-6 15,-8 6,-3 12,-4 20,-4 6,0 11,1 16,3 5,1 8,3 11,6 3,2 5,5 7,8 1,3 2,6 2,10zm-26 2c0,-3 -1,-5 -3,-7 -2,-2 -6,-3 -10,-3 -3,0 -6,1 -9,2 -3,1 -5,3 -7,5 -2,2 -4,5 -6,7 -1,3 -2,6 -3,10l8 0c6,0 11,-1 14,-1 4,-1 7,-2 9,-3 3,-2 4,-3 5,-5 1,-2 2,-3 2,-5zm137 -26c3,0 5,0 6,1 1,2 1,3 1,6l-18 90c0,0 -1,1 -1,1 -1,1 -2,1 -3,2 -1,0 -2,0 -4,1 -2,0 -4,0 -6,0 -3,0 -5,0 -7,0 -1,-1 -2,-1 -3,-1 -1,-1 -2,-1 -2,-2 -1,0 -1,-1 0,-1l15 -76 -35 0 -17 82c-1,6 -2,11 -4,15 -2,5 -5,8 -8,11 -3,3 -7,6 -11,7 -5,2 -10,2 -15,2 -4,0 -7,0 -9,-1 -3,0 -4,-1 -5,-1 0,-1 0,-1 -1,-2 0,0 0,-1 0,-2 0,0 0,-1 0,-2 1,-1 1,-2 1,-3 0,-1 0,-2 1,-4 0,-1 0,-2 1,-3 0,-1 1,-2 1,-3 1,0 1,-1 2,-1 0,0 1,0 1,0 0,1 1,1 1,1 1,0 1,0 2,0 1,0 2,0 3,0 2,0 4,0 5,-1 2,-1 3,-2 5,-3 1,-1 2,-3 3,-5 1,-3 1,-5 2,-8l16 -79 -12 0c-1,0 -2,0 -2,-1 0,0 -1,-2 -1,-3 0,-1 0,-2 0,-3 1,-1 1,-2 1,-4 0,-1 1,-2 1,-3 0,-2 1,-3 1,-4 1,-1 1,-2 2,-2 1,-1 2,-1 2,-1l12 0 2 -10c1,-6 3,-12 5,-16 2,-5 5,-8 8,-11 3,-3 7,-6 11,-7 4,-2 9,-3 14,-3 2,0 4,0 6,1 1,0 3,0 4,0 2,1 3,1 4,1 1,1 1,1 2,2 0,0 0,0 0,1 0,1 1,1 1,2 0,1 0,1 -1,2 0,1 0,2 0,3 0,2 0,3 -1,4 0,1 0,3 -1,4 0,1 -1,2 -1,2 -1,1 -1,1 -2,1 0,0 -1,0 -1,0 -1,0 -1,0 -2,-1 -1,0 -2,0 -2,0 -1,0 -2,0 -4,0 -2,0 -4,0 -5,0 -2,1 -3,2 -4,3 -1,2 -2,4 -3,6 -1,2 -2,4 -2,7l-2 9 53 0zm16 -28c-1,2 -1,5 -2,6 -1,2 -2,4 -3,5 -2,1 -3,2 -6,2 -2,1 -4,1 -7,1 -3,0 -5,0 -7,-1 -2,0 -3,-1 -4,-2 -1,-1 -2,-3 -2,-5 0,-1 0,-4 1,-6 0,-3 1,-5 2,-6 1,-2 2,-4 3,-5 1,-1 3,-2 5,-2 2,-1 5,-1 8,-1 3,0 5,0 7,1 1,0 3,1 4,2 1,1 1,3 1,5 0,1 0,3 0,6zm85 38c0,1 0,3 -1,5 0,2 -1,4 -1,6 -1,2 -2,3 -3,4 -1,1 -2,2 -3,2 -1,0 -2,0 -3,-1 -1,-1 -2,-2 -3,-3 -2,-1 -4,-2 -6,-3 -2,-1 -5,-1 -8,-1 -4,0 -7,1 -10,2 -3,2 -5,4 -7,6 -2,3 -4,6 -6,9 -1,3 -2,7 -3,10 -1,3 -2,6 -2,9 0,3 -1,6 -1,8 0,6 2,10 4,13 3,3 7,5 12,5 4,0 7,-1 10,-2 3,-1 5,-2 7,-3 2,-1 4,-3 5,-4 2,0 3,-1 4,-1 1,0 1,0 2,1 0,1 0,2 0,3 0,1 0,2 0,4 -1,2 -1,4 -1,6 -1,1 -1,3 -2,5 -1,1 -1,2 -2,3 -1,1 -3,2 -5,3 -2,2 -4,3 -7,4 -2,0 -5,1 -8,2 -3,0 -7,1 -10,1 -12,0 -21,-4 -27,-10 -6,-6 -9,-15 -9,-26 0,-5 1,-9 1,-14 1,-5 3,-11 4,-16 2,-5 5,-10 7,-15 3,-4 7,-9 11,-12 4,-4 9,-7 15,-9 5,-3 11,-4 19,-4 2,0 5,1 8,1 2,0 5,1 7,2 2,0 4,1 6,2 2,1 3,2 4,3 1,1 1,2 1,2 1,1 1,2 1,3zm56 -38c-1,2 -1,4 -2,6 -1,2 -2,3 -3,5 -2,1 -4,1 -6,2 -2,0 -4,1 -7,1 -3,0 -5,-1 -7,-1 -2,-1 -4,-1 -4,-2 -1,-2 -2,-3 -2,-5 0,-2 0,-4 1,-6 0,-3 1,-5 1,-7 1,-1 2,-3 4,-4 1,-1 3,-2 5,-2 2,-1 4,-1 7,-1 3,0 6,0 8,1 2,0 3,1 4,2 1,1 1,3 2,4 0,2 -1,4 -1,7zm-27 125c0,0 -1,1 -1,1 -1,1 -1,1 -3,2 -1,0 -2,0 -4,1 -2,0 -4,0 -6,0 -3,0 -5,0 -7,0 -1,-1 -2,-1 -3,-1 -1,-1 -2,-1 -2,-2 0,0 -1,-1 0,-1l18 -94c0,0 0,-1 1,-1 1,-1 1,-1 2,-2 2,0 3,0 5,-1 1,0 3,0 6,0 3,0 5,0 6,0 2,1 3,1 4,1 1,1 2,1 2,2 0,0 0,1 0,1l-18 94zm129 -62c0,5 0,10 -1,15 -1,5 -3,11 -5,16 -2,5 -4,9 -8,14 -3,4 -7,8 -11,12 -4,3 -9,6 -15,8 -6,2 -12,3 -20,3 -7,0 -13,-1 -18,-3 -5,-2 -9,-4 -13,-7 -3,-3 -6,-7 -7,-12 -2,-5 -3,-10 -3,-16 0,-5 1,-10 2,-15 1,-6 2,-11 4,-16 2,-5 5,-10 8,-14 3,-5 7,-8 11,-12 5,-3 10,-6 15,-8 6,-2 13,-3 20,-3 7,0 13,1 18,3 5,1 10,4 13,7 3,3 6,7 8,12 1,4 2,10 2,16zm-27 1c0,-2 0,-5 -1,-7 -1,-3 -2,-4 -3,-6 -1,-2 -3,-3 -5,-4 -2,0 -5,-1 -8,-1 -3,0 -7,1 -9,2 -3,1 -6,3 -8,6 -2,2 -4,5 -6,8 -1,3 -3,6 -4,9 -1,4 -1,7 -2,10 0,4 -1,7 -1,10 0,3 1,6 1,8 1,2 2,4 3,6 2,1 3,3 5,3 3,1 5,2 8,2 4,0 7,-1 10,-2 2,-2 5,-4 7,-6 2,-2 4,-5 6,-8 1,-3 3,-6 4,-10 1,-3 2,-6 2,-10 1,-3 1,-6 1,-10zm114 -29c0,1 0,2 0,4 -1,2 -1,3 -1,5 -1,2 -2,3 -2,4 -1,2 -2,2 -2,2 -1,0 -2,0 -4,-1 -1,0 -2,-1 -4,-2 -2,-1 -4,-1 -6,-2 -3,-1 -5,-1 -8,-1 -3,0 -5,0 -7,1 -2,1 -3,1 -5,2 -1,2 -2,3 -2,4 -1,2 -1,3 -1,5 0,2 0,4 2,5 2,2 4,3 7,5 2,1 5,2 8,4 3,1 6,3 9,5 3,2 5,4 6,7 2,3 3,7 3,12 0,5 -1,10 -3,14 -2,5 -5,9 -9,12 -4,3 -8,6 -14,8 -5,2 -12,3 -19,3 -3,0 -6,-1 -9,-1 -3,-1 -6,-1 -8,-2 -3,-1 -5,-1 -7,-2 -1,-1 -2,-2 -3,-3 -1,0 -1,-1 -1,-2 -1,0 -1,-1 -1,-2 0,-1 0,-1 0,-2 0,-1 1,-2 1,-4 0,-1 0,-2 1,-3 0,-1 0,-2 1,-3 0,-1 1,-2 1,-3 1,0 1,-1 2,-1 1,0 2,1 3,2 1,0 3,1 5,2 1,1 4,2 6,3 3,1 7,1 11,1 3,0 5,0 7,-1 2,0 4,-1 5,-2 2,-2 3,-3 4,-4 0,-2 1,-4 1,-5 0,-3 -1,-5 -3,-6 -2,-2 -4,-3 -6,-5 -3,-1 -6,-2 -9,-4 -3,-1 -6,-3 -8,-5 -3,-2 -5,-4 -7,-7 -1,-3 -2,-7 -2,-12 0,-5 1,-9 3,-13 2,-5 4,-8 8,-12 4,-3 8,-5 13,-7 5,-2 11,-3 18,-3 3,0 5,0 8,1 3,0 5,1 8,1 2,1 4,2 5,2 2,1 3,2 4,3 1,0 1,2 1,3zm105 -17c0,6 0,11 -2,16 -2,6 -4,10 -7,15 -4,4 -8,7 -14,10 -5,3 -11,5 -19,6l-5 20c0,1 -1,2 -3,2 -2,1 -5,1 -9,1 -2,0 -4,0 -5,0 -2,0 -3,0 -4,0 -1,-1 -2,-1 -2,-2 0,0 0,-1 0,-1l4 -25c0,-2 1,-4 1,-6 1,-1 2,-2 2,-3 1,-1 2,-1 3,-2 2,0 3,0 4,0l1 0c5,0 10,-1 13,-3 4,-1 6,-4 8,-6 3,-3 4,-6 5,-9 1,-3 1,-6 1,-8 0,-3 0,-5 -1,-8 -1,-2 -2,-4 -3,-6 -2,-1 -4,-2 -6,-3 -3,-1 -6,-2 -9,-2 -4,0 -7,1 -10,1 -3,1 -5,2 -7,3 -2,1 -4,2 -5,3 -2,0 -3,1 -4,1 0,0 -1,-1 -1,-1 0,-1 -1,-2 -1,-4 0,-1 0,-2 1,-3 0,-2 0,-3 0,-5 1,-1 1,-3 2,-4 0,-2 1,-3 2,-4 1,-1 2,-2 4,-2 2,-1 5,-2 7,-3 3,-1 6,-1 9,-2 3,0 6,-1 9,-1 6,0 11,1 15,2 4,1 7,2 10,4 3,1 6,3 8,6 2,2 4,4 5,7 1,2 2,5 3,8 0,3 0,6 0,8zm-48 90c0,1 0,3 -1,4 0,2 0,4 -1,5 0,2 -1,4 -2,5 0,2 -1,3 -2,4 -1,1 -3,2 -5,3 -2,0 -5,1 -8,1 -2,0 -4,-1 -6,-1 -2,0 -3,-1 -4,-2 -1,0 -1,-1 -2,-2 0,-1 0,-3 0,-4 0,-1 0,-3 0,-4 0,-2 1,-4 1,-5 1,-2 1,-4 2,-5 0,-2 1,-3 2,-4 2,-2 3,-3 6,-3 2,-1 4,-1 7,-1 3,0 5,0 7,0 1,1 3,2 3,2 1,1 2,2 2,3 1,1 1,3 1,4zm137 -358c7,-6 15,-10 23,-13 9,-3 18,-4 28,-4 4,0 8,0 13,1 4,0 7,1 11,2 4,1 7,2 10,4 5,2 10,5 13,9 7,7 10,15 10,25 0,3 0,5 -1,8 0,3 -1,6 -2,9l0 0c-1,4 -2,7 -4,10 -1,3 -3,5 -5,8 4,7 5,15 5,23 0,10 -2,19 -6,27 -4,9 -9,17 -17,23 -7,6 -15,10 -24,13 -9,3 -19,5 -28,5 -5,0 -10,-1 -15,-1 -4,-1 -8,-2 -12,-3 -4,-1 -8,-3 -12,-5 -3,-1 -6,-3 -8,-5 -6,4 -12,7 -19,9 -9,3 -19,5 -29,5 -10,0 -19,-1 -28,-4 -7,-2 -14,-6 -20,-10 0,0 -1,0 -1,0 -4,5 -9,8 -14,9l-1 1c-4,1 -7,1 -10,2 -4,0 -7,0 -10,0 -3,0 -7,0 -10,0 -3,-1 -7,-2 -11,-3l0 0c-8,-3 -13,-8 -17,-14l-1 -1 0 -1c-4,-7 -5,-15 -4,-22l28 -138c1,-6 4,-11 7,-15l1 -1 1 -1c4,-4 9,-7 14,-9 4,-1 7,-2 11,-2 3,-1 7,-1 10,-1 4,0 7,0 11,1 4,0 8,1 11,2 7,3 14,9 17,16l1 1c3,6 4,14 3,21l-2 7c1,0 2,0 3,-1 9,-3 19,-4 29,-4 9,0 19,1 28,4 8,3 17,7 23,13zm-330 -3c4,-4 9,-8 15,-10 3,-1 7,-2 10,-2 3,0 6,0 9,0 3,0 6,0 9,0 4,1 7,1 10,2 1,0 2,0 3,-1 7,-2 14,-3 21,-3 9,0 17,1 25,5 7,3 14,8 19,14 5,6 9,13 11,20 2,6 2,12 2,19 0,3 0,7 0,11 -1,3 -1,6 -2,9l-11 58c-2,7 -5,13 -10,18 -4,4 -9,7 -15,9l0 0c-4,1 -7,1 -10,2 -3,0 -7,0 -10,0 -3,0 -6,0 -9,0 -4,-1 -8,-2 -11,-3l-1 0c-3,-1 -6,-3 -9,-5 -3,3 -7,4 -11,6 -3,1 -7,1 -10,2 -3,0 -6,0 -10,0 -3,0 -6,0 -9,0 -4,-1 -7,-1 -11,-3l-1 0c-5,-2 -9,-5 -13,-9 -5,4 -12,7 -18,9 -10,3 -19,5 -29,5 -10,0 -19,-1 -28,-4 -9,-3 -17,-7 -23,-13 -7,6 -15,10 -24,12 -9,3 -18,5 -28,5 -5,0 -10,-1 -14,-1 -4,-1 -8,-2 -12,-3 -4,-1 -8,-3 -12,-5 -4,-1 -7,-4 -10,-6l-1 -1 -1 -1c-3,-4 -6,-8 -8,-12 -1,-4 -2,-9 -2,-14 0,-1 0,-3 0,-5 0,-1 0,-2 1,-3 -1,4 -3,7 -4,10 -4,9 -10,17 -17,23 -7,6 -15,10 -24,13 -10,3 -19,5 -29,5 -5,0 -10,-1 -14,-1 -4,-1 -8,-2 -12,-3 -4,-1 -8,-3 -12,-5 -1,0 -2,0 -2,-1 -2,1 -4,2 -7,3 -4,2 -8,3 -12,4 -5,1 -9,1 -14,2 -5,1 -10,1 -15,1 -9,0 -18,-1 -26,-3 -8,-3 -15,-6 -21,-11 0,0 -1,0 -1,0 -4,5 -9,8 -14,9l-1 1c-3,1 -7,1 -10,2 -3,0 -6,0 -10,0 -3,0 -6,0 -9,0 -4,-1 -8,-2 -11,-3l-1 0c-2,-1 -3,-1 -5,-2 -2,1 -4,2 -6,3 -6,2 -13,2 -19,2 -3,0 -6,0 -9,0 -3,-1 -7,-1 -10,-3 -1,1 -1,1 -2,1 -7,3 -14,4 -22,4 -10,0 -19,-2 -28,-7 -3,-1 -6,-3 -9,-6 -4,4 -8,7 -13,8 -4,1 -7,2 -10,3 -3,0 -7,0 -10,0 -3,0 -6,0 -9,0 -3,-1 -7,-2 -10,-3 -1,1 -2,1 -2,1 -7,3 -14,4 -22,4 -8,0 -16,-1 -24,-4 -5,-3 -10,-5 -14,-9 -1,1 -1,1 -2,2 -4,2 -9,4 -13,5 -5,2 -10,3 -16,4 -6,1 -12,2 -18,2 -10,0 -21,-2 -30,-5 -9,-3 -17,-7 -23,-13 -1,1 -1,3 -2,4 -1,5 -4,10 -8,14l-1 1 0 0c-4,4 -9,7 -13,9 -4,1 -8,3 -12,4 -4,1 -8,2 -12,2 -5,1 -10,2 -14,2 -7,0 -14,-1 -21,-3 -7,-1 -13,-3 -19,-7 -6,-3 -11,-7 -15,-12 -4,-4 -8,-9 -10,-14 -3,-5 -5,-11 -6,-16 -1,-5 -1,-10 -1,-14 0,-9 1,-17 4,-25 2,-9 7,-18 13,-25 6,-8 13,-14 22,-18 3,-2 5,-3 8,-4l1 -2 0 -1c0,-2 1,-3 2,-5 -1,-3 -1,-6 -1,-10 0,-3 0,-6 1,-9 0,-3 1,-5 1,-8 1,-3 2,-7 4,-10l0 0c2,-4 4,-8 7,-12l1 0 1 -1c5,-5 10,-8 17,-10 5,-2 11,-3 17,-3 5,0 9,1 13,2 7,1 12,4 18,8 4,4 7,9 9,13 4,-4 8,-9 13,-12 9,-7 18,-12 28,-16 11,-4 23,-6 34,-6 7,0 14,1 21,2 7,2 13,4 19,7 5,3 11,6 15,11 4,5 7,10 9,17 3,0 5,0 8,0 3,0 7,1 10,2 4,2 7,3 10,5 3,-2 7,-4 12,-5 3,-1 6,-2 9,-2 4,0 7,0 10,0 3,0 6,0 10,0 3,0 7,1 10,2 5,2 9,5 13,8 4,-2 7,-4 11,-6 10,-4 19,-6 30,-6 7,0 15,1 22,4 6,-2 13,-2 19,-2 3,0 6,0 9,0 1,0 2,0 3,1l3 -17c2,-6 4,-11 7,-15l1 -1 1 -1c4,-4 9,-7 15,-9 3,-1 7,-2 10,-2 4,-1 7,-1 11,-1 3,0 6,0 10,1 4,0 8,1 11,2 8,3 14,9 18,16l0 1c3,6 4,14 3,21l-1 7c0,0 0,0 0,0 10,-4 20,-5 31,-5 8,0 17,1 26,4 7,2 14,6 21,11 6,-5 13,-8 20,-11 9,-3 18,-4 27,-4 5,0 9,0 13,1 4,0 8,1 12,2 3,1 7,2 10,4 5,2 9,5 13,9 6,7 10,15 10,25 0,3 -1,5 -1,8 -1,3 -1,6 -2,9l0 0c-1,4 -2,7 -4,10 -2,3 -3,5 -5,8 3,7 5,15 5,23 0,4 -1,7 -1,10 0,0 0,-1 0,-1l1 -1c0,-3 1,-5 2,-8 2,-3 4,-6 6,-9 1,-2 3,-3 5,-5 -2,-6 -3,-13 -3,-19 0,-9 1,-18 5,-27 4,-8 9,-15 16,-21 7,-6 15,-11 24,-14 9,-3 18,-4 27,-4 5,0 9,0 13,1 4,0 8,1 11,2 4,1 8,2 11,4 4,2 8,4 11,7 7,-4 13,-7 21,-10 9,-3 19,-4 29,-4 9,0 19,1 28,4 7,2 14,6 20,10zm-729 43c-3,-1 -6,-3 -8,-6 -1,0 -1,0 -1,0 -1,-1 -2,-1 -1,-1 -1,0 -2,0 -2,0 0,0 -1,0 -1,0 -1,1 -2,1 -3,2 -1,2 -3,3 -4,5 -1,3 -3,6 -4,9 -1,3 -1,6 -2,9 0,2 -1,4 -1,6 0,0 0,0 0,0 2,0 3,-1 4,-1 1,-1 3,-1 4,-2 5,-3 10,-6 16,-6l3 -15z"/>
  <g id="_2186662256384">
   <path class="fil1" d="M31 162c0,-6 1,-11 2,-16 2,-6 4,-10 8,-15 3,-4 7,-7 13,-10 5,-3 11,-5 19,-5l5 -20c0,-2 1,-3 3,-3 2,-1 5,-1 9,-1 2,0 4,0 6,0 1,0 2,0 3,0 1,1 2,1 2,2 0,0 0,1 0,2l-4 24c0,2 -1,4 -1,6 -1,1 -1,2 -2,3 -1,1 -2,1 -3,2 -1,0 -3,0 -4,0l-1 0c-5,0 -9,1 -13,3 -3,1 -6,4 -8,6 -2,3 -4,6 -5,9 -1,3 -1,6 -1,9 0,2 0,5 1,7 1,2 2,4 4,6 1,1 3,2 6,3 2,1 5,2 8,2 4,0 7,-1 10,-1 3,-1 5,-2 7,-3 2,-1 4,-2 6,-3 1,0 2,-1 3,-1 0,0 1,1 1,1 1,1 1,2 1,4 0,1 0,2 -1,3 0,2 0,3 0,5 -1,1 -1,3 -2,4 0,2 -1,3 -2,4 0,1 -2,2 -4,3 -2,0 -4,1 -7,2 -3,1 -6,2 -9,2 -3,0 -6,1 -9,1 -6,0 -10,-1 -14,-2 -4,-1 -8,-2 -11,-4 -3,-1 -5,-3 -8,-5 -2,-3 -3,-5 -5,-8 -1,-2 -2,-5 -2,-8 -1,-3 -1,-6 -1,-8zm49 -90c0,-1 0,-2 0,-4 0,-2 1,-4 1,-5 0,-2 1,-4 2,-5 0,-2 1,-3 2,-4 1,-1 3,-2 5,-3 2,0 5,-1 8,-1 3,0 5,1 6,1 2,0 3,1 4,2 1,0 2,1 2,2 0,2 1,3 1,4 0,1 -1,3 -1,4 0,2 0,4 -1,5 0,2 -1,4 -1,5 -1,2 -2,3 -3,4 -1,2 -3,3 -5,3 -2,1 -5,1 -8,1 -2,0 -5,0 -6,0 -2,-1 -3,-2 -4,-2 -1,-1 -2,-2 -2,-3 0,-1 0,-3 0,-4zm167 -18c0,2 0,5 -1,8 0,3 -1,6 -2,8 -1,2 -2,3 -4,3 0,0 -2,0 -3,-2 -1,-1 -3,-2 -5,-3 -2,-2 -4,-3 -7,-4 -4,-1 -7,-2 -12,-2 -5,0 -10,1 -14,3 -5,2 -8,5 -12,8 -3,4 -6,8 -8,12 -3,4 -5,9 -7,14 -1,4 -3,9 -3,14 -1,5 -2,9 -2,13 0,5 1,9 2,13 2,4 3,7 6,9 2,2 5,4 8,6 3,1 7,1 11,1 5,0 10,0 13,-1 4,-1 7,-2 9,-4 3,-1 5,-2 6,-3 2,-1 3,-2 5,-2 1,0 1,1 1,1 1,1 1,2 1,3 0,1 0,1 0,2 0,1 -1,2 -1,4 0,1 0,2 -1,4 0,1 0,2 0,4 -1,1 -1,2 -2,3 0,1 -1,2 -1,3 -1,0 -3,1 -5,3 -2,1 -5,2 -8,3 -3,1 -7,2 -11,3 -4,0 -8,1 -13,1 -8,0 -14,-1 -21,-3 -6,-2 -11,-5 -15,-10 -4,-4 -8,-9 -10,-15 -2,-6 -3,-13 -3,-22 0,-6 0,-13 2,-20 1,-7 3,-14 6,-21 2,-6 6,-13 10,-19 4,-6 9,-11 14,-15 6,-5 12,-8 20,-11 7,-3 15,-4 23,-4 5,0 10,1 14,2 5,1 8,2 12,4 3,1 5,3 6,4 2,1 2,3 2,5zm82 119c0,1 0,1 0,2 -1,1 -2,1 -3,1 -1,1 -2,1 -3,1 -2,0 -3,0 -6,0 -2,0 -4,0 -5,0 -1,0 -2,0 -3,-1 -1,0 -1,0 -2,-1 0,-1 0,-1 0,-2l3 -15c-1,2 -3,5 -6,7 -2,3 -5,5 -8,7 -3,2 -7,4 -10,5 -4,1 -8,2 -12,2 -5,0 -9,-1 -12,-2 -4,-1 -6,-3 -8,-6 -2,-2 -4,-5 -5,-8 -1,-3 -1,-7 -1,-11 0,-2 0,-5 0,-7 1,-2 1,-5 1,-8l12 -57c0,-1 0,-2 1,-2 1,-1 1,-1 2,-2 1,0 3,0 5,0 1,0 4,-1 6,-1 3,0 5,1 6,1 2,0 3,0 4,0 1,1 2,1 2,2 0,0 0,1 0,2l-11 56c0,1 -1,3 -1,4 0,2 0,4 0,5 0,2 0,3 1,5 0,1 0,2 1,3 1,1 2,2 3,3 1,0 2,0 4,0 3,0 6,-1 9,-3 3,-1 6,-4 8,-7 3,-3 6,-7 8,-12 2,-4 4,-9 5,-14l8 -40c0,-1 0,-2 1,-2 0,-1 1,-1 2,-2 1,0 3,0 5,0 1,0 3,-1 6,-1 2,0 5,1 6,1 2,0 3,0 4,0 1,1 2,1 2,2 0,0 0,1 0,2l-19 93zm114 0c-1,2 -2,3 -4,3 -2,1 -5,1 -9,1 -2,0 -4,0 -5,0 -2,0 -3,0 -4,-1 0,0 -1,0 -1,-1 0,0 -1,-1 0,-2l3 -15c-2,2 -3,5 -5,7 -3,3 -6,5 -9,7 -3,2 -6,4 -10,5 -4,1 -8,2 -12,2 -5,0 -10,-1 -14,-3 -3,-2 -6,-5 -9,-8 -2,-3 -4,-7 -4,-11 -1,-4 -2,-9 -2,-14 0,-4 1,-9 1,-14 1,-5 3,-10 4,-16 2,-5 4,-10 7,-14 3,-5 6,-9 10,-13 4,-4 8,-7 13,-9 5,-2 10,-3 17,-3 5,0 10,1 15,3 4,3 8,6 12,11l1 -8c1,-2 2,-3 4,-4 2,0 5,-1 9,-1 2,0 4,1 5,1 1,0 3,0 3,0 1,1 2,1 2,2 0,0 0,1 0,2l-18 93zm-14 -65c-2,-4 -5,-7 -8,-9 -3,-2 -6,-3 -10,-3 -3,0 -6,1 -8,2 -2,2 -5,4 -7,6 -1,2 -3,5 -5,8 -1,3 -2,6 -3,10 -1,3 -2,6 -2,10 -1,3 -1,6 -1,9 0,2 0,4 1,6 0,2 1,3 1,5 1,1 2,2 4,3 1,1 3,2 5,2 3,0 6,-1 10,-3 3,-2 6,-4 9,-8 2,-3 5,-7 7,-11 2,-4 4,-8 5,-13l2 -14zm66 65c0,1 0,1 -1,2 0,0 -1,1 -2,1 -1,1 -2,1 -4,1 -2,0 -4,0 -7,0 -2,0 -4,0 -6,0 -2,0 -3,0 -4,-1 -1,0 -1,-1 -2,-1 0,-1 0,-1 0,-2l28 -138c0,0 0,-1 0,-2 1,0 2,-1 3,-1 1,0 2,-1 4,-1 2,0 4,0 7,0 2,0 4,0 6,0 2,0 3,1 4,1 1,0 1,1 1,1 1,1 1,2 1,2l-28 138zm124 -73c0,5 -1,10 -4,14 -2,4 -5,7 -10,10 -5,3 -11,5 -18,7 -8,1 -16,2 -27,2l-9 0c0,2 -1,3 -1,5 0,1 0,3 0,4 0,6 1,10 4,13 3,3 8,4 14,4 5,0 9,0 13,-1 4,0 7,-1 9,-2 3,-1 6,-2 7,-2 2,-1 3,-1 4,-1 1,0 2,0 2,1 0,0 1,1 1,2 0,1 0,2 -1,4 0,1 0,3 -1,4 0,2 0,3 -1,5 -1,1 -1,2 -2,3 -1,1 -2,1 -5,2 -2,1 -5,2 -8,3 -3,0 -6,1 -10,1 -4,1 -8,1 -12,1 -7,0 -13,-1 -18,-2 -5,-2 -9,-4 -12,-7 -4,-2 -6,-6 -8,-10 -2,-5 -2,-10 -2,-16 0,-5 0,-10 1,-15 1,-6 2,-11 4,-16 2,-5 5,-10 8,-15 3,-5 7,-9 11,-12 4,-4 9,-7 15,-9 6,-2 12,-3 20,-3 6,0 11,0 16,2 5,1 8,3 11,6 3,2 5,5 7,8 1,4 2,7 2,10zm-26 2c0,-3 -1,-5 -3,-7 -3,-2 -6,-3 -10,-3 -3,0 -6,1 -9,2 -3,2 -5,3 -7,5 -2,2 -4,5 -6,8 -1,3 -2,6 -3,9l8 0c6,0 11,0 14,-1 4,-1 7,-2 9,-3 3,-1 4,-3 5,-4 1,-2 2,-4 2,-6zm111 -18c0,1 0,2 -1,3 0,2 0,4 -1,5 0,2 -1,4 -1,5 -1,1 -2,2 -3,2 -1,0 -2,-1 -3,-1 -1,-1 -3,-2 -4,-3 -2,0 -4,-1 -6,-2 -3,0 -5,-1 -9,-1 -2,0 -4,1 -6,1 -2,1 -4,2 -5,3 -1,1 -2,2 -3,4 0,1 -1,3 -1,4 0,3 1,4 3,6 2,1 4,3 7,4 2,1 5,3 8,4 3,1 6,3 9,5 2,2 5,5 6,8 2,3 3,7 3,11 0,5 -1,10 -3,15 -2,4 -5,8 -9,11 -4,4 -9,6 -14,8 -6,2 -12,3 -19,3 -3,0 -6,0 -9,-1 -4,0 -6,-1 -9,-2 -2,0 -4,-1 -6,-2 -1,-1 -3,-2 -4,-2 0,-1 0,-1 -1,-2 0,-1 0,-2 0,-3 0,0 0,-1 0,-2 0,-1 0,-2 1,-3 0,-1 0,-3 0,-4 1,-1 1,-2 2,-3 0,-1 0,-2 1,-2 0,-1 1,-1 1,-1 1,0 3,0 4,1 1,1 2,2 4,3 2,1 5,2 7,3 3,0 6,1 11,1 2,0 5,0 7,-1 2,-1 4,-2 5,-3 2,-1 3,-2 3,-4 1,-2 1,-3 1,-5 0,-2 -1,-4 -2,-6 -2,-1 -4,-3 -7,-4 -2,-2 -5,-3 -8,-4 -3,-2 -6,-3 -8,-5 -3,-2 -5,-5 -7,-8 -2,-3 -2,-7 -2,-11 0,-5 1,-10 2,-14 2,-4 5,-8 9,-11 3,-3 8,-6 13,-8 5,-1 11,-2 17,-2 3,0 6,0 9,0 3,1 5,1 7,2 3,0 5,1 6,2 2,1 3,1 4,2 0,1 1,2 1,4zm133 0c0,1 -1,2 -1,3 0,2 0,4 -1,5 0,2 -1,4 -2,5 0,1 -1,2 -2,2 -1,0 -2,-1 -3,-1 -1,-1 -3,-2 -4,-3 -2,0 -4,-1 -7,-2 -2,0 -5,-1 -8,-1 -2,0 -4,1 -6,1 -2,1 -4,2 -5,3 -1,1 -2,2 -3,4 -1,1 -1,3 -1,4 0,3 1,4 3,6 2,1 4,3 6,4 3,1 6,3 9,4 3,1 6,3 9,5 2,2 4,5 6,8 2,3 3,7 3,11 0,5 -1,10 -3,15 -2,4 -5,8 -9,11 -4,4 -9,6 -14,8 -6,2 -12,3 -19,3 -3,0 -7,0 -10,-1 -3,0 -5,-1 -8,-2 -2,0 -4,-1 -6,-2 -2,-1 -3,-2 -4,-2 0,-1 -1,-1 -1,-2 0,-1 0,-2 0,-3 0,0 0,-1 0,-2 0,-1 0,-2 0,-3 1,-1 1,-3 1,-4 1,-1 1,-2 1,-3 1,-1 1,-2 2,-2 0,-1 1,-1 1,-1 1,0 2,0 4,1 1,1 2,2 4,3 2,1 4,2 7,3 3,0 6,1 10,1 3,0 6,0 8,-1 2,-1 4,-2 5,-3 1,-1 3,-2 3,-4 1,-2 1,-3 1,-5 0,-2 -1,-4 -2,-6 -2,-1 -4,-3 -7,-4 -2,-2 -5,-3 -8,-4 -3,-2 -6,-3 -9,-5 -2,-2 -4,-5 -6,-8 -2,-3 -3,-7 -3,-11 0,-5 1,-10 3,-14 2,-4 5,-8 9,-11 3,-3 8,-6 13,-8 5,-1 11,-2 17,-2 3,0 6,0 9,0 3,1 5,1 7,2 2,0 4,1 6,2 2,1 3,1 4,2 0,1 1,2 1,4zm110 27c0,5 0,10 -1,16 -1,5 -3,10 -5,15 -2,5 -4,10 -7,14 -4,5 -7,9 -12,12 -4,3 -9,6 -15,8 -6,2 -12,3 -19,3 -8,0 -14,-1 -19,-3 -5,-1 -9,-4 -13,-7 -3,-3 -6,-7 -7,-11 -2,-5 -3,-10 -3,-16 0,-5 1,-11 2,-16 1,-5 2,-10 4,-15 2,-5 5,-10 8,-15 3,-4 7,-8 11,-11 5,-4 10,-6 16,-8 5,-2 12,-3 19,-3 7,0 13,1 18,2 5,2 10,4 13,7 3,4 6,7 8,12 1,5 2,10 2,16zm-27 2c0,-3 0,-6 -1,-8 -1,-2 -2,-4 -3,-6 -1,-1 -3,-2 -5,-3 -2,-1 -5,-1 -8,-1 -3,0 -7,0 -9,2 -3,1 -6,3 -8,5 -2,2 -4,5 -6,8 -1,3 -2,6 -4,10 -1,3 -1,6 -2,10 0,3 -1,7 -1,10 0,3 1,5 1,7 1,3 2,5 3,6 2,2 3,3 6,4 2,1 4,1 7,1 4,0 7,-1 10,-2 3,-1 5,-3 7,-5 2,-3 4,-5 6,-8 2,-3 3,-7 4,-10 1,-3 2,-7 2,-10 1,-4 1,-7 1,-10zm138 -12c0,2 -1,4 -1,7 0,2 -1,5 -1,7l-12 58c0,1 0,1 -1,2 0,0 -1,1 -2,1 -1,1 -3,1 -4,1 -2,0 -4,0 -7,0 -2,0 -4,0 -6,0 -2,0 -3,0 -4,-1 -1,0 -1,-1 -2,-1 0,-1 0,-1 0,-2l11 -56c1,-2 1,-3 1,-5 0,-2 0,-3 0,-5 0,-3 0,-5 -2,-8 -1,-2 -3,-3 -6,-3 -3,0 -6,1 -9,3 -3,2 -6,4 -9,8 -3,3 -5,6 -7,10 -3,5 -4,9 -5,14l-8 42c-1,1 -1,1 -1,2 -1,0 -2,1 -3,1 -1,1 -2,1 -4,1 -2,0 -4,0 -7,0 -2,0 -4,0 -6,0 -1,0 -3,0 -4,-1 -1,0 -1,-1 -1,-1 -1,-1 -1,-1 -1,-2l19 -93c0,-1 0,-2 1,-2 0,-1 1,-1 2,-2 1,0 2,0 4,0 1,0 3,-1 5,-1 2,0 4,1 5,1 2,0 3,0 3,0 1,1 2,1 2,2 0,0 0,1 0,2l-3 15c2,-3 4,-5 6,-8 2,-2 5,-4 8,-6 4,-2 7,-4 11,-5 3,-2 7,-2 11,-2 5,0 9,0 13,2 3,1 6,3 8,6 2,2 3,5 4,8 1,3 2,7 2,11zm87 72c0,1 0,1 -1,2 0,0 -1,1 -2,1 -1,1 -3,1 -5,1 -1,0 -3,0 -6,0 -3,0 -5,0 -6,0 -2,0 -3,0 -4,-1 -1,0 -2,-1 -2,-1 0,-1 0,-1 0,-2l27 -138c0,0 1,-1 1,-2 1,0 1,-1 3,-1 1,0 2,-1 4,-1 1,0 4,0 6,0 3,0 5,0 7,0 1,0 2,1 3,1 1,0 2,1 2,1 0,1 1,2 0,2l-27 138z"/>
   <path class="fil1" d="M1274 111c0,5 0,10 -1,16 -1,5 -3,10 -5,15 -2,5 -4,10 -7,14 -4,5 -7,9 -12,12 -4,3 -9,6 -15,8 -6,2 -12,3 -19,3 -7,0 -14,-1 -19,-3 -5,-1 -9,-4 -12,-7 -4,-3 -6,-7 -8,-11 -2,-5 -3,-10 -3,-16 0,-5 1,-11 2,-16 1,-5 2,-10 4,-15 2,-5 5,-10 8,-15 3,-4 7,-8 11,-11 5,-4 10,-6 16,-8 5,-2 12,-3 19,-3 7,0 13,1 18,2 5,2 10,4 13,7 4,4 6,7 8,12 1,5 2,10 2,16zm-27 2c0,-3 0,-6 -1,-8 0,-2 -1,-4 -3,-6 -1,-1 -3,-2 -5,-3 -2,-1 -5,-1 -8,-1 -3,0 -6,0 -9,2 -3,1 -6,3 -8,5 -2,2 -4,5 -5,8 -2,3 -3,6 -4,10 -1,3 -2,6 -3,10 0,3 0,7 0,10 0,3 0,5 0,7 1,3 2,5 3,6 2,2 4,3 6,4 2,1 4,1 7,1 4,0 7,-1 10,-2 3,-1 5,-3 7,-5 3,-3 4,-5 6,-8 2,-3 3,-7 4,-10 1,-3 2,-7 2,-10 1,-4 1,-7 1,-10zm114 -29c0,1 0,2 0,3 0,2 -1,4 -1,5 -1,2 -1,4 -2,5 -1,1 -1,2 -2,2 -1,0 -2,-1 -3,-1 -2,-1 -3,-2 -5,-3 -2,0 -4,-1 -6,-2 -2,0 -5,-1 -8,-1 -3,0 -5,1 -7,1 -2,1 -3,2 -4,3 -2,1 -3,2 -3,4 -1,1 -1,3 -1,4 0,3 1,4 2,6 2,1 4,3 7,4 3,1 5,3 9,4 3,1 5,3 8,5 3,2 5,5 7,8 1,3 2,7 2,11 0,5 -1,10 -3,15 -2,4 -5,8 -9,11 -3,4 -8,6 -14,8 -5,2 -11,3 -18,3 -4,0 -7,0 -10,-1 -3,0 -6,-1 -8,-2 -3,0 -5,-1 -6,-2 -2,-1 -3,-2 -4,-2 -1,-1 -1,-1 -1,-2 -1,-1 -1,-2 -1,-3 0,0 0,-1 0,-2 1,-1 1,-2 1,-3 0,-1 1,-3 1,-4 0,-1 1,-2 1,-3 0,-1 1,-2 1,-2 1,-1 1,-1 2,-1 1,0 2,0 3,1 1,1 3,2 5,3 2,1 4,2 7,3 2,0 6,1 10,1 3,0 5,0 7,-1 3,-1 4,-2 6,-3 1,-1 2,-2 3,-4 0,-2 1,-3 1,-5 0,-2 -1,-4 -3,-6 -2,-1 -4,-3 -6,-4 -3,-2 -6,-3 -9,-4 -3,-2 -5,-3 -8,-5 -3,-2 -5,-5 -6,-8 -2,-3 -3,-7 -3,-11 0,-5 1,-10 3,-14 2,-4 4,-8 8,-11 4,-3 8,-6 13,-8 5,-1 11,-2 18,-2 3,0 6,0 8,0 3,1 6,1 8,2 2,0 4,1 6,2 1,1 2,1 3,2 1,1 1,2 1,4zm-1054 287c0,4 0,9 -1,15 -1,5 -2,10 -4,15 -2,5 -4,10 -6,15 -3,5 -6,9 -10,13 -4,3 -9,6 -13,8 -5,2 -11,4 -17,4 -6,0 -11,-2 -15,-4 -5,-2 -9,-6 -12,-10l-2 8c0,1 -1,2 -3,3 -2,0 -5,1 -9,1 -4,0 -7,-1 -9,-1 -1,-1 -2,-2 -2,-3l28 -138c0,-1 0,-1 1,-2 0,0 1,-1 2,-1 1,-1 3,-1 4,-1 2,0 4,-1 7,-1 3,0 5,1 6,1 2,0 3,0 4,1 1,0 2,1 2,1 0,1 0,1 0,2l-7 37c-1,2 -1,4 -1,6 -1,1 -1,3 -2,5 0,2 -1,3 -1,5 -1,2 -1,3 -2,4 1,-2 3,-4 6,-6 2,-3 5,-5 8,-7 3,-1 6,-3 9,-4 4,-1 7,-2 10,-2 4,0 8,1 11,2 3,1 5,2 7,4 3,2 4,4 6,6 1,2 2,5 3,8 1,2 2,5 2,8 0,2 0,5 0,8zm-27 3c0,-2 0,-4 0,-6 0,-2 -1,-3 -2,-5 0,-2 -2,-3 -3,-4 -1,-1 -3,-1 -6,-1 -3,0 -6,1 -9,3 -3,1 -6,4 -9,7 -3,3 -5,7 -7,11 -2,5 -4,9 -5,14l-3 14c3,4 5,7 8,8 3,2 7,3 11,3 2,0 5,0 7,-2 3,-1 5,-3 7,-5 2,-2 3,-5 5,-8 1,-3 2,-6 3,-9 1,-4 2,-7 3,-11 0,-3 0,-6 0,-9zm135 -12c0,5 -1,9 -4,13 -2,4 -6,8 -10,11 -5,3 -11,5 -18,6 -8,2 -17,3 -27,3l-9 0c-1,1 -1,3 -1,4 0,2 0,3 0,5 0,5 1,10 4,13 3,2 8,4 14,4 5,0 9,-1 13,-1 3,-1 7,-2 9,-2 3,-1 5,-2 7,-3 2,0 3,-1 4,-1 1,0 2,1 2,1 0,1 0,1 0,2 0,2 0,3 0,4 0,2 0,4 -1,5 0,2 -1,3 -1,4 -1,2 -1,3 -2,3 -1,1 -3,2 -5,3 -2,1 -5,1 -8,2 -3,1 -7,1 -10,2 -4,0 -8,1 -12,1 -7,0 -13,-1 -18,-3 -5,-1 -9,-3 -12,-6 -4,-3 -6,-6 -8,-11 -2,-4 -2,-10 -2,-16 0,-4 0,-9 1,-15 1,-5 2,-10 4,-15 2,-6 5,-11 8,-15 3,-5 6,-9 11,-13 4,-3 9,-6 15,-8 6,-3 12,-4 19,-4 7,0 12,1 17,3 4,1 8,3 11,6 3,2 5,5 7,8 1,3 2,6 2,10zm-26 2c0,-3 -1,-5 -4,-7 -2,-2 -5,-3 -9,-3 -3,0 -7,1 -9,2 -3,1 -5,3 -8,5 -2,2 -3,5 -5,7 -1,3 -3,6 -4,10l9 0c6,0 10,-1 14,-1 4,-1 7,-2 9,-3 2,-2 4,-3 5,-5 1,-2 2,-3 2,-5zm134 -2c0,3 0,5 0,7 -1,3 -1,5 -2,8l-11 58c0,0 -1,1 -1,1 -1,1 -1,1 -2,2 -2,0 -3,0 -5,1 -1,0 -4,0 -6,0 -3,0 -5,0 -6,0 -2,-1 -3,-1 -4,-1 -1,-1 -2,-1 -2,-2 0,0 0,-1 0,-1l11 -56c0,-2 0,-4 1,-6 0,-1 0,-3 0,-4 0,-3 -1,-6 -2,-8 -1,-2 -4,-3 -7,-3 -3,0 -6,1 -9,3 -3,2 -6,4 -9,7 -2,3 -5,7 -7,11 -2,4 -4,9 -5,13l-8 43c0,0 0,1 -1,1 0,1 -1,1 -2,2 -1,0 -3,0 -5,1 -1,0 -3,0 -6,0 -3,0 -5,0 -6,0 -2,-1 -3,-1 -4,-1 -1,-1 -2,-1 -2,-2 0,0 0,-1 0,-1l18 -94c1,-1 1,-1 1,-2 1,0 2,-1 2,-1 1,0 3,-1 4,-1 2,0 3,0 6,0 2,0 3,0 5,0 1,0 2,1 3,1 1,0 1,1 2,1 0,1 0,1 0,2l-3 15c1,-2 3,-4 5,-7 3,-3 6,-5 9,-7 3,-2 7,-3 10,-5 4,-1 8,-2 12,-2 5,0 9,1 12,2 4,2 6,4 8,6 2,3 4,6 5,9 1,3 1,6 1,10zm110 0c0,5 -1,9 -3,13 -3,4 -6,8 -11,11 -5,3 -11,5 -18,6 -8,2 -16,3 -26,3l-10 0c0,1 -1,3 -1,4 0,2 0,3 0,5 0,5 2,10 4,13 3,2 8,4 15,4 4,0 8,-1 12,-1 4,-1 7,-2 10,-2 2,-1 5,-2 6,-3 2,0 4,-1 4,-1 1,0 2,1 2,1 1,1 1,1 1,2 0,2 0,3 -1,4 0,2 0,4 -1,5 0,2 0,3 -1,4 -1,2 -1,3 -2,3 -1,1 -2,2 -5,3 -2,1 -5,1 -8,2 -3,1 -6,1 -10,2 -4,0 -8,1 -12,1 -7,0 -13,-1 -18,-3 -5,-1 -9,-3 -12,-6 -4,-3 -6,-6 -8,-11 -1,-4 -2,-10 -2,-16 0,-4 0,-9 1,-15 1,-5 2,-10 4,-15 2,-6 5,-11 8,-15 3,-5 7,-9 11,-13 4,-3 9,-6 15,-8 6,-3 12,-4 20,-4 6,0 11,1 16,3 5,1 8,3 11,6 3,2 5,5 7,8 1,3 2,6 2,10zm-26 2c0,-3 -1,-5 -3,-7 -2,-2 -6,-3 -10,-3 -3,0 -6,1 -9,2 -3,1 -5,3 -7,5 -2,2 -4,5 -6,7 -1,3 -2,6 -3,10l8 0c6,0 11,-1 14,-1 4,-1 7,-2 9,-3 3,-2 4,-3 5,-5 1,-2 2,-3 2,-5zm137 -26c3,0 5,0 6,1 1,2 1,3 1,6l-18 90c0,0 -1,1 -1,1 -1,1 -2,1 -3,2 -1,0 -2,0 -4,1 -2,0 -4,0 -6,0 -3,0 -5,0 -7,0 -1,-1 -2,-1 -3,-1 -1,-1 -2,-1 -2,-2 -1,0 -1,-1 0,-1l15 -76 -35 0 -17 82c-1,6 -2,11 -4,15 -2,5 -5,8 -8,11 -3,3 -7,6 -11,7 -5,2 -10,2 -15,2 -4,0 -7,0 -9,-1 -3,0 -4,-1 -5,-1 0,-1 0,-1 -1,-2 0,0 0,-1 0,-2 0,0 0,-1 0,-2 1,-1 1,-2 1,-3 0,-1 0,-2 1,-4 0,-1 0,-2 1,-3 0,-1 1,-2 1,-3 1,0 1,-1 2,-1 0,0 1,0 1,0 0,1 1,1 1,1 1,0 1,0 2,0 1,0 2,0 3,0 2,0 4,0 5,-1 2,-1 3,-2 5,-3 1,-1 2,-3 3,-5 1,-3 1,-5 2,-8l16 -79 -12 0c-1,0 -2,0 -2,-1 0,0 -1,-2 -1,-3 0,-1 0,-2 0,-3 1,-1 1,-2 1,-4 0,-1 1,-2 1,-3 0,-2 1,-3 1,-4 1,-1 1,-2 2,-2 1,-1 2,-1 2,-1l12 0 2 -10c1,-6 3,-12 5,-16 2,-5 5,-8 8,-11 3,-3 7,-6 11,-7 4,-2 9,-3 14,-3 2,0 4,0 6,1 1,0 3,0 4,0 2,1 3,1 4,1 1,1 1,1 2,2 0,0 0,0 0,1 0,1 1,1 1,2 0,1 0,1 -1,2 0,1 0,2 0,3 0,2 0,3 -1,4 0,1 0,3 -1,4 0,1 -1,2 -1,2 -1,1 -1,1 -2,1 0,0 -1,0 -1,0 -1,0 -1,0 -2,-1 -1,0 -2,0 -2,0 -1,0 -2,0 -4,0 -2,0 -4,0 -5,0 -2,1 -3,2 -4,3 -1,2 -2,4 -3,6 -1,2 -2,4 -2,7l-2 9 53 0zm16 -28c-1,2 -1,5 -2,6 -1,2 -2,4 -3,5 -2,1 -3,2 -6,2 -2,1 -4,1 -7,1 -3,0 -5,0 -7,-1 -2,0 -3,-1 -4,-2 -1,-1 -2,-3 -2,-5 0,-1 0,-4 1,-6 0,-3 1,-5 2,-6 1,-2 2,-4 3,-5 1,-1 3,-2 5,-2 2,-1 5,-1 8,-1 3,0 5,0 7,1 1,0 3,1 4,2 1,1 1,3 1,5 0,1 0,3 0,6zm85 38c0,1 0,3 -1,5 0,2 -1,4 -1,6 -1,2 -2,3 -3,4 -1,1 -2,2 -3,2 -1,0 -2,0 -3,-1 -1,-1 -2,-2 -3,-3 -2,-1 -4,-2 -6,-3 -2,-1 -5,-1 -8,-1 -4,0 -7,1 -10,2 -3,2 -5,4 -7,6 -2,3 -4,6 -6,9 -1,3 -2,7 -3,10 -1,3 -2,6 -2,9 0,3 -1,6 -1,8 0,6 2,10 4,13 3,3 7,5 12,5 4,0 7,-1 10,-2 3,-1 5,-2 7,-3 2,-1 4,-3 5,-4 2,0 3,-1 4,-1 1,0 1,0 2,1 0,1 0,2 0,3 0,1 0,2 0,4 -1,2 -1,4 -1,6 -1,1 -1,3 -2,5 -1,1 -1,2 -2,3 -1,1 -3,2 -5,3 -2,2 -4,3 -7,4 -2,0 -5,1 -8,2 -3,0 -7,1 -10,1 -12,0 -21,-4 -27,-10 -6,-6 -9,-15 -9,-26 0,-5 1,-9 1,-14 1,-5 3,-11 4,-16 2,-5 5,-10 7,-15 3,-4 7,-9 11,-12 4,-4 9,-7 15,-9 5,-3 11,-4 19,-4 2,0 5,1 8,1 2,0 5,1 7,2 2,0 4,1 6,2 2,1 3,2 4,3 1,1 1,2 1,2 1,1 1,2 1,3zm56 -38c-1,2 -1,4 -2,6 -1,2 -2,3 -3,5 -2,1 -4,1 -6,2 -2,0 -4,1 -7,1 -3,0 -5,-1 -7,-1 -2,-1 -4,-1 -4,-2 -1,-2 -2,-3 -2,-5 0,-2 0,-4 1,-6 0,-3 1,-5 1,-7 1,-1 2,-3 4,-4 1,-1 3,-2 5,-2 2,-1 4,-1 7,-1 3,0 6,0 8,1 2,0 3,1 4,2 1,1 1,3 2,4 0,2 -1,4 -1,7zm-27 125c0,0 -1,1 -1,1 -1,1 -1,1 -3,2 -1,0 -2,0 -4,1 -2,0 -4,0 -6,0 -3,0 -5,0 -7,0 -1,-1 -2,-1 -3,-1 -1,-1 -2,-1 -2,-2 0,0 -1,-1 0,-1l18 -94c0,0 0,-1 1,-1 1,-1 1,-1 2,-2 2,0 3,0 5,-1 1,0 3,0 6,0 3,0 5,0 6,0 2,1 3,1 4,1 1,1 2,1 2,2 0,0 0,1 0,1l-18 94zm129 -62c0,5 0,10 -1,15 -1,5 -3,11 -5,16 -2,5 -4,9 -8,14 -3,4 -7,8 -11,12 -4,3 -9,6 -15,8 -6,2 -12,3 -20,3 -7,0 -13,-1 -18,-3 -5,-2 -9,-4 -13,-7 -3,-3 -6,-7 -7,-12 -2,-5 -3,-10 -3,-16 0,-5 1,-10 2,-15 1,-6 2,-11 4,-16 2,-5 5,-10 8,-14 3,-5 7,-8 11,-12 5,-3 10,-6 15,-8 6,-2 13,-3 20,-3 7,0 13,1 18,3 5,1 10,4 13,7 3,3 6,7 8,12 1,4 2,10 2,16zm-27 1c0,-2 0,-5 -1,-7 -1,-3 -2,-4 -3,-6 -1,-2 -3,-3 -5,-4 -2,0 -5,-1 -8,-1 -3,0 -7,1 -9,2 -3,1 -6,3 -8,6 -2,2 -4,5 -6,8 -1,3 -3,6 -4,9 -1,4 -1,7 -2,10 0,4 -1,7 -1,10 0,3 1,6 1,8 1,2 2,4 3,6 2,1 3,3 5,3 3,1 5,2 8,2 4,0 7,-1 10,-2 2,-2 5,-4 7,-6 2,-2 4,-5 6,-8 1,-3 3,-6 4,-10 1,-3 2,-6 2,-10 1,-3 1,-6 1,-10z"/>
   <path class="fil1" d="M1090 345c0,1 0,2 0,4 -1,2 -1,3 -1,5 -1,2 -2,3 -2,4 -1,2 -2,2 -2,2 -1,0 -2,0 -4,-1 -1,0 -2,-1 -4,-2 -2,-1 -4,-1 -6,-2 -3,-1 -5,-1 -8,-1 -3,0 -5,0 -7,1 -2,1 -3,1 -5,2 -1,2 -2,3 -2,4 -1,2 -1,3 -1,5 0,2 0,4 2,5 2,2 4,3 7,5 2,1 5,2 8,4 3,1 6,3 9,5 3,2 5,4 6,7 2,3 3,7 3,12 0,5 -1,10 -3,14 -2,5 -5,9 -9,12 -4,3 -8,6 -14,8 -5,2 -12,3 -19,3 -3,0 -6,-1 -9,-1 -3,-1 -6,-1 -8,-2 -3,-1 -5,-1 -7,-2 -1,-1 -2,-2 -3,-3 -1,0 -1,-1 -1,-2 -1,0 -1,-1 -1,-2 0,-1 0,-1 0,-2 0,-1 1,-2 1,-4 0,-1 0,-2 1,-3 0,-1 0,-2 1,-3 0,-1 1,-2 1,-3 1,0 1,-1 2,-1 1,0 2,1 3,2 1,0 3,1 5,2 1,1 4,2 6,3 3,1 7,1 11,1 3,0 5,0 7,-1 2,0 4,-1 5,-2 2,-2 3,-3 4,-4 0,-2 1,-4 1,-5 0,-3 -1,-5 -3,-6 -2,-2 -4,-3 -6,-5 -3,-1 -6,-2 -9,-4 -3,-1 -6,-3 -8,-5 -3,-2 -5,-4 -7,-7 -1,-3 -2,-7 -2,-12 0,-5 1,-9 3,-13 2,-5 4,-8 8,-12 4,-3 8,-5 13,-7 5,-2 11,-3 18,-3 3,0 5,0 8,1 3,0 5,1 8,1 2,1 4,2 5,2 2,1 3,2 4,3 1,0 1,2 1,3zm105 -17c0,6 0,11 -2,16 -2,6 -4,10 -7,15 -4,4 -8,7 -14,10 -5,3 -11,5 -19,6l-5 20c0,1 -1,2 -3,2 -2,1 -5,1 -9,1 -2,0 -4,0 -5,0 -2,0 -3,0 -4,0 -1,-1 -2,-1 -2,-2 0,0 0,-1 0,-1l4 -25c0,-2 1,-4 1,-6 1,-1 2,-2 2,-3 1,-1 2,-1 3,-2 2,0 3,0 4,0l1 0c5,0 10,-1 13,-3 4,-1 6,-4 8,-6 3,-3 4,-6 5,-9 1,-3 1,-6 1,-8 0,-3 0,-5 -1,-8 -1,-2 -2,-4 -3,-6 -2,-1 -4,-2 -6,-3 -3,-1 -6,-2 -9,-2 -4,0 -7,1 -10,1 -3,1 -5,2 -7,3 -2,1 -4,2 -5,3 -2,0 -3,1 -4,1 0,0 -1,-1 -1,-1 0,-1 -1,-2 -1,-4 0,-1 0,-2 1,-3 0,-2 0,-3 0,-5 1,-1 1,-3 2,-4 0,-2 1,-3 2,-4 1,-1 2,-2 4,-2 2,-1 5,-2 7,-3 3,-1 6,-1 9,-2 3,0 6,-1 9,-1 6,0 11,1 15,2 4,1 7,2 10,4 3,1 6,3 8,6 2,2 4,4 5,7 1,2 2,5 3,8 0,3 0,6 0,8zm-48 90c0,1 0,3 -1,4 0,2 0,4 -1,5 0,2 -1,4 -2,5 0,2 -1,3 -2,4 -1,1 -3,2 -5,3 -2,0 -5,1 -8,1 -2,0 -4,-1 -6,-1 -2,0 -3,-1 -4,-2 -1,0 -1,-1 -2,-2 0,-1 0,-3 0,-4 0,-1 0,-3 0,-4 0,-2 1,-4 1,-5 1,-2 1,-4 2,-5 0,-2 1,-3 2,-4 2,-2 3,-3 6,-3 2,-1 4,-1 7,-1 3,0 5,0 7,0 1,1 3,2 3,2 1,1 2,2 2,3 1,1 1,3 1,4z"/>
  </g>
 </g>
</svg>
