<?xml version="1.0" encoding="UTF-8"?>
<!DOCTYPE svg PUBLIC "-//W3C//DTD SVG 1.1//EN" "http://www.w3.org/Graphics/SVG/1.1/DTD/svg11.dtd">
<!-- Creator: CorelDRAW X7 -->
<svg xmlns="http://www.w3.org/2000/svg" xml:space="preserve" width="91.0275mm" height="17.7852mm" version="1.1" style="shape-rendering:geometricPrecision; text-rendering:geometricPrecision; image-rendering:optimizeQuality; fill-rule:evenodd; clip-rule:evenodd"
viewBox="0 0 5329 1041"
 xmlns:xlink="http://www.w3.org/1999/xlink">
 <defs>
  <style type="text/css">
   <![CDATA[
    .str0 {stroke:#FEFEFE;stroke-width:128.86;stroke-linecap:round;stroke-linejoin:round}
    .fil0 {fill:none}
    .fil3 {fill:#FEFEFE;fill-rule:nonzero}
    .fil2 {fill:#FEFEFE;fill-opacity:0.231373}
    .fil1 {fill:url(#id1)}
   ]]>
  </style>
   <clipPath id="id0">
    <path d="M393 64l4543 0c181,0 329,148 329,329l0 255c0,181 -148,329 -329,329l-4543 0c-181,0 -329,-148 -329,-329l0 -255c0,-181 148,-329 329,-329z"/>
   </clipPath>
  <linearGradient id="id1" gradientUnits="userSpaceOnUse" x1="2664.53" y1="119.171" x2="2664.53" y2="922.033">
   <stop offset="0" style="stop-opacity:1; stop-color:#ED3237"/>
   <stop offset="1" style="stop-opacity:1; stop-color:#AC3335"/>
  </linearGradient>
 </defs>
 <g id="Capa_x0020_1">
  <metadata id="CorelCorpID_0Corel-Layer"/>
  <g>
   <path class="fil0 str0" d="M393 64l4543 0c181,0 329,148 329,329l0 255c0,181 -148,329 -329,329l-4543 0c-181,0 -329,-148 -329,-329l0 -255c0,-181 148,-329 329,-329z"/>
  </g>
  <path id="1" class="fil1" d="M393 64l4543 0c181,0 329,148 329,329l0 255c0,181 -148,329 -329,329l-4543 0c-181,0 -329,-148 -329,-329l0 -255c0,-181 148,-329 329,-329z"/>
  <g style="clip-path:url(#id0)">
   <g>
    <path id="2" class="fil2" d="M434 -30l4461 0c110,0 199,89 199,198l0 155c0,109 -89,198 -199,198l-4461 0c-110,0 -199,-89 -199,-198l0 -155c0,-109 89,-198 199,-198z"/>
   </g>
  </g>
  <path class="fil3" d="M1462 364c-26,-18 -54,-28 -86,-28 -51,0 -94,25 -128,73 -35,49 -52,103 -52,162 0,39 9,69 28,92 19,23 45,35 79,35 52,0 93,-15 123,-43l-2 78c-32,28 -79,42 -140,42 -54,0 -97,-18 -131,-53 -33,-36 -49,-82 -49,-138 0,-92 25,-169 76,-231 51,-62 118,-93 200,-93 40,0 76,6 107,19l-25 85zm194 374c-14,22 -34,32 -61,32 -21,0 -37,-6 -49,-20 -12,-13 -18,-31 -18,-52 0,-28 6,-68 17,-120l68 -325 85 0 -70 339c-10,48 -15,83 -15,104 0,13 4,23 12,31 8,7 18,11 31,11zm170 -453c0,-16 6,-28 16,-38 11,-10 24,-15 40,-15 15,0 28,5 39,15 11,10 16,22 16,38 0,15 -5,27 -16,37 -11,11 -24,16 -39,16 -16,0 -29,-5 -40,-15 -10,-11 -16,-23 -16,-38zm25 482l-86 0 55 -297 -47 0 14 -68 133 0 -69 365zm409 -275c-24,-17 -48,-26 -72,-26 -39,0 -70,15 -94,44 -24,29 -36,66 -36,109 0,23 7,43 20,59 14,16 31,24 52,24 31,0 66,-13 107,-38l-10 88c-35,15 -70,22 -107,22 -46,0 -83,-13 -110,-39 -27,-25 -40,-60 -40,-105 0,-68 19,-124 59,-169 39,-44 90,-66 154,-66 36,0 68,7 94,22l-17 75zm288 275l-116 -150 -14 12 -25 138 -85 0 89 -514 84 0 -44 270 65 -56c44,-38 73,-67 87,-87l60 52c-10,12 -60,58 -151,138l151 197 -101 0zm614 0l-16 -101 -179 0 -59 101 -92 0 304 -506 31 0 103 506 -92 0zm-54 -354l-103 186 131 0 -28 -186zm470 497l-85 0 29 -161c-24,16 -53,25 -87,25 -44,0 -79,-13 -104,-37 -25,-25 -38,-59 -38,-103 0,-68 21,-125 62,-171 42,-45 95,-68 160,-68 14,0 30,3 48,9 17,6 30,14 39,22 5,-7 11,-13 18,-17 7,-3 13,-6 20,-6 7,-1 21,-1 42,-1 -13,31 -23,69 -32,115l-72 393zm-44 -226l36 -197c-13,-14 -31,-20 -54,-20 -40,0 -72,14 -96,43 -24,29 -37,65 -37,109 0,26 8,46 23,61 14,15 35,22 61,22 27,0 49,-6 67,-18zm477 83l-86 0 5 -27c-30,23 -68,34 -114,34 -31,0 -56,-9 -74,-27 -18,-18 -27,-43 -27,-75 0,-10 2,-22 4,-35l44 -235 86 0 -43 232c-2,9 -2,18 -2,24 0,30 16,45 49,45 27,0 50,-9 68,-27 19,-17 30,-39 35,-63l37 -211 85 0 -67 365zm208 0l-87 0 55 -297 -47 0 15 -68 132 0 -68 365zm43 -438l-73 0 69 -113 97 0 -93 113z"/>
 </g>
</svg>
