<!-- Generator: Adobe Illustrator 21.1.0, SVG Export Plug-In  -->
<svg version="1.1"
	 xmlns="http://www.w3.org/2000/svg" xmlns:xlink="http://www.w3.org/1999/xlink" xmlns:a="http://ns.adobe.com/AdobeSVGViewerExtensions/3.0/"
	 x="0px" y="0px" width="489.8px" height="294px" viewBox="0 0 489.8 294"
	 style="overflow:scroll;enable-background:new 0 0 489.8 294;" xml:space="preserve">
<style type="text/css">
	.st0{fill:#17216F;fill-opacity:0.8;}
	.st1{fill:#3680C0;fill-opacity:0.63;}
	.st2{fill:#C23334;}
	.st3{fill:#FFFFFE;}
</style>
<defs>
</defs>
<polygon class="st0" points="0,246 40.2,77.7 451,23.2 489.8,264.7 18.7,246.7 "/>
<polygon class="st1" points="453,294 18.7,246.7 448.2,262.8 "/>
<polygon class="st2" points="208.2,58.7 236.8,21.7 453.8,0 448.6,38.7 "/>
<g>
	<path class="st3" d="M237.1,35.1c0-0.1,0-0.1,0.1-0.2c0-0.1,0.1-0.1,0.2-0.2c0.1,0,0.2-0.1,0.4-0.1c0.2,0,0.3-0.1,0.6-0.1
		c0.2,0,0.4,0,0.6,0c0.1,0,0.3,0,0.3,0.1c0.1,0,0.1,0.1,0.2,0.1c0,0.1,0,0.1,0,0.2l-0.8,9.9c0,0.1,0,0.2-0.1,0.3
		c-0.1,0.1-0.1,0.1-0.3,0.2c-0.1,0.1-0.3,0.1-0.5,0.1c-0.2,0-0.4,0.1-0.7,0.1c-0.3,0-0.5,0-0.7,0c-0.2,0-0.3,0-0.4-0.1
		c-0.1,0-0.2-0.1-0.2-0.2c0-0.1,0-0.1,0-0.2L237.1,35.1z M237,32.7c0-0.1,0-0.3,0-0.4s0-0.3,0.1-0.5c0-0.2,0.1-0.3,0.1-0.5
		c0.1-0.2,0.1-0.3,0.2-0.4c0.1-0.1,0.3-0.3,0.5-0.3c0.2-0.1,0.5-0.1,0.8-0.2c0.3,0,0.5,0,0.6,0c0.2,0,0.3,0.1,0.4,0.1
		c0.1,0.1,0.2,0.2,0.2,0.3c0,0.1,0.1,0.2,0.1,0.4c0,0.1,0,0.3,0,0.4s0,0.3-0.1,0.5c0,0.2-0.1,0.4-0.1,0.5c-0.1,0.2-0.1,0.3-0.2,0.4
		c-0.1,0.2-0.3,0.3-0.5,0.4c-0.2,0.1-0.5,0.1-0.8,0.2c-0.3,0-0.5,0-0.7,0c-0.2,0-0.3-0.1-0.4-0.2c-0.1-0.1-0.2-0.2-0.2-0.3
		C237.1,32.9,237.1,32.8,237,32.7z"/>
	<path class="st3" d="M254.2,40.8c0.1,0.3,0.1,0.5,0.1,0.6c0,0.1,0,0.3-0.1,0.3c-0.1,0.1-0.2,0.1-0.5,0.2c-0.2,0-0.5,0.1-0.9,0.1
		c-0.3,0-0.5,0-0.7,0s-0.3,0-0.4,0c-0.1,0-0.2-0.1-0.2-0.1c0-0.1-0.1-0.1-0.1-0.2l-0.6-2.7l-5.2,0.5l-1.2,2.8c0,0.1-0.1,0.2-0.1,0.3
		c-0.1,0.1-0.1,0.1-0.3,0.2c-0.1,0-0.3,0.1-0.5,0.1c-0.2,0-0.5,0.1-0.8,0.1c-0.3,0-0.6,0-0.8,0c-0.2,0-0.3,0-0.4-0.1
		c-0.1-0.1-0.1-0.2-0.1-0.3c0-0.2,0.1-0.4,0.2-0.6l5.6-12.9c0.1-0.1,0.1-0.2,0.2-0.3c0.1-0.1,0.2-0.1,0.3-0.2c0.1,0,0.3-0.1,0.5-0.1
		c0.2,0,0.5-0.1,0.9-0.1c0.4,0,0.8-0.1,1-0.1c0.2,0,0.4,0,0.6,0s0.2,0.1,0.3,0.2c0.1,0.1,0.1,0.2,0.1,0.3L254.2,40.8z M249.1,31.1
		L249.1,31.1l-2.6,6.2l3.9-0.3L249.1,31.1z"/>
	<path class="st3" d="M265.9,33.9c0,0.5,0,1,0,1.5c0,0.5-0.1,1.1-0.3,1.6c-0.1,0.5-0.3,1.1-0.5,1.6c-0.2,0.5-0.5,1-0.9,1.4
		c-0.4,0.4-0.8,0.7-1.3,1c-0.5,0.3-1,0.4-1.7,0.5c-0.3,0-0.6,0-0.8,0c-0.3,0-0.5-0.1-0.7-0.2c-0.2-0.1-0.4-0.2-0.6-0.3
		c-0.2-0.1-0.3-0.3-0.5-0.4l-0.5,4.4c0,0.1,0,0.1-0.1,0.2c-0.1,0.1-0.1,0.1-0.2,0.2c-0.1,0-0.3,0.1-0.4,0.1c-0.2,0-0.4,0.1-0.7,0.1
		c-0.3,0-0.5,0-0.6,0c-0.2,0-0.3,0-0.4-0.1c-0.1,0-0.2-0.1-0.2-0.1c0-0.1,0-0.1,0-0.2l1.5-13.6c0-0.1,0.1-0.3,0.3-0.3
		c0.2-0.1,0.5-0.1,0.9-0.2c0.2,0,0.4,0,0.5,0c0.1,0,0.3,0,0.3,0c0.1,0,0.1,0.1,0.2,0.1c0,0,0,0.1,0,0.2l-0.2,1.6
		c0.1-0.2,0.2-0.5,0.4-0.8c0.2-0.3,0.5-0.5,0.8-0.8c0.3-0.2,0.6-0.4,1-0.6c0.4-0.2,0.8-0.3,1.2-0.3c0.6,0,1,0,1.4,0.2
		c0.4,0.2,0.7,0.4,1,0.7c0.3,0.3,0.5,0.7,0.6,1.1C265.8,32.9,265.9,33.4,265.9,33.9z M263.2,34.4c0-0.2-0.1-0.5-0.1-0.7
		c-0.1-0.2-0.1-0.4-0.2-0.5c-0.1-0.1-0.2-0.2-0.4-0.3c-0.1-0.1-0.3-0.1-0.5-0.1c-0.3,0-0.6,0.2-0.9,0.4c-0.3,0.2-0.6,0.5-0.8,0.9
		s-0.5,0.8-0.7,1.2c-0.2,0.4-0.3,0.9-0.3,1.4l-0.2,1.5c0.3,0.4,0.6,0.6,0.9,0.8c0.3,0.2,0.7,0.2,1.1,0.2c0.3,0,0.6-0.1,0.8-0.3
		c0.2-0.2,0.4-0.4,0.6-0.6c0.2-0.3,0.3-0.5,0.4-0.9c0.1-0.3,0.2-0.7,0.3-1c0.1-0.4,0.1-0.7,0.1-1.1C263.2,35,263.2,34.7,263.2,34.4z
		"/>
	<path class="st3" d="M274.6,29.9c0,0,0,0.1,0,0.3c0,0.1,0,0.3,0,0.5c0,0.2,0,0.4-0.1,0.5c0,0.2-0.1,0.4-0.1,0.5
		c0,0.2-0.1,0.3-0.1,0.4c-0.1,0.1-0.1,0.2-0.2,0.2c-0.1,0-0.1,0-0.2,0s-0.1,0-0.2-0.1c-0.1,0-0.2,0-0.3-0.1c-0.1,0-0.2,0-0.3,0
		c-0.2,0-0.5,0.1-0.8,0.3c-0.3,0.2-0.5,0.5-0.7,0.8c-0.2,0.3-0.4,0.7-0.6,1.1c-0.2,0.4-0.3,0.9-0.3,1.3l-0.5,4.4
		c0,0.1,0,0.1-0.1,0.2c0,0.1-0.1,0.1-0.2,0.2c-0.1,0-0.2,0.1-0.4,0.1c-0.2,0-0.4,0.1-0.7,0.1c-0.3,0-0.5,0-0.6,0c-0.2,0-0.3,0-0.4,0
		c-0.1,0-0.2-0.1-0.2-0.1c0-0.1,0-0.1,0-0.2l1.1-9.7c0-0.1,0-0.1,0.1-0.2c0-0.1,0.1-0.1,0.2-0.1c0.1,0,0.2-0.1,0.4-0.1
		c0.2,0,0.3-0.1,0.5-0.1c0.2,0,0.4,0,0.5,0c0.1,0,0.3,0,0.3,0c0.1,0,0.1,0.1,0.2,0.1c0,0,0,0.1,0,0.2l-0.2,1.5
		c0.1-0.3,0.3-0.6,0.5-0.9c0.2-0.3,0.4-0.5,0.7-0.7c0.2-0.2,0.5-0.4,0.7-0.5c0.3-0.1,0.5-0.2,0.8-0.2c0.1,0,0.2,0,0.3,0
		c0.1,0,0.2,0,0.3,0c0.1,0,0.2,0,0.3,0.1c0.1,0,0.1,0.1,0.2,0.1C274.6,29.8,274.6,29.9,274.6,29.9z"/>
	<path class="st3" d="M285.2,32.4c0,0.5,0,1,0,1.6c0,0.6-0.2,1.1-0.3,1.6c-0.2,0.5-0.4,1-0.7,1.5c-0.3,0.5-0.6,0.9-1.1,1.3
		c-0.4,0.4-0.9,0.7-1.5,1c-0.6,0.3-1.2,0.4-2,0.5c-0.7,0.1-1.3,0-1.9-0.1c-0.5-0.1-1-0.3-1.4-0.6c-0.4-0.3-0.7-0.7-0.9-1.1
		c-0.2-0.5-0.3-1-0.4-1.6c0-0.5,0-1,0-1.6c0-0.6,0.2-1.1,0.3-1.6c0.2-0.5,0.4-1,0.7-1.5c0.3-0.5,0.6-0.9,1.1-1.3
		c0.4-0.4,0.9-0.7,1.5-0.9c0.6-0.3,1.2-0.4,2-0.5c0.7-0.1,1.4,0,1.9,0.1c0.5,0.1,1,0.3,1.4,0.6c0.4,0.3,0.7,0.7,0.9,1.1
		C285,31.2,285.2,31.8,285.2,32.4z M282.4,32.8c0-0.3-0.1-0.6-0.2-0.8c-0.1-0.2-0.2-0.4-0.4-0.6c-0.2-0.1-0.3-0.3-0.6-0.3
		c-0.2-0.1-0.5-0.1-0.8-0.1c-0.4,0-0.7,0.1-0.9,0.3c-0.3,0.2-0.5,0.4-0.7,0.6c-0.2,0.3-0.4,0.5-0.5,0.9c-0.1,0.3-0.2,0.7-0.3,1
		c-0.1,0.4-0.1,0.7-0.1,1.1c0,0.4,0,0.7,0,1c0,0.3,0.1,0.6,0.2,0.8c0.1,0.2,0.2,0.4,0.4,0.6c0.2,0.1,0.3,0.3,0.6,0.3
		c0.2,0.1,0.5,0.1,0.8,0.1c0.4,0,0.7-0.1,0.9-0.3c0.3-0.2,0.5-0.4,0.7-0.6c0.2-0.3,0.4-0.6,0.5-0.9c0.1-0.3,0.2-0.7,0.3-1
		c0.1-0.4,0.1-0.7,0.1-1.1C282.5,33.5,282.5,33.1,282.4,32.8z"/>
	<path class="st3" d="M296.1,28.1c0,0.1,0,0.2,0,0.3c0,0.1,0,0.2-0.1,0.4c-0.2,0.8-0.4,1.6-0.7,2.4c-0.3,0.8-0.5,1.6-0.9,2.4
		c-0.3,0.8-0.7,1.6-1,2.3c-0.4,0.8-0.8,1.5-1.3,2.2c-0.1,0.1-0.1,0.2-0.2,0.3c-0.1,0.1-0.2,0.1-0.4,0.2c-0.1,0-0.3,0.1-0.5,0.1
		s-0.4,0-0.7,0.1c-0.4,0-0.7,0.1-0.9,0.1c-0.2,0-0.4,0-0.5,0c-0.1,0-0.2-0.1-0.3-0.2c0-0.1-0.1-0.2-0.1-0.3l-1.9-8.5
		c0-0.1,0-0.2-0.1-0.3c0-0.1,0-0.2,0-0.3c0-0.1,0-0.3,0-0.3c0-0.1,0.1-0.1,0.2-0.2c0.1-0.1,0.2-0.1,0.4-0.1c0.2,0,0.4-0.1,0.7-0.1
		c0.3,0,0.5,0,0.7,0c0.2,0,0.3,0,0.4,0c0.1,0,0.2,0.1,0.2,0.1c0,0.1,0.1,0.1,0.1,0.2l1.4,6.9l0,0.3l0-0.1c0.3-0.6,0.6-1.2,0.8-1.7
		c0.2-0.6,0.5-1.2,0.7-1.8c0.2-0.6,0.4-1.2,0.6-1.9c0.2-0.6,0.3-1.3,0.5-2c0-0.1,0-0.2,0.1-0.2c0.1-0.1,0.1-0.1,0.2-0.2
		c0.1,0,0.3-0.1,0.4-0.1c0.2,0,0.4-0.1,0.7-0.1c0.3,0,0.5,0,0.6,0s0.3,0,0.4,0c0.1,0,0.2,0.1,0.2,0.1S296.1,28,296.1,28.1z"/>
	<path class="st3" d="M306.3,29.4c0,0.5,0,1-0.2,1.4c-0.2,0.4-0.5,0.8-1,1.2c-0.5,0.3-1.1,0.6-1.8,0.8c-0.7,0.2-1.6,0.4-2.7,0.5
		l-1,0.1c0,0.2,0,0.3,0,0.5c0,0.2,0,0.3,0,0.4c0.1,0.6,0.2,1,0.6,1.3c0.3,0.3,0.8,0.4,1.5,0.3c0.5,0,0.9-0.1,1.3-0.2
		c0.4-0.1,0.7-0.2,1-0.3c0.3-0.1,0.5-0.2,0.7-0.3c0.2-0.1,0.3-0.1,0.4-0.1c0.1,0,0.1,0,0.2,0.1c0,0,0.1,0.1,0.1,0.2
		c0,0.1,0,0.3,0,0.4c0,0.2,0,0.3-0.1,0.5c0,0.2-0.1,0.3-0.1,0.4c0,0.1-0.1,0.3-0.2,0.3c-0.1,0.1-0.2,0.2-0.4,0.3
		c-0.2,0.1-0.5,0.2-0.8,0.3c-0.3,0.1-0.7,0.2-1.1,0.3c-0.4,0.1-0.8,0.1-1.2,0.2c-0.7,0.1-1.3,0-1.8-0.1c-0.5-0.1-1-0.3-1.3-0.5
		c-0.4-0.3-0.7-0.6-0.9-1.1c-0.2-0.4-0.3-1-0.4-1.6c0-0.5,0-1,0-1.5c0-0.6,0.1-1.1,0.3-1.7c0.2-0.5,0.4-1.1,0.6-1.6
		c0.3-0.5,0.6-1,1-1.4c0.4-0.4,0.9-0.7,1.5-1c0.6-0.3,1.2-0.4,2-0.5c0.6-0.1,1.2,0,1.7,0.1c0.5,0.1,0.9,0.3,1.2,0.5
		c0.3,0.2,0.6,0.5,0.7,0.8C306.2,28.7,306.3,29.1,306.3,29.4z M303.7,29.8c0-0.3-0.2-0.5-0.4-0.7c-0.2-0.2-0.6-0.2-1-0.2
		c-0.4,0-0.7,0.1-0.9,0.3s-0.5,0.4-0.7,0.6c-0.2,0.2-0.4,0.5-0.5,0.8c-0.1,0.3-0.2,0.6-0.3,1l0.9-0.1c0.6,0,1-0.1,1.4-0.2
		c0.4-0.1,0.7-0.2,0.9-0.4c0.2-0.1,0.4-0.3,0.5-0.5C303.6,30.2,303.7,30,303.7,29.8z"/>
	<path class="st3" d="M315.7,27.1c0,0.2,0,0.3,0,0.6c0,0.2-0.1,0.4-0.1,0.6c0,0.2-0.1,0.3-0.2,0.5c-0.1,0.1-0.2,0.2-0.3,0.2
		c-0.1,0-0.2,0-0.3-0.1c-0.1-0.1-0.2-0.2-0.4-0.3c-0.2-0.1-0.3-0.2-0.6-0.2c-0.2-0.1-0.5-0.1-0.9-0.1c-0.4,0-0.7,0.1-1,0.3
		c-0.3,0.2-0.5,0.4-0.7,0.7c-0.2,0.3-0.3,0.6-0.5,0.9c-0.1,0.3-0.2,0.7-0.3,1c-0.1,0.3-0.1,0.7-0.1,1c0,0.3,0,0.6,0,0.8
		c0.1,0.6,0.2,1,0.5,1.3c0.3,0.3,0.7,0.4,1.2,0.3c0.4,0,0.7-0.1,1-0.2c0.3-0.1,0.5-0.3,0.7-0.4c0.2-0.1,0.4-0.3,0.5-0.4
		c0.1-0.1,0.3-0.2,0.4-0.2c0.1,0,0.1,0,0.2,0.1c0,0.1,0.1,0.2,0.1,0.3c0,0.1,0,0.3,0,0.5c0,0.2,0,0.4-0.1,0.6c0,0.2-0.1,0.4-0.1,0.5
		c0,0.2-0.1,0.3-0.2,0.4c-0.1,0.1-0.2,0.2-0.4,0.4c-0.2,0.1-0.4,0.3-0.7,0.4c-0.3,0.1-0.6,0.2-0.9,0.3c-0.3,0.1-0.6,0.1-1,0.2
		c-1.2,0.1-2.2-0.1-2.8-0.7c-0.7-0.6-1-1.4-1.2-2.7c0-0.4,0-0.9,0-1.4c0-0.5,0.1-1.1,0.3-1.6c0.1-0.5,0.3-1.1,0.6-1.6
		c0.3-0.5,0.6-1,1-1.4c0.4-0.4,0.9-0.8,1.4-1c0.5-0.3,1.2-0.5,1.9-0.5c0.3,0,0.6,0,0.8,0s0.5,0.1,0.8,0.1c0.2,0.1,0.4,0.1,0.6,0.2
		c0.2,0.1,0.3,0.2,0.4,0.2c0.1,0.1,0.2,0.1,0.2,0.2C315.7,26.9,315.7,27,315.7,27.1z"/>
	<path class="st3" d="M325.7,35.2c0,0.1,0,0.1-0.1,0.2c-0.1,0.1-0.1,0.1-0.2,0.2c-0.1,0-0.2,0.1-0.4,0.1c-0.2,0-0.4,0.1-0.7,0.1
		c-0.3,0-0.5,0-0.6,0c-0.2,0-0.3,0-0.4,0c-0.1,0-0.2-0.1-0.2-0.1c0-0.1-0.1-0.1,0-0.2l0.6-5.8c0-0.2,0-0.3,0-0.5c0-0.2,0-0.4,0-0.5
		c0-0.2,0-0.3-0.1-0.4c0-0.1-0.1-0.2-0.2-0.3c-0.1-0.1-0.2-0.2-0.3-0.2c-0.1,0-0.3-0.1-0.4,0c-0.3,0-0.6,0.1-0.9,0.4
		s-0.6,0.5-0.8,0.8c-0.3,0.3-0.5,0.7-0.7,1.2c-0.2,0.4-0.3,0.9-0.3,1.4l-0.5,4.4c0,0.1,0,0.1-0.1,0.2c0,0.1-0.1,0.1-0.2,0.2
		c-0.1,0-0.3,0.1-0.4,0.1c-0.2,0-0.4,0.1-0.7,0.1c-0.3,0-0.5,0-0.6,0c-0.2,0-0.3,0-0.4,0c-0.1,0-0.2-0.1-0.2-0.1c0-0.1,0-0.1,0-0.2
		l1.6-14.3c0-0.1,0-0.1,0.1-0.2c0-0.1,0.1-0.1,0.2-0.2c0.1,0,0.3-0.1,0.4-0.1c0.2,0,0.4-0.1,0.7-0.1c0.3,0,0.5,0,0.6,0
		c0.2,0,0.3,0,0.4,0.1c0.1,0,0.2,0.1,0.2,0.1c0,0.1,0,0.1,0,0.2l-0.4,3.9c0,0.2,0,0.3-0.1,0.5c0,0.2-0.1,0.4-0.1,0.5
		c0,0.2-0.1,0.4-0.1,0.5c0,0.2-0.1,0.3-0.1,0.4c0.1-0.2,0.3-0.5,0.5-0.7c0.2-0.2,0.5-0.5,0.8-0.7c0.3-0.2,0.6-0.4,0.9-0.5
		c0.3-0.1,0.7-0.2,1.1-0.3c0.5,0,0.9,0,1.2,0.1c0.3,0.1,0.6,0.3,0.9,0.5c0.2,0.2,0.4,0.5,0.5,0.8c0.1,0.3,0.2,0.7,0.2,1.1
		c0,0.3,0,0.5,0,0.8c0,0.3,0,0.5-0.1,0.8L325.7,35.2z"/>
	<path class="st3" d="M337.2,34.2c0,0.2-0.1,0.3-0.3,0.4c-0.2,0.1-0.5,0.1-0.9,0.2c-0.2,0-0.4,0-0.5,0c-0.1,0-0.3,0-0.3,0
		c-0.1,0-0.1-0.1-0.2-0.1c0-0.1,0-0.1,0-0.2l0.2-1.6c-0.1,0.2-0.2,0.5-0.4,0.8c-0.2,0.3-0.5,0.5-0.8,0.8c-0.3,0.2-0.6,0.4-1,0.6
		s-0.8,0.3-1.2,0.3c-0.6,0.1-1.1,0-1.4-0.2c-0.4-0.2-0.7-0.4-1-0.7c-0.3-0.3-0.5-0.7-0.6-1.1c-0.1-0.4-0.2-0.9-0.3-1.4
		c0-0.4,0-0.9,0-1.5c0-0.5,0.1-1.1,0.3-1.6c0.1-0.5,0.3-1.1,0.5-1.6c0.2-0.5,0.5-1,0.9-1.4c0.4-0.4,0.8-0.8,1.3-1
		c0.5-0.3,1-0.4,1.7-0.5c0.6-0.1,1.1,0,1.6,0.2c0.5,0.2,0.9,0.5,1.3,1l0.1-0.9c0-0.1,0.1-0.3,0.3-0.3c0.2-0.1,0.5-0.1,0.9-0.2
		c0.2,0,0.4,0,0.5,0c0.1,0,0.3,0,0.3,0c0.1,0,0.1,0.1,0.2,0.1c0,0,0,0.1,0,0.2L337.2,34.2z M335.3,27.6c-0.3-0.4-0.6-0.6-0.9-0.8
		c-0.3-0.2-0.7-0.2-1.1-0.2c-0.3,0-0.6,0.1-0.8,0.3c-0.2,0.2-0.4,0.4-0.6,0.6c-0.2,0.3-0.3,0.5-0.4,0.9c-0.1,0.3-0.2,0.7-0.3,1
		c-0.1,0.3-0.1,0.7-0.1,1c0,0.3,0,0.7,0,1c0,0.2,0.1,0.4,0.1,0.6c0.1,0.2,0.1,0.4,0.2,0.5c0.1,0.1,0.2,0.2,0.4,0.3
		c0.2,0.1,0.3,0.1,0.6,0.1c0.3,0,0.6-0.2,0.9-0.4c0.3-0.2,0.6-0.5,0.9-0.9c0.3-0.3,0.5-0.8,0.7-1.2c0.2-0.4,0.3-0.9,0.4-1.4
		L335.3,27.6z"/>
	<path class="st3" d="M351.5,23.4c0,0.1,0,0.2,0,0.3c0,0.1,0,0.2,0,0.4c0,0.1,0,0.3-0.1,0.4c0,0.1-0.1,0.3-0.1,0.4
		c0,0.1-0.1,0.2-0.2,0.3c-0.1,0.1-0.1,0.1-0.2,0.1l-2.1,0.2l-0.5,4.6c0,0.1,0,0.2,0,0.4c0,0.1,0,0.3,0,0.4c0,0.3,0.1,0.5,0.3,0.6
		c0.1,0.1,0.4,0.2,0.7,0.1c0.2,0,0.3,0,0.4-0.1c0.1,0,0.2-0.1,0.3-0.1c0.1,0,0.2-0.1,0.2-0.1c0.1,0,0.1,0,0.2-0.1
		c0.1,0,0.1,0,0.2,0.1c0,0,0.1,0.1,0.1,0.3c0,0.1,0,0.3,0,0.5c0,0.2,0,0.3-0.1,0.5c0,0.2-0.1,0.3-0.1,0.5c0,0.1-0.1,0.2-0.2,0.3
		c-0.1,0.1-0.1,0.1-0.3,0.2c-0.1,0.1-0.3,0.1-0.4,0.2c-0.2,0.1-0.4,0.1-0.6,0.2c-0.2,0-0.4,0.1-0.6,0.1c-0.4,0-0.8,0-1.1,0
		c-0.3-0.1-0.6-0.2-0.9-0.4c-0.2-0.2-0.4-0.4-0.6-0.7c-0.1-0.3-0.2-0.6-0.3-1.1c0-0.1,0-0.2,0-0.3c0-0.1,0-0.2,0-0.3
		c0-0.1,0-0.2,0-0.4c0-0.1,0-0.2,0-0.3l0.5-4.7l-1.2,0.1c-0.1,0-0.2,0-0.2-0.1c0-0.1-0.1-0.2-0.1-0.3c0-0.1,0-0.3,0-0.5
		c0-0.2,0-0.4,0.1-0.6c0-0.2,0.1-0.4,0.2-0.5c0.1-0.1,0.2-0.2,0.3-0.2l1.1-0.1l0.2-2.2c0-0.1,0-0.1,0.1-0.2c0-0.1,0.1-0.1,0.2-0.2
		c0.1,0,0.2-0.1,0.4-0.1c0.2,0,0.4-0.1,0.7-0.1c0.3,0,0.5,0,0.6,0c0.2,0,0.3,0,0.4,0c0.1,0,0.2,0.1,0.2,0.1c0,0.1,0.1,0.1,0,0.2
		l-0.2,2.2l2.1-0.2c0.1,0,0.2,0,0.3,0.1C351.5,23.1,351.5,23.2,351.5,23.4z"/>
	<path class="st3" d="M361.3,32c0,0.1,0,0.1-0.1,0.2c0,0.1-0.1,0.1-0.2,0.1c-0.1,0-0.2,0.1-0.4,0.1c-0.1,0-0.3,0.1-0.6,0.1
		c-0.2,0-0.4,0-0.5,0c-0.1,0-0.3,0-0.3,0c-0.1,0-0.1-0.1-0.2-0.1c0-0.1,0-0.1,0-0.2l0.2-1.6c-0.1,0.3-0.3,0.5-0.5,0.8
		c-0.2,0.3-0.5,0.5-0.8,0.8c-0.3,0.2-0.6,0.4-1,0.6s-0.7,0.3-1.1,0.3c-0.5,0-0.9,0-1.3-0.1c-0.4-0.1-0.7-0.3-0.9-0.5
		c-0.2-0.2-0.4-0.5-0.5-0.8c-0.1-0.3-0.2-0.7-0.2-1.1c0-0.2,0-0.5,0-0.7c0-0.3,0-0.5,0.1-0.8l0.7-6c0-0.1,0-0.1,0.1-0.2
		c0-0.1,0.1-0.1,0.2-0.2c0.1,0,0.3-0.1,0.4-0.1c0.2,0,0.4-0.1,0.7-0.1c0.3,0,0.5,0,0.6,0c0.2,0,0.3,0,0.4,0c0.1,0,0.2,0.1,0.2,0.1
		c0,0,0.1,0.1,0,0.2l-0.6,5.8c0,0.2,0,0.3,0,0.5c0,0.2,0,0.3,0,0.5c0,0.2,0,0.3,0.1,0.5c0,0.1,0.1,0.3,0.2,0.3
		c0.1,0.1,0.2,0.2,0.3,0.2c0.1,0,0.3,0.1,0.4,0c0.3,0,0.6-0.1,0.9-0.4c0.3-0.2,0.6-0.5,0.8-0.9c0.3-0.4,0.5-0.8,0.7-1.2
		c0.2-0.5,0.3-1,0.4-1.5l0.4-4.2c0-0.1,0-0.1,0.1-0.2c0.1-0.1,0.1-0.1,0.2-0.2c0.1,0,0.3-0.1,0.4-0.1c0.2,0,0.4-0.1,0.7-0.1
		c0.3,0,0.5,0,0.6,0c0.2,0,0.3,0,0.4,0c0.1,0,0.2,0.1,0.2,0.1c0,0,0,0.1,0,0.2L361.3,32z"/>
	<path class="st3" d="M371.1,21.9c0,0.1,0,0.2,0,0.4c0,0.2,0,0.3-0.1,0.5c0,0.2-0.1,0.3-0.1,0.5c-0.1,0.1-0.1,0.2-0.2,0.2
		c-0.1,0-0.2,0-0.3-0.1c-0.1-0.1-0.3-0.1-0.5-0.2c-0.2-0.1-0.4-0.1-0.6-0.2c-0.2,0-0.5,0-0.8,0c-0.3,0-0.5,0.1-0.7,0.2
		c-0.2,0.1-0.3,0.2-0.5,0.3c-0.1,0.1-0.2,0.3-0.3,0.4c-0.1,0.2-0.1,0.3-0.1,0.5c0,0.2,0.1,0.4,0.3,0.5c0.2,0.1,0.4,0.3,0.7,0.4
		c0.3,0.1,0.6,0.2,0.9,0.3c0.3,0.1,0.6,0.3,0.9,0.5c0.3,0.2,0.5,0.4,0.7,0.7c0.2,0.3,0.3,0.7,0.4,1.1c0,0.5,0,1.1-0.2,1.5
		c-0.2,0.5-0.4,0.9-0.8,1.3c-0.4,0.4-0.8,0.7-1.4,0.9c-0.6,0.2-1.2,0.4-1.9,0.5c-0.3,0-0.7,0-1,0c-0.3,0-0.6-0.1-0.9-0.1
		c-0.3,0-0.5-0.1-0.6-0.2c-0.2-0.1-0.3-0.2-0.4-0.2c-0.1-0.1-0.1-0.1-0.1-0.2c0-0.1-0.1-0.1-0.1-0.2c0-0.1,0-0.1,0-0.2
		c0-0.1,0-0.2,0-0.3c0-0.1,0-0.2,0.1-0.4c0-0.1,0-0.2,0.1-0.3c0-0.1,0.1-0.2,0.1-0.3c0-0.1,0.1-0.1,0.2-0.1c0.1,0,0.2,0,0.3,0.1
		c0.1,0.1,0.3,0.2,0.5,0.2c0.2,0.1,0.4,0.2,0.7,0.2c0.3,0.1,0.6,0.1,1.1,0c0.3,0,0.5-0.1,0.8-0.2c0.2-0.1,0.4-0.2,0.5-0.3
		s0.2-0.3,0.3-0.4c0.1-0.2,0.1-0.3,0.1-0.5c0-0.2-0.1-0.4-0.3-0.6c-0.2-0.1-0.4-0.3-0.7-0.4c-0.3-0.1-0.6-0.2-0.9-0.3
		c-0.3-0.1-0.6-0.3-0.9-0.4c-0.3-0.2-0.5-0.4-0.7-0.7c-0.2-0.3-0.3-0.7-0.4-1.1c0-0.5,0-1,0.2-1.4c0.2-0.5,0.4-0.9,0.7-1.2
		c0.3-0.4,0.8-0.7,1.3-0.9c0.5-0.2,1.1-0.4,1.8-0.4c0.3,0,0.6,0,0.9,0c0.3,0,0.5,0,0.8,0.1c0.2,0,0.4,0.1,0.6,0.2
		c0.2,0.1,0.3,0.1,0.4,0.2C371,21.7,371.1,21.8,371.1,21.9z"/>
	<path class="st3" d="M387.6,23.1c0,0.5,0,1,0,1.5c0,0.5-0.1,1.1-0.3,1.6c-0.1,0.5-0.3,1.1-0.5,1.6c-0.2,0.5-0.5,1-0.9,1.4
		c-0.4,0.4-0.8,0.7-1.3,1c-0.5,0.3-1,0.4-1.7,0.5c-0.3,0-0.6,0-0.8,0c-0.3,0-0.5-0.1-0.7-0.2c-0.2-0.1-0.4-0.2-0.6-0.3
		c-0.2-0.1-0.3-0.3-0.5-0.4l-0.5,4.4c0,0.1,0,0.1-0.1,0.2c0,0.1-0.1,0.1-0.2,0.2c-0.1,0.1-0.2,0.1-0.4,0.1s-0.4,0.1-0.7,0.1
		c-0.3,0-0.5,0-0.6,0c-0.2,0-0.3,0-0.4-0.1c-0.1,0-0.2-0.1-0.2-0.1c0-0.1,0-0.1,0-0.2l1.5-13.6c0-0.1,0.1-0.3,0.3-0.3
		c0.2-0.1,0.5-0.1,0.9-0.2c0.2,0,0.4,0,0.5,0c0.1,0,0.3,0,0.3,0c0.1,0,0.1,0.1,0.2,0.1c0,0,0,0.1,0,0.2l-0.2,1.6
		c0.1-0.2,0.2-0.5,0.4-0.8c0.2-0.3,0.5-0.5,0.8-0.8c0.3-0.2,0.6-0.4,1-0.6c0.4-0.2,0.8-0.3,1.2-0.3c0.5,0,1,0,1.4,0.2
		c0.4,0.2,0.7,0.4,1,0.7c0.3,0.3,0.5,0.7,0.6,1.1C387.4,22.1,387.5,22.6,387.6,23.1z M384.8,23.6c0-0.2-0.1-0.5-0.1-0.7
		c-0.1-0.2-0.1-0.4-0.2-0.5c-0.1-0.1-0.2-0.2-0.4-0.3c-0.1-0.1-0.3-0.1-0.5-0.1c-0.3,0-0.6,0.2-0.9,0.4c-0.3,0.2-0.6,0.5-0.8,0.9
		c-0.3,0.3-0.5,0.7-0.7,1.2c-0.2,0.5-0.3,0.9-0.3,1.4l-0.2,1.5c0.3,0.4,0.6,0.6,0.9,0.8c0.3,0.2,0.7,0.2,1.1,0.2
		c0.3,0,0.6-0.1,0.8-0.3c0.2-0.2,0.4-0.4,0.6-0.6c0.2-0.3,0.3-0.5,0.4-0.9c0.1-0.3,0.2-0.7,0.3-1c0.1-0.4,0.1-0.7,0.1-1.1
		C384.8,24.2,384.8,23.9,384.8,23.6z"/>
	<path class="st3" d="M398,28.8c0,0.1,0,0.1-0.1,0.2c0,0.1-0.1,0.1-0.2,0.1c-0.1,0-0.2,0.1-0.4,0.1c-0.1,0-0.3,0.1-0.6,0.1
		c-0.2,0-0.4,0-0.5,0c-0.1,0-0.3,0-0.3,0c-0.1,0-0.1-0.1-0.2-0.1c0-0.1,0-0.1,0-0.2l0.2-1.6c-0.1,0.3-0.3,0.5-0.5,0.8
		c-0.2,0.3-0.5,0.5-0.8,0.8c-0.3,0.2-0.6,0.4-1,0.6c-0.4,0.2-0.7,0.3-1.1,0.3c-0.5,0-0.9,0-1.3-0.1c-0.4-0.1-0.7-0.3-0.9-0.5
		c-0.2-0.2-0.4-0.5-0.5-0.8c-0.1-0.3-0.2-0.7-0.2-1.1c0-0.2,0-0.5,0-0.7c0-0.3,0-0.5,0.1-0.8l0.7-6c0-0.1,0-0.1,0.1-0.2
		c0-0.1,0.1-0.1,0.2-0.2c0.1,0,0.2-0.1,0.4-0.1c0.2,0,0.4-0.1,0.7-0.1c0.3,0,0.5,0,0.6,0c0.2,0,0.3,0,0.4,0s0.2,0.1,0.2,0.1
		c0,0,0.1,0.1,0,0.2l-0.6,5.8c0,0.2,0,0.3,0,0.5c0,0.2,0,0.3,0,0.5c0,0.2,0,0.3,0.1,0.5c0,0.1,0.1,0.3,0.2,0.3
		c0.1,0.1,0.2,0.2,0.3,0.2c0.1,0,0.3,0.1,0.4,0c0.3,0,0.6-0.1,0.9-0.4c0.3-0.2,0.6-0.5,0.8-0.9c0.3-0.4,0.5-0.8,0.7-1.2
		c0.2-0.5,0.3-1,0.4-1.5l0.4-4.2c0-0.1,0-0.1,0.1-0.2c0.1-0.1,0.1-0.1,0.2-0.2c0.1,0,0.2-0.1,0.4-0.1c0.2,0,0.4-0.1,0.7-0.1
		c0.3,0,0.5,0,0.6,0c0.2,0,0.3,0,0.4,0c0.1,0,0.2,0.1,0.2,0.1c0,0,0,0.1,0,0.2L398,28.8z"/>
	<path class="st3" d="M410.3,20.2c0,0.2,0,0.5,0,0.8c0,0.3,0,0.5-0.1,0.8l-0.7,6c0,0.1,0,0.1-0.1,0.2c-0.1,0.1-0.1,0.1-0.2,0.2
		c-0.1,0-0.2,0.1-0.4,0.1c-0.2,0-0.4,0.1-0.7,0.1c-0.3,0-0.5,0-0.7,0c-0.2,0-0.3,0-0.4,0c-0.1,0-0.2-0.1-0.2-0.1
		c0-0.1-0.1-0.1,0-0.2l0.6-5.8c0-0.2,0-0.4,0-0.5c0-0.2,0-0.3,0-0.5c0-0.3-0.1-0.6-0.3-0.8c-0.2-0.2-0.4-0.3-0.7-0.2
		c-0.3,0-0.6,0.1-0.9,0.4c-0.3,0.2-0.6,0.5-0.8,0.8c-0.3,0.3-0.5,0.7-0.7,1.2c-0.2,0.4-0.3,0.9-0.4,1.4l-0.5,4.4
		c0,0.1,0,0.1-0.1,0.2c0,0.1-0.1,0.1-0.2,0.2c-0.1,0-0.2,0.1-0.4,0.1c-0.2,0-0.4,0.1-0.7,0.1c-0.3,0-0.5,0-0.6,0c-0.2,0-0.3,0-0.4,0
		c-0.1,0-0.2-0.1-0.2-0.1c0-0.1,0-0.1,0-0.2l1.1-9.7c0-0.1,0-0.1,0.1-0.2c0-0.1,0.1-0.1,0.2-0.2c0.1,0,0.2-0.1,0.4-0.1
		c0.2,0,0.3-0.1,0.5-0.1c0.2,0,0.4,0,0.5,0c0.1,0,0.3,0,0.3,0c0.1,0,0.1,0.1,0.2,0.1c0,0,0,0.1,0,0.2l-0.2,1.6
		c0.1-0.3,0.3-0.5,0.5-0.8c0.2-0.3,0.5-0.5,0.8-0.8s0.6-0.4,1-0.6c0.4-0.2,0.8-0.3,1.2-0.3c0.5,0,0.9,0,1.3,0.1
		c0.4,0.1,0.6,0.3,0.9,0.5c0.2,0.2,0.4,0.5,0.5,0.8C410.2,19.5,410.3,19.8,410.3,20.2z"/>
	<path class="st3" d="M418.7,17.4c0,0.1,0,0.2,0,0.3c0,0.1,0,0.2,0,0.4c0,0.1,0,0.3-0.1,0.4c0,0.1-0.1,0.3-0.1,0.4
		c0,0.1-0.1,0.2-0.2,0.3c-0.1,0.1-0.1,0.1-0.2,0.1l-2.1,0.2l-0.5,4.6c0,0.1,0,0.2,0,0.4c0,0.1,0,0.3,0,0.4c0,0.3,0.1,0.5,0.3,0.6
		c0.1,0.1,0.4,0.2,0.7,0.1c0.2,0,0.3,0,0.4-0.1c0.1,0,0.2-0.1,0.3-0.1c0.1,0,0.2-0.1,0.2-0.1c0.1,0,0.1,0,0.2-0.1
		c0.1,0,0.1,0,0.2,0.1c0,0,0.1,0.1,0.1,0.3c0,0.1,0,0.3,0,0.5c0,0.2,0,0.3-0.1,0.5c0,0.2-0.1,0.3-0.1,0.5c0,0.1-0.1,0.2-0.2,0.3
		c-0.1,0.1-0.2,0.1-0.3,0.2c-0.1,0.1-0.3,0.1-0.4,0.2c-0.2,0.1-0.4,0.1-0.6,0.1c-0.2,0-0.4,0.1-0.6,0.1c-0.4,0-0.8,0-1.1,0
		c-0.3-0.1-0.6-0.2-0.9-0.4c-0.2-0.2-0.4-0.4-0.6-0.7c-0.1-0.3-0.2-0.7-0.3-1.1c0-0.1,0-0.2,0-0.3c0-0.1,0-0.2,0-0.3
		c0-0.1,0-0.2,0-0.4c0-0.1,0-0.2,0-0.3l0.5-4.7l-1.2,0.1c-0.1,0-0.2,0-0.2-0.1c0-0.1-0.1-0.2-0.1-0.3c0-0.1,0-0.3,0-0.5
		c0-0.2,0-0.4,0.1-0.6c0-0.2,0.1-0.4,0.2-0.5c0.1-0.1,0.2-0.2,0.3-0.2l1.1-0.1l0.2-2.2c0-0.1,0-0.1,0.1-0.2c0-0.1,0.1-0.1,0.2-0.2
		c0.1-0.1,0.2-0.1,0.4-0.1c0.2,0,0.4-0.1,0.7-0.1c0.3,0,0.5,0,0.6,0c0.2,0,0.3,0,0.4,0c0.1,0,0.2,0.1,0.2,0.1c0,0.1,0.1,0.1,0,0.2
		l-0.2,2.2l2.1-0.2c0.1,0,0.2,0,0.3,0.1C418.7,17.1,418.7,17.2,418.7,17.4z"/>
	<path class="st3" d="M429.4,19.6c0,0.5,0,1,0,1.6c0,0.6-0.2,1.1-0.3,1.6c-0.2,0.5-0.4,1-0.7,1.5c-0.3,0.5-0.6,0.9-1.1,1.3
		c-0.4,0.4-0.9,0.7-1.5,1c-0.6,0.3-1.2,0.4-2,0.5c-0.7,0.1-1.4,0-1.9-0.1s-1-0.3-1.4-0.6c-0.4-0.3-0.7-0.7-0.9-1.1
		c-0.2-0.5-0.3-1-0.4-1.6c0-0.5,0-1,0-1.6c0-0.6,0.2-1.1,0.3-1.6s0.4-1,0.7-1.5c0.3-0.5,0.6-0.9,1.1-1.3c0.4-0.4,0.9-0.7,1.5-1
		c0.6-0.3,1.2-0.4,2-0.5c0.7-0.1,1.4,0,1.9,0.1c0.5,0.1,1,0.3,1.4,0.6c0.4,0.3,0.7,0.7,0.9,1.1C429.2,18.4,429.4,19,429.4,19.6z
		 M426.6,20c0-0.3-0.1-0.6-0.2-0.8c-0.1-0.2-0.2-0.4-0.4-0.6c-0.2-0.1-0.3-0.3-0.6-0.3c-0.2-0.1-0.5-0.1-0.8-0.1
		c-0.4,0-0.7,0.1-0.9,0.3c-0.3,0.2-0.5,0.4-0.7,0.6c-0.2,0.3-0.4,0.5-0.5,0.9c-0.1,0.3-0.2,0.7-0.3,1c-0.1,0.4-0.1,0.7-0.1,1.1
		c0,0.4,0,0.7,0,1c0,0.3,0.1,0.6,0.2,0.8c0.1,0.2,0.2,0.4,0.4,0.6c0.2,0.1,0.3,0.3,0.6,0.3c0.2,0.1,0.5,0.1,0.8,0.1
		c0.4,0,0.7-0.1,0.9-0.3c0.3-0.2,0.5-0.4,0.7-0.6c0.2-0.3,0.4-0.6,0.5-0.9c0.1-0.3,0.2-0.7,0.3-1c0.1-0.4,0.1-0.7,0.1-1.1
		C426.7,20.7,426.7,20.3,426.6,20z"/>
	<path class="st3" d="M438,16c0,0.1,0,0.2,0,0.4c0,0.2,0,0.3-0.1,0.5c0,0.2-0.1,0.3-0.1,0.5c-0.1,0.1-0.1,0.2-0.2,0.2
		c-0.1,0-0.2,0-0.3-0.1c-0.1-0.1-0.3-0.1-0.5-0.2c-0.2-0.1-0.4-0.1-0.6-0.2c-0.2,0-0.5,0-0.8,0c-0.2,0-0.5,0.1-0.7,0.2
		c-0.2,0.1-0.3,0.2-0.5,0.3c-0.1,0.1-0.2,0.3-0.3,0.4c-0.1,0.2-0.1,0.3-0.1,0.5c0,0.2,0.1,0.4,0.3,0.5c0.2,0.1,0.4,0.3,0.7,0.4
		s0.6,0.2,0.9,0.3c0.3,0.1,0.6,0.3,0.9,0.5c0.3,0.2,0.5,0.4,0.7,0.7c0.2,0.3,0.3,0.7,0.4,1.1c0,0.5,0,1.1-0.2,1.5
		c-0.2,0.5-0.4,0.9-0.8,1.3c-0.4,0.4-0.8,0.7-1.4,0.9c-0.6,0.2-1.2,0.4-1.9,0.5c-0.3,0-0.7,0-1,0c-0.3,0-0.6-0.1-0.8-0.1
		c-0.3,0-0.5-0.1-0.6-0.2c-0.2-0.1-0.3-0.1-0.4-0.2c-0.1-0.1-0.1-0.1-0.1-0.2c0-0.1-0.1-0.1-0.1-0.2c0-0.1,0-0.1,0-0.2
		c0-0.1,0-0.2,0-0.3c0-0.1,0-0.2,0.1-0.4c0-0.1,0-0.2,0.1-0.3c0-0.1,0.1-0.2,0.1-0.3c0-0.1,0.1-0.1,0.2-0.1c0.1,0,0.2,0,0.3,0.1
		c0.1,0.1,0.3,0.2,0.5,0.2c0.2,0.1,0.4,0.2,0.7,0.2s0.6,0.1,1.1,0c0.3,0,0.5-0.1,0.8-0.2c0.2-0.1,0.4-0.2,0.5-0.3
		c0.1-0.1,0.2-0.3,0.3-0.4c0.1-0.2,0.1-0.3,0.1-0.5c0-0.2-0.1-0.4-0.3-0.6c-0.2-0.1-0.4-0.3-0.7-0.4c-0.3-0.1-0.6-0.2-0.9-0.3
		c-0.3-0.1-0.6-0.3-0.9-0.4c-0.3-0.2-0.5-0.4-0.7-0.7c-0.2-0.3-0.3-0.7-0.4-1.1c0-0.5,0-1,0.2-1.4c0.2-0.5,0.4-0.9,0.7-1.2
		c0.3-0.4,0.8-0.7,1.3-0.9c0.5-0.2,1.1-0.4,1.8-0.4c0.3,0,0.6,0,0.9,0c0.3,0,0.5,0,0.8,0.1c0.2,0,0.4,0.1,0.6,0.2
		c0.2,0.1,0.3,0.1,0.4,0.2C438,15.7,438,15.8,438,16z"/>
	<path class="st3" d="M443.9,23c0,0.1,0,0.3,0,0.5s0,0.3-0.1,0.5c0,0.2-0.1,0.3-0.1,0.5c-0.1,0.2-0.1,0.3-0.2,0.4
		c-0.1,0.1-0.3,0.3-0.5,0.4c-0.2,0.1-0.5,0.1-0.8,0.2c-0.3,0-0.5,0-0.6,0c-0.2,0-0.3-0.1-0.4-0.1c-0.1-0.1-0.2-0.2-0.2-0.3
		c0-0.1-0.1-0.2-0.1-0.4c0-0.1,0-0.3,0-0.4c0-0.2,0-0.3,0.1-0.5c0-0.2,0.1-0.4,0.1-0.5c0.1-0.2,0.1-0.3,0.2-0.4
		c0.1-0.2,0.3-0.3,0.5-0.4c0.2-0.1,0.5-0.1,0.8-0.2c0.3,0,0.5,0,0.7,0c0.2,0,0.3,0.1,0.4,0.2c0.1,0.1,0.2,0.2,0.2,0.3
		C443.9,22.7,443.9,22.8,443.9,23z M443.9,20.5c0,0.1,0,0.1-0.1,0.2c-0.1,0.1-0.1,0.1-0.2,0.2c-0.1,0-0.2,0.1-0.4,0.1
		c-0.1,0-0.3,0.1-0.6,0.1c-0.2,0-0.4,0-0.6,0s-0.3,0-0.3-0.1c-0.1,0-0.1-0.1-0.2-0.1c0-0.1,0-0.1,0-0.2l0.8-9.9c0-0.1,0-0.2,0.1-0.3
		c0.1-0.1,0.1-0.1,0.3-0.2c0.1-0.1,0.3-0.1,0.5-0.1c0.2,0,0.4-0.1,0.7-0.1c0.3,0,0.5,0,0.7,0c0.2,0,0.3,0,0.4,0.1
		c0.1,0,0.2,0.1,0.2,0.2c0,0.1,0,0.2,0,0.2L443.9,20.5z"/>
</g>
</svg>
