<!-- Generator: Adobe Illustrator 21.1.0, SVG Export Plug-In  -->
<svg version="1.1"
	 xmlns="http://www.w3.org/2000/svg" xmlns:xlink="http://www.w3.org/1999/xlink" xmlns:a="http://ns.adobe.com/AdobeSVGViewerExtensions/3.0/"
	 x="0px" y="0px" width="360.5px" height="319.4px" viewBox="0 0 360.5 319.4"
	 style="overflow:scroll;enable-background:new 0 0 360.5 319.4;" xml:space="preserve">
<style type="text/css">
	.st0{fill:#17216F;fill-opacity:0.8;}
	.st1{fill:#3680C0;fill-opacity:0.63;}
	.st2{fill:#C23334;}
	.st3{fill:#FFFFFE;}
</style>
<defs>
</defs>
<polygon class="st0" points="0,282.2 13.8,54.3 354.7,33.5 360.5,305 13.8,283 "/>
<polygon class="st1" points="346.1,319.4 14.8,285.4 342.8,302.8 "/>
<polygon class="st2" points="58.6,50.5 88,14.5 302.1,0 295.7,38.5 "/>
<g>
	<path class="st3" d="M80.1,32.4c0-0.1,0-0.1,0.1-0.2c0-0.1,0.1-0.1,0.2-0.2c0.1,0,0.2-0.1,0.4-0.1c0.2,0,0.3,0,0.6-0.1
		c0.2,0,0.4,0,0.6,0c0.1,0,0.3,0,0.3,0.1c0.1,0,0.1,0.1,0.2,0.1c0,0.1,0,0.1,0,0.2l-1,9.8c0,0.1,0,0.2-0.1,0.2
		c-0.1,0.1-0.1,0.1-0.3,0.2c-0.1,0.1-0.3,0.1-0.5,0.1c-0.2,0-0.4,0.1-0.7,0.1c-0.3,0-0.5,0-0.7,0c-0.2,0-0.3,0-0.4-0.1
		c-0.1,0-0.2-0.1-0.2-0.2c0-0.1,0-0.1,0-0.2L80.1,32.4z M80.1,30c0-0.1,0-0.3,0-0.4c0-0.2,0-0.3,0.1-0.5c0-0.2,0.1-0.3,0.1-0.5
		c0.1-0.2,0.1-0.3,0.2-0.4c0.1-0.1,0.3-0.3,0.5-0.3s0.5-0.1,0.8-0.2c0.3,0,0.5,0,0.6,0c0.2,0,0.3,0.1,0.4,0.1
		c0.1,0.1,0.2,0.2,0.2,0.3c0,0.1,0.1,0.2,0.1,0.4c0,0.1,0,0.3,0,0.4c0,0.2,0,0.3-0.1,0.5c0,0.2-0.1,0.4-0.1,0.5
		c-0.1,0.2-0.1,0.3-0.2,0.4c-0.1,0.2-0.3,0.3-0.5,0.4c-0.2,0.1-0.5,0.1-0.8,0.1c-0.3,0-0.5,0-0.7,0c-0.2,0-0.3-0.1-0.4-0.2
		c-0.1-0.1-0.2-0.2-0.2-0.3C80.2,30.2,80.2,30.1,80.1,30z"/>
	<path class="st3" d="M97.2,38.5c0.1,0.3,0.1,0.5,0.1,0.6c0,0.1,0,0.3-0.1,0.3c-0.1,0.1-0.2,0.1-0.5,0.2c-0.2,0-0.5,0.1-0.9,0.1
		c-0.3,0-0.5,0-0.7,0c-0.2,0-0.3,0-0.4,0c-0.1,0-0.2-0.1-0.2-0.1c0-0.1-0.1-0.1-0.1-0.2l-0.6-2.8L88.6,37l-1.3,2.8
		c0,0.1-0.1,0.2-0.2,0.3c-0.1,0.1-0.1,0.1-0.3,0.2c-0.1,0-0.3,0.1-0.5,0.1c-0.2,0-0.5,0.1-0.8,0.1c-0.3,0-0.6,0-0.8,0
		c-0.2,0-0.3-0.1-0.4-0.1c-0.1-0.1-0.1-0.2,0-0.3c0-0.2,0.1-0.4,0.2-0.6l5.9-12.7c0.1-0.1,0.1-0.2,0.2-0.3c0.1-0.1,0.2-0.1,0.3-0.2
		c0.1,0,0.3-0.1,0.5-0.1c0.2,0,0.5,0,0.9-0.1c0.4,0,0.8,0,1,0c0.2,0,0.4,0,0.6,0c0.1,0,0.2,0.1,0.3,0.2c0,0.1,0.1,0.2,0.1,0.3
		L97.2,38.5z M92.3,28.6L92.3,28.6l-2.7,6.1l3.9-0.3L92.3,28.6z"/>
	<path class="st3" d="M109,31.9c0,0.5,0,1,0,1.5c-0.1,0.5-0.2,1.1-0.3,1.6c-0.1,0.5-0.3,1.1-0.6,1.6c-0.2,0.5-0.6,1-0.9,1.4
		c-0.4,0.4-0.8,0.7-1.3,1c-0.5,0.3-1,0.4-1.7,0.4c-0.3,0-0.6,0-0.8,0c-0.3,0-0.5-0.1-0.7-0.2c-0.2-0.1-0.4-0.2-0.6-0.3
		c-0.2-0.1-0.3-0.3-0.5-0.4l-0.6,4.4c0,0.1,0,0.1-0.1,0.2c-0.1,0.1-0.1,0.1-0.2,0.2c-0.1,0-0.3,0.1-0.4,0.1c-0.2,0-0.4,0.1-0.7,0.1
		c-0.3,0-0.5,0-0.6,0c-0.2,0-0.3,0-0.4-0.1c-0.1,0-0.2-0.1-0.2-0.1c0-0.1,0-0.1,0-0.2l1.8-13.5c0-0.1,0.1-0.3,0.3-0.3
		c0.2-0.1,0.5-0.1,0.9-0.2c0.2,0,0.4,0,0.5,0c0.1,0,0.3,0,0.3,0.1c0.1,0,0.1,0.1,0.2,0.1c0,0,0,0.1,0,0.2l-0.2,1.6
		c0.1-0.2,0.2-0.5,0.5-0.8c0.2-0.3,0.5-0.5,0.8-0.7c0.3-0.2,0.7-0.4,1-0.6c0.4-0.2,0.8-0.3,1.2-0.3c0.6,0,1,0,1.4,0.2
		c0.4,0.2,0.7,0.4,1,0.7c0.3,0.3,0.4,0.7,0.6,1.1C108.9,30.9,108.9,31.4,109,31.9z M106.2,32.3c0-0.2,0-0.5-0.1-0.7
		c-0.1-0.2-0.1-0.4-0.2-0.5c-0.1-0.1-0.2-0.2-0.4-0.3c-0.1-0.1-0.3-0.1-0.5-0.1c-0.3,0-0.6,0.1-1,0.3c-0.3,0.2-0.6,0.5-0.9,0.8
		s-0.5,0.7-0.7,1.2c-0.2,0.4-0.3,0.9-0.4,1.4l-0.2,1.5c0.3,0.4,0.6,0.7,0.9,0.8c0.3,0.2,0.7,0.3,1.1,0.2c0.3,0,0.6-0.1,0.8-0.3
		c0.2-0.2,0.4-0.4,0.6-0.6c0.2-0.3,0.3-0.5,0.5-0.9c0.1-0.3,0.2-0.7,0.3-1c0.1-0.4,0.1-0.7,0.1-1.1C106.2,33,106.2,32.6,106.2,32.3z
		"/>
	<path class="st3" d="M117.7,28.2c0,0,0,0.1,0,0.3c0,0.1,0,0.3,0,0.5c0,0.2,0,0.4-0.1,0.5c0,0.2-0.1,0.4-0.1,0.5
		c0,0.2-0.1,0.3-0.2,0.4c-0.1,0.1-0.1,0.2-0.2,0.2c-0.1,0-0.1,0-0.2,0c-0.1,0-0.1,0-0.2-0.1c-0.1,0-0.2,0-0.3-0.1
		c-0.1,0-0.2,0-0.3,0c-0.2,0-0.5,0.1-0.8,0.3c-0.3,0.2-0.5,0.5-0.7,0.8c-0.2,0.3-0.4,0.7-0.6,1.1c-0.2,0.4-0.3,0.8-0.3,1.3l-0.6,4.4
		c0,0.1,0,0.1-0.1,0.2c-0.1,0.1-0.1,0.1-0.2,0.1c-0.1,0-0.3,0.1-0.4,0.1c-0.2,0-0.4,0.1-0.7,0.1c-0.3,0-0.5,0-0.6,0
		c-0.2,0-0.3,0-0.4-0.1c-0.1,0-0.2-0.1-0.2-0.1c0-0.1,0-0.1,0-0.2l1.3-9.7c0-0.1,0-0.1,0.1-0.2c0-0.1,0.1-0.1,0.2-0.1
		c0.1,0,0.2-0.1,0.4-0.1c0.2,0,0.3,0,0.5-0.1c0.2,0,0.4,0,0.5,0c0.1,0,0.3,0,0.3,0.1c0.1,0,0.1,0.1,0.2,0.1c0,0,0,0.1,0,0.2
		l-0.2,1.5c0.2-0.3,0.3-0.6,0.5-0.9c0.2-0.3,0.4-0.5,0.7-0.7c0.2-0.2,0.5-0.4,0.8-0.5c0.3-0.1,0.5-0.2,0.8-0.2c0.1,0,0.2,0,0.3,0
		c0.1,0,0.2,0,0.3,0c0.1,0,0.2,0,0.3,0.1c0.1,0,0.1,0.1,0.2,0.1C117.7,28,117.7,28.1,117.7,28.2z"/>
	<path class="st3" d="M128.3,30.8c0,0.5,0,1,0,1.6s-0.2,1.1-0.4,1.6c-0.2,0.5-0.4,1-0.7,1.5c-0.3,0.5-0.7,0.9-1.1,1.3
		c-0.4,0.4-0.9,0.7-1.5,0.9c-0.6,0.2-1.2,0.4-2,0.4c-0.7,0-1.4,0-1.9-0.1c-0.5-0.1-1-0.4-1.4-0.7c-0.4-0.3-0.7-0.7-0.9-1.1
		c-0.2-0.5-0.3-1-0.4-1.6c0-0.5,0-1,0-1.6c0.1-0.5,0.2-1.1,0.4-1.6c0.2-0.5,0.4-1,0.7-1.5c0.3-0.5,0.7-0.9,1.1-1.3
		c0.4-0.4,0.9-0.7,1.5-0.9c0.6-0.2,1.2-0.4,2-0.4c0.7,0,1.4,0,1.9,0.1c0.5,0.1,1,0.4,1.4,0.7c0.4,0.3,0.7,0.7,0.9,1.1
		C128.1,29.7,128.3,30.2,128.3,30.8z M125.5,31.2c0-0.3-0.1-0.6-0.1-0.8c-0.1-0.2-0.2-0.4-0.3-0.6c-0.2-0.1-0.3-0.3-0.6-0.3
		c-0.2-0.1-0.5-0.1-0.8-0.1c-0.4,0-0.7,0.1-1,0.3c-0.3,0.2-0.5,0.4-0.7,0.6c-0.2,0.2-0.4,0.5-0.5,0.9c-0.1,0.3-0.3,0.7-0.3,1
		c-0.1,0.4-0.1,0.7-0.2,1.1s0,0.7,0,1c0,0.3,0.1,0.6,0.1,0.8c0.1,0.2,0.2,0.4,0.3,0.6c0.2,0.2,0.3,0.3,0.6,0.3
		c0.2,0.1,0.5,0.1,0.8,0.1c0.4,0,0.7-0.1,1-0.3c0.3-0.2,0.5-0.4,0.7-0.6c0.2-0.3,0.4-0.5,0.5-0.9c0.1-0.3,0.3-0.7,0.3-1
		c0.1-0.4,0.1-0.7,0.2-1.1C125.5,31.9,125.6,31.5,125.5,31.2z"/>
	<path class="st3" d="M139.3,26.8c0,0.1,0,0.2,0,0.3c0,0.1,0,0.2-0.1,0.4c-0.2,0.8-0.5,1.6-0.7,2.4c-0.3,0.8-0.6,1.6-0.9,2.4
		c-0.3,0.8-0.7,1.6-1.1,2.3c-0.4,0.8-0.8,1.5-1.3,2.2c-0.1,0.1-0.1,0.2-0.2,0.3c-0.1,0.1-0.2,0.1-0.4,0.2c-0.1,0-0.3,0.1-0.5,0.1
		c-0.2,0-0.4,0-0.7,0.1c-0.4,0-0.7,0-0.9,0c-0.2,0-0.4,0-0.5-0.1c-0.1,0-0.2-0.1-0.3-0.2c0-0.1-0.1-0.2-0.1-0.3l-1.7-8.5
		c0-0.1,0-0.2,0-0.3c0-0.1,0-0.2,0-0.3c0-0.1,0-0.3,0-0.3c0-0.1,0.1-0.1,0.2-0.2c0.1-0.1,0.2-0.1,0.4-0.1c0.2,0,0.4-0.1,0.7-0.1
		c0.3,0,0.5,0,0.7,0c0.2,0,0.3,0,0.4,0c0.1,0,0.2,0.1,0.2,0.1c0,0.1,0.1,0.1,0.1,0.2l1.3,7l0,0.3l0-0.1c0.3-0.6,0.6-1.1,0.9-1.7
		c0.3-0.6,0.5-1.2,0.7-1.8c0.2-0.6,0.4-1.2,0.6-1.9c0.2-0.6,0.4-1.3,0.5-2c0-0.1,0.1-0.2,0.1-0.2c0.1-0.1,0.1-0.1,0.3-0.2
		c0.1,0,0.3-0.1,0.4-0.1c0.2,0,0.4,0,0.7-0.1c0.3,0,0.5,0,0.6,0s0.3,0,0.4,0c0.1,0,0.2,0.1,0.2,0.1
		C139.3,26.7,139.3,26.8,139.3,26.8z"/>
	<path class="st3" d="M149.5,28.4c0,0.5-0.1,1-0.3,1.4c-0.2,0.4-0.5,0.8-1,1.1s-1.1,0.6-1.8,0.8c-0.7,0.2-1.6,0.3-2.7,0.4l-1,0.1
		c0,0.2,0,0.3,0,0.5c0,0.2,0,0.3,0,0.4c0,0.6,0.2,1,0.5,1.3c0.3,0.3,0.8,0.4,1.5,0.3c0.5,0,0.9-0.1,1.3-0.2c0.4-0.1,0.7-0.2,1-0.3
		c0.3-0.1,0.5-0.2,0.7-0.3c0.2-0.1,0.3-0.1,0.4-0.1c0.1,0,0.1,0,0.2,0.1c0,0,0.1,0.1,0.1,0.2c0,0.1,0,0.3,0,0.4c0,0.2,0,0.3-0.1,0.5
		c0,0.2-0.1,0.3-0.1,0.4c-0.1,0.1-0.1,0.2-0.2,0.3c-0.1,0.1-0.2,0.2-0.5,0.3c-0.2,0.1-0.5,0.2-0.8,0.3c-0.3,0.1-0.7,0.2-1.1,0.2
		c-0.4,0.1-0.8,0.1-1.2,0.1c-0.7,0-1.3,0-1.8-0.1c-0.5-0.1-1-0.3-1.3-0.6c-0.4-0.3-0.6-0.6-0.8-1.1c-0.2-0.4-0.3-1-0.4-1.6
		c0-0.5,0-1,0-1.5c0.1-0.6,0.2-1.1,0.3-1.6c0.2-0.5,0.4-1.1,0.7-1.6c0.3-0.5,0.6-1,1.1-1.4c0.4-0.4,0.9-0.7,1.5-1
		c0.6-0.3,1.2-0.4,2-0.5c0.7,0,1.2,0,1.7,0.1c0.5,0.1,0.9,0.3,1.2,0.5c0.3,0.2,0.6,0.5,0.7,0.8C149.3,27.7,149.4,28,149.5,28.4z
		 M146.8,28.7c0-0.3-0.1-0.5-0.4-0.7c-0.2-0.2-0.6-0.2-1-0.2c-0.4,0-0.7,0.1-0.9,0.3c-0.3,0.1-0.5,0.3-0.7,0.6
		c-0.2,0.2-0.4,0.5-0.5,0.8c-0.1,0.3-0.2,0.6-0.3,1l0.9-0.1c0.6,0,1-0.1,1.4-0.2c0.4-0.1,0.7-0.2,0.9-0.4c0.2-0.1,0.4-0.3,0.5-0.5
		C146.8,29.1,146.8,28.9,146.8,28.7z"/>
	<path class="st3" d="M159,26.3c0,0.2,0,0.3,0,0.6c0,0.2-0.1,0.4-0.1,0.6c-0.1,0.2-0.1,0.3-0.2,0.5c-0.1,0.1-0.2,0.2-0.3,0.2
		c-0.1,0-0.2,0-0.3-0.1c-0.1-0.1-0.2-0.2-0.4-0.3c-0.2-0.1-0.3-0.2-0.6-0.3c-0.2-0.1-0.5-0.1-0.9-0.1c-0.4,0-0.7,0.1-1,0.3
		c-0.3,0.2-0.5,0.4-0.7,0.7c-0.2,0.3-0.4,0.6-0.5,0.9c-0.1,0.3-0.2,0.7-0.3,1c-0.1,0.3-0.1,0.7-0.1,1c0,0.3,0,0.6,0,0.8
		c0,0.6,0.2,1,0.5,1.3c0.3,0.3,0.7,0.4,1.2,0.4c0.4,0,0.7-0.1,1-0.2c0.3-0.1,0.5-0.3,0.7-0.4c0.2-0.1,0.4-0.3,0.5-0.4
		c0.1-0.1,0.3-0.2,0.4-0.2c0.1,0,0.1,0,0.2,0.1c0,0.1,0.1,0.2,0.1,0.3c0,0.1,0,0.3,0,0.5c0,0.2,0,0.4-0.1,0.6c0,0.2-0.1,0.4-0.1,0.5
		c0,0.2-0.1,0.3-0.2,0.4c-0.1,0.1-0.2,0.2-0.4,0.3c-0.2,0.1-0.4,0.3-0.7,0.4c-0.3,0.1-0.6,0.2-0.9,0.3c-0.3,0.1-0.6,0.1-1,0.1
		c-1.2,0.1-2.2-0.2-2.8-0.8c-0.6-0.6-1-1.5-1.1-2.7c0-0.4,0-0.9,0-1.4c0-0.5,0.1-1.1,0.3-1.6c0.2-0.5,0.4-1.1,0.6-1.6
		c0.3-0.5,0.6-1,1-1.4c0.4-0.4,0.9-0.7,1.4-1c0.5-0.3,1.2-0.4,1.9-0.5c0.3,0,0.6,0,0.8,0c0.3,0,0.5,0.1,0.8,0.1
		c0.2,0.1,0.4,0.1,0.6,0.2c0.2,0.1,0.3,0.2,0.4,0.2c0.1,0.1,0.2,0.1,0.2,0.2C158.9,26.1,158.9,26.2,159,26.3z"/>
	<path class="st3" d="M168.7,34.6c0,0.1,0,0.1-0.1,0.2c-0.1,0.1-0.1,0.1-0.2,0.1c-0.1,0-0.2,0.1-0.4,0.1c-0.2,0-0.4,0.1-0.7,0.1
		c-0.3,0-0.5,0-0.6,0c-0.2,0-0.3,0-0.4-0.1c-0.1,0-0.2-0.1-0.2-0.1c0-0.1,0-0.1,0-0.2l0.8-5.8c0-0.2,0-0.3,0-0.5c0-0.2,0-0.4,0-0.5
		c0-0.2,0-0.3-0.1-0.4c0-0.1-0.1-0.2-0.2-0.3c-0.1-0.1-0.2-0.2-0.3-0.2c-0.1,0-0.3-0.1-0.4-0.1c-0.3,0-0.6,0.1-0.9,0.3
		c-0.3,0.2-0.6,0.5-0.9,0.8c-0.3,0.3-0.5,0.7-0.7,1.2c-0.2,0.4-0.3,0.9-0.4,1.4l-0.6,4.4c0,0.1,0,0.1-0.1,0.2
		c-0.1,0.1-0.1,0.1-0.2,0.1c-0.1,0-0.3,0.1-0.4,0.1c-0.2,0-0.4,0.1-0.7,0.1c-0.3,0-0.5,0-0.6,0c-0.2,0-0.3,0-0.4-0.1
		c-0.1,0-0.2-0.1-0.2-0.1c0-0.1,0-0.1,0-0.2l1.9-14.3c0-0.1,0-0.1,0.1-0.2c0-0.1,0.1-0.1,0.2-0.2c0.1,0,0.3-0.1,0.4-0.1
		c0.2,0,0.4-0.1,0.7-0.1c0.3,0,0.5,0,0.6,0c0.2,0,0.3,0,0.4,0.1c0.1,0,0.2,0.1,0.2,0.1c0,0.1,0,0.1,0,0.2l-0.5,3.9
		c0,0.2-0.1,0.3-0.1,0.5c0,0.2-0.1,0.4-0.1,0.5c0,0.2-0.1,0.4-0.1,0.5c0,0.2-0.1,0.3-0.1,0.4c0.1-0.2,0.3-0.5,0.5-0.7
		c0.2-0.2,0.5-0.5,0.8-0.7c0.3-0.2,0.6-0.4,1-0.5s0.7-0.2,1.1-0.2c0.5,0,0.9,0,1.2,0.1c0.3,0.1,0.6,0.3,0.9,0.5
		c0.2,0.2,0.4,0.5,0.5,0.8c0.1,0.3,0.2,0.7,0.2,1.1c0,0.3,0,0.5,0,0.8c0,0.3,0,0.5-0.1,0.8L168.7,34.6z"/>
	<path class="st3" d="M180.3,33.9c0,0.2-0.1,0.3-0.3,0.3c-0.2,0.1-0.5,0.1-0.9,0.2c-0.2,0-0.4,0-0.5,0c-0.1,0-0.3,0-0.3,0
		c-0.1,0-0.1-0.1-0.2-0.1c0-0.1,0-0.1,0-0.2l0.2-1.6c-0.1,0.2-0.2,0.5-0.5,0.8c-0.2,0.3-0.5,0.5-0.8,0.7c-0.3,0.2-0.7,0.4-1,0.6
		c-0.4,0.2-0.8,0.3-1.2,0.3c-0.6,0-1.1,0-1.4-0.2c-0.4-0.2-0.7-0.4-1-0.7c-0.2-0.3-0.4-0.7-0.6-1.1c-0.1-0.4-0.2-0.9-0.2-1.4
		c0-0.5,0-0.9,0-1.5c0.1-0.5,0.1-1.1,0.3-1.6c0.1-0.5,0.3-1.1,0.6-1.6c0.2-0.5,0.6-1,0.9-1.4c0.4-0.4,0.8-0.7,1.3-1s1.1-0.4,1.7-0.5
		c0.6,0,1.1,0.1,1.6,0.3c0.5,0.2,0.9,0.6,1.3,1l0.1-0.9c0-0.1,0.1-0.3,0.3-0.3c0.2-0.1,0.5-0.1,0.9-0.2c0.2,0,0.4,0,0.5,0
		c0.1,0,0.3,0,0.3,0.1c0.1,0,0.1,0.1,0.2,0.1c0,0,0,0.1,0,0.2L180.3,33.9z M178.5,27.2c-0.3-0.4-0.6-0.7-0.9-0.8
		c-0.3-0.2-0.7-0.2-1.1-0.2c-0.3,0-0.6,0.1-0.8,0.3c-0.2,0.2-0.5,0.4-0.6,0.6c-0.2,0.2-0.3,0.5-0.5,0.9c-0.1,0.3-0.2,0.7-0.3,1
		c-0.1,0.3-0.1,0.7-0.1,1c0,0.3,0,0.7,0,1c0,0.2,0,0.4,0.1,0.6c0,0.2,0.1,0.4,0.2,0.5c0.1,0.1,0.2,0.3,0.4,0.3
		c0.1,0.1,0.3,0.1,0.6,0.1c0.3,0,0.6-0.1,0.9-0.3c0.3-0.2,0.6-0.5,0.9-0.8c0.3-0.3,0.5-0.7,0.7-1.2s0.3-0.9,0.4-1.4L178.5,27.2z"/>
	<path class="st3" d="M194.8,23.4c0,0.1,0,0.2,0,0.3c0,0.1,0,0.2,0,0.4c0,0.1,0,0.3-0.1,0.4c0,0.1-0.1,0.3-0.1,0.4
		c0,0.1-0.1,0.2-0.2,0.3c-0.1,0.1-0.1,0.1-0.2,0.1l-2.1,0.1l-0.6,4.5c0,0.1,0,0.2,0,0.4c0,0.1,0,0.3,0,0.4c0,0.3,0.1,0.5,0.2,0.6
		c0.1,0.1,0.4,0.2,0.7,0.2c0.2,0,0.3,0,0.4-0.1c0.1,0,0.2-0.1,0.3-0.1c0.1,0,0.2-0.1,0.2-0.1s0.1,0,0.2,0c0.1,0,0.1,0,0.2,0.1
		c0,0,0.1,0.1,0.1,0.3c0,0.1,0,0.3,0,0.5c0,0.2,0,0.3-0.1,0.5c0,0.2-0.1,0.3-0.1,0.5c0,0.1-0.1,0.2-0.2,0.3
		c-0.1,0.1-0.2,0.1-0.3,0.2c-0.1,0.1-0.3,0.1-0.4,0.2c-0.2,0.1-0.4,0.1-0.6,0.1s-0.4,0.1-0.6,0.1c-0.4,0-0.8,0-1.1-0.1
		c-0.3-0.1-0.6-0.2-0.8-0.4c-0.2-0.2-0.4-0.4-0.5-0.7c-0.1-0.3-0.2-0.7-0.2-1.1c0-0.1,0-0.2,0-0.3c0-0.1,0-0.2,0-0.3
		c0-0.1,0-0.2,0-0.4c0-0.1,0-0.2,0-0.3l0.6-4.7l-1.2,0.1c-0.1,0-0.2,0-0.2-0.1s-0.1-0.2-0.1-0.3c0-0.1,0-0.3,0-0.5
		c0-0.2,0-0.4,0.1-0.6c0-0.2,0.1-0.4,0.2-0.5c0.1-0.1,0.2-0.2,0.3-0.2l1.1-0.1l0.3-2.2c0-0.1,0-0.1,0.1-0.2c0-0.1,0.1-0.1,0.2-0.2
		c0.1,0,0.2-0.1,0.4-0.1c0.2,0,0.4-0.1,0.7-0.1c0.3,0,0.5,0,0.6,0c0.2,0,0.3,0,0.4,0.1c0.1,0,0.2,0.1,0.2,0.1c0,0.1,0,0.1,0,0.2
		l-0.3,2.2l2.1-0.1c0.1,0,0.2,0,0.3,0.1C194.8,23.1,194.8,23.3,194.8,23.4z"/>
	<path class="st3" d="M204.4,32.3c0,0.1,0,0.1-0.1,0.2c0,0.1-0.1,0.1-0.2,0.1c-0.1,0-0.2,0.1-0.4,0.1c-0.1,0-0.3,0-0.6,0.1
		c-0.2,0-0.4,0-0.5,0c-0.1,0-0.3,0-0.3-0.1c-0.1,0-0.1-0.1-0.2-0.1c0-0.1,0-0.1,0-0.2l0.2-1.6c-0.1,0.3-0.3,0.5-0.5,0.8
		c-0.2,0.3-0.5,0.5-0.8,0.8c-0.3,0.2-0.7,0.4-1,0.6c-0.4,0.2-0.8,0.2-1.2,0.3c-0.5,0-0.9,0-1.3-0.1c-0.4-0.1-0.6-0.3-0.9-0.5
		c-0.2-0.2-0.4-0.5-0.5-0.8c-0.1-0.3-0.2-0.7-0.2-1.1c0-0.2,0-0.5,0-0.7c0-0.3,0-0.5,0.1-0.8l0.8-6c0-0.1,0-0.1,0.1-0.2
		c0.1-0.1,0.1-0.1,0.2-0.1c0.1,0,0.3-0.1,0.4-0.1c0.2,0,0.4-0.1,0.7-0.1c0.3,0,0.5,0,0.6,0c0.2,0,0.3,0,0.4,0.1
		c0.1,0,0.2,0.1,0.2,0.1c0,0,0,0.1,0,0.2l-0.8,5.8c0,0.2,0,0.3,0,0.5c0,0.2,0,0.3,0,0.5c0,0.2,0,0.3,0.1,0.5c0,0.1,0.1,0.3,0.2,0.3
		c0.1,0.1,0.2,0.2,0.3,0.2c0.1,0,0.2,0.1,0.4,0.1c0.3,0,0.6-0.1,0.9-0.3c0.3-0.2,0.6-0.5,0.9-0.8c0.3-0.3,0.5-0.8,0.7-1.2
		c0.2-0.5,0.3-1,0.4-1.5l0.5-4.2c0-0.1,0-0.1,0.1-0.2c0.1-0.1,0.1-0.1,0.2-0.1c0.1,0,0.3-0.1,0.4-0.1c0.2,0,0.4-0.1,0.7-0.1
		c0.3,0,0.5,0,0.6,0c0.2,0,0.3,0,0.4,0.1c0.1,0,0.2,0.1,0.2,0.1c0,0,0,0.1,0,0.2L204.4,32.3z"/>
	<path class="st3" d="M214.4,22.5c0,0.1,0,0.2,0,0.4c0,0.2,0,0.3-0.1,0.5c0,0.2-0.1,0.3-0.1,0.5c-0.1,0.1-0.1,0.2-0.2,0.2
		c-0.1,0-0.2,0-0.3-0.1c-0.1-0.1-0.3-0.1-0.5-0.2c-0.2-0.1-0.4-0.1-0.6-0.2c-0.2,0-0.5-0.1-0.8,0c-0.3,0-0.5,0.1-0.7,0.1
		c-0.2,0.1-0.3,0.2-0.5,0.3c-0.1,0.1-0.2,0.3-0.3,0.4c-0.1,0.2-0.1,0.3-0.1,0.5c0,0.2,0.1,0.4,0.3,0.5c0.2,0.1,0.4,0.3,0.7,0.4
		c0.3,0.1,0.6,0.2,0.9,0.4c0.3,0.1,0.6,0.3,0.9,0.5c0.3,0.2,0.5,0.4,0.7,0.7c0.2,0.3,0.3,0.7,0.3,1.1c0,0.5,0,1.1-0.2,1.5
		c-0.2,0.5-0.5,0.9-0.8,1.3c-0.4,0.4-0.8,0.7-1.4,0.9c-0.6,0.2-1.2,0.4-1.9,0.4c-0.3,0-0.7,0-1,0c-0.3,0-0.6-0.1-0.8-0.1
		c-0.3-0.1-0.5-0.1-0.6-0.2c-0.2-0.1-0.3-0.2-0.4-0.2c-0.1-0.1-0.1-0.1-0.1-0.2c0-0.1,0-0.1-0.1-0.2c0-0.1,0-0.1,0-0.2
		c0-0.1,0-0.2,0-0.3c0-0.1,0-0.2,0.1-0.4s0.1-0.2,0.1-0.3c0-0.1,0.1-0.2,0.1-0.3c0-0.1,0.1-0.1,0.2-0.1c0.1,0,0.2,0,0.3,0.1
		c0.1,0.1,0.3,0.2,0.5,0.3c0.2,0.1,0.4,0.2,0.7,0.2c0.3,0.1,0.6,0.1,1.1,0.1c0.3,0,0.5-0.1,0.8-0.1c0.2-0.1,0.4-0.2,0.5-0.3
		c0.1-0.1,0.2-0.3,0.3-0.4c0.1-0.2,0.1-0.3,0.1-0.5c0-0.2-0.1-0.4-0.3-0.6c-0.2-0.1-0.4-0.3-0.7-0.4c-0.3-0.1-0.6-0.2-0.9-0.4
		c-0.3-0.1-0.6-0.3-0.9-0.5c-0.3-0.2-0.5-0.4-0.7-0.7c-0.2-0.3-0.3-0.7-0.3-1.1c0-0.5,0-1,0.2-1.4c0.2-0.4,0.4-0.8,0.8-1.2
		c0.4-0.4,0.8-0.6,1.3-0.8c0.5-0.2,1.1-0.3,1.8-0.4c0.3,0,0.6,0,0.9,0c0.3,0,0.5,0.1,0.8,0.1c0.2,0.1,0.4,0.1,0.6,0.2
		c0.2,0.1,0.3,0.1,0.4,0.2C214.3,22.2,214.4,22.3,214.4,22.5z"/>
	<path class="st3" d="M230.9,24c0,0.5,0,1,0,1.5c-0.1,0.5-0.2,1.1-0.3,1.6c-0.1,0.5-0.3,1.1-0.6,1.6c-0.2,0.5-0.6,1-0.9,1.4
		c-0.4,0.4-0.8,0.7-1.3,1c-0.5,0.3-1,0.4-1.7,0.4c-0.3,0-0.6,0-0.8,0c-0.3,0-0.5-0.1-0.7-0.2c-0.2-0.1-0.4-0.2-0.6-0.3
		c-0.2-0.1-0.3-0.3-0.5-0.4l-0.6,4.4c0,0.1,0,0.1-0.1,0.2c0,0.1-0.1,0.1-0.2,0.2c-0.1,0-0.3,0.1-0.4,0.1c-0.2,0-0.4,0.1-0.7,0.1
		c-0.3,0-0.5,0-0.6,0c-0.2,0-0.3,0-0.4-0.1c-0.1,0-0.2-0.1-0.2-0.1c0-0.1,0-0.1,0-0.2l1.8-13.5c0-0.1,0.1-0.3,0.3-0.3
		c0.2-0.1,0.5-0.1,0.9-0.2c0.2,0,0.4,0,0.5,0c0.1,0,0.3,0,0.3,0.1c0.1,0,0.1,0.1,0.2,0.1c0,0,0,0.1,0,0.2l-0.2,1.6
		c0.1-0.2,0.2-0.5,0.5-0.8c0.2-0.3,0.5-0.5,0.8-0.7c0.3-0.2,0.7-0.4,1-0.6c0.4-0.2,0.8-0.3,1.2-0.3c0.5,0,1,0,1.4,0.2
		c0.4,0.2,0.7,0.4,1,0.7c0.3,0.3,0.4,0.7,0.6,1.1C230.7,23,230.8,23.5,230.9,24z M228.1,24.4c0-0.2,0-0.5-0.1-0.7
		c-0.1-0.2-0.1-0.4-0.2-0.5c-0.1-0.1-0.2-0.2-0.4-0.3c-0.1-0.1-0.3-0.1-0.5-0.1c-0.3,0-0.6,0.1-1,0.3c-0.3,0.2-0.6,0.5-0.9,0.8
		c-0.3,0.3-0.5,0.7-0.7,1.2c-0.2,0.4-0.3,0.9-0.4,1.4l-0.2,1.5c0.3,0.4,0.6,0.7,0.9,0.8c0.3,0.2,0.7,0.3,1.1,0.2
		c0.3,0,0.6-0.1,0.8-0.3c0.2-0.2,0.4-0.4,0.6-0.6c0.2-0.3,0.3-0.5,0.5-0.9c0.1-0.3,0.2-0.7,0.3-1c0.1-0.4,0.1-0.7,0.1-1.1
		C228.1,25.1,228.1,24.7,228.1,24.4z"/>
	<path class="st3" d="M241.2,29.9c0,0.1,0,0.1-0.1,0.2c0,0.1-0.1,0.1-0.2,0.1c-0.1,0-0.2,0.1-0.4,0.1c-0.1,0-0.3,0-0.6,0.1
		c-0.2,0-0.4,0-0.5,0c-0.1,0-0.3,0-0.3-0.1c-0.1,0-0.1-0.1-0.2-0.1c0-0.1,0-0.1,0-0.2l0.2-1.6c-0.1,0.3-0.3,0.5-0.5,0.8
		c-0.2,0.3-0.5,0.5-0.8,0.8c-0.3,0.2-0.7,0.4-1,0.6c-0.4,0.2-0.8,0.2-1.2,0.3c-0.5,0-0.9,0-1.3-0.1c-0.4-0.1-0.6-0.3-0.9-0.5
		c-0.2-0.2-0.4-0.5-0.5-0.8c-0.1-0.3-0.2-0.7-0.2-1.1c0-0.2,0-0.5,0-0.7c0-0.3,0-0.5,0.1-0.8l0.8-6c0-0.1,0-0.1,0.1-0.2
		c0-0.1,0.1-0.1,0.2-0.1c0.1,0,0.3-0.1,0.4-0.1c0.2,0,0.4-0.1,0.7-0.1c0.3,0,0.5,0,0.6,0c0.2,0,0.3,0,0.4,0.1c0.1,0,0.2,0.1,0.2,0.1
		c0,0,0,0.1,0,0.2l-0.8,5.8c0,0.2,0,0.3,0,0.5c0,0.2,0,0.3,0,0.5c0,0.2,0,0.3,0.1,0.5c0,0.1,0.1,0.3,0.2,0.3
		c0.1,0.1,0.2,0.2,0.3,0.2c0.1,0,0.3,0.1,0.4,0.1c0.3,0,0.6-0.1,0.9-0.3c0.3-0.2,0.6-0.5,0.9-0.8c0.3-0.3,0.5-0.8,0.7-1.2
		c0.2-0.5,0.3-1,0.4-1.5l0.5-4.2c0-0.1,0-0.1,0.1-0.2c0.1-0.1,0.1-0.1,0.2-0.1c0.1,0,0.3-0.1,0.4-0.1c0.2,0,0.4-0.1,0.7-0.1
		c0.3,0,0.5,0,0.6,0c0.2,0,0.3,0,0.4,0.1c0.1,0,0.2,0.1,0.2,0.1c0,0,0,0.1,0,0.2L241.2,29.9z"/>
	<path class="st3" d="M253.7,21.6c0,0.2,0,0.5,0,0.8c0,0.3,0,0.5-0.1,0.8l-0.8,6c0,0.1,0,0.1-0.1,0.2c-0.1,0.1-0.1,0.1-0.2,0.1
		c-0.1,0-0.2,0.1-0.4,0.1c-0.2,0-0.4,0.1-0.7,0.1c-0.3,0-0.5,0-0.7,0c-0.2,0-0.3,0-0.4-0.1c-0.1,0-0.2-0.1-0.2-0.1
		c0-0.1,0-0.1,0-0.2l0.8-5.8c0-0.2,0-0.4,0-0.5c0-0.2,0-0.3,0-0.5c0-0.3-0.1-0.6-0.3-0.8s-0.4-0.3-0.7-0.3c-0.3,0-0.6,0.1-0.9,0.3
		c-0.3,0.2-0.6,0.5-0.9,0.8c-0.3,0.3-0.5,0.7-0.7,1.2c-0.2,0.4-0.3,0.9-0.4,1.4l-0.6,4.4c0,0.1,0,0.1-0.1,0.2
		c-0.1,0.1-0.1,0.1-0.2,0.1c-0.1,0-0.3,0.1-0.4,0.1c-0.2,0-0.4,0.1-0.7,0.1c-0.3,0-0.5,0-0.6,0c-0.2,0-0.3,0-0.4-0.1
		c-0.1,0-0.2-0.1-0.2-0.1c0-0.1,0-0.1,0-0.2l1.3-9.7c0-0.1,0-0.1,0.1-0.2c0-0.1,0.1-0.1,0.2-0.1c0.1,0,0.2-0.1,0.4-0.1
		c0.2,0,0.3,0,0.6-0.1c0.2,0,0.4,0,0.5,0c0.1,0,0.3,0,0.3,0.1c0.1,0,0.1,0.1,0.2,0.1c0,0,0,0.1,0,0.2l-0.2,1.6
		c0.1-0.3,0.3-0.5,0.6-0.8c0.2-0.3,0.5-0.5,0.8-0.8c0.3-0.2,0.7-0.4,1-0.6c0.4-0.2,0.8-0.3,1.2-0.3c0.5,0,0.9,0,1.3,0.1
		c0.3,0.1,0.6,0.3,0.9,0.5c0.2,0.2,0.4,0.5,0.5,0.8C253.6,20.9,253.7,21.3,253.7,21.6z"/>
	<path class="st3" d="M262.2,19c0,0.1,0,0.2,0,0.3c0,0.1,0,0.2,0,0.4c0,0.1,0,0.3-0.1,0.4c0,0.1-0.1,0.3-0.1,0.4
		c0,0.1-0.1,0.2-0.2,0.3c-0.1,0.1-0.1,0.1-0.2,0.1l-2.1,0.1l-0.6,4.5c0,0.1,0,0.2,0,0.4c0,0.1,0,0.3,0,0.4c0,0.3,0.1,0.5,0.2,0.6
		c0.1,0.1,0.4,0.2,0.7,0.2c0.2,0,0.3,0,0.4-0.1c0.1,0,0.2-0.1,0.3-0.1c0.1,0,0.2-0.1,0.2-0.1c0.1,0,0.1,0,0.2,0c0.1,0,0.1,0,0.2,0.1
		c0,0,0.1,0.1,0.1,0.3c0,0.1,0,0.3,0,0.5c0,0.2,0,0.3-0.1,0.5c0,0.2-0.1,0.3-0.1,0.5c0,0.1-0.1,0.2-0.2,0.3
		c-0.1,0.1-0.2,0.1-0.3,0.2c-0.1,0.1-0.3,0.1-0.4,0.2c-0.2,0.1-0.4,0.1-0.6,0.1c-0.2,0-0.4,0.1-0.6,0.1c-0.4,0-0.8,0-1.1-0.1
		c-0.3-0.1-0.6-0.2-0.8-0.4c-0.2-0.2-0.4-0.4-0.5-0.7c-0.1-0.3-0.2-0.7-0.2-1.1c0-0.1,0-0.2,0-0.3c0-0.1,0-0.2,0-0.3
		c0-0.1,0-0.2,0-0.4c0-0.1,0-0.2,0-0.3l0.6-4.7l-1.2,0.1c-0.1,0-0.2,0-0.2-0.1c0-0.1-0.1-0.2-0.1-0.3c0-0.1,0-0.3,0-0.5
		c0-0.2,0-0.4,0.1-0.6c0-0.2,0.1-0.4,0.2-0.5c0.1-0.1,0.2-0.2,0.3-0.2l1.1-0.1l0.3-2.2c0-0.1,0-0.1,0.1-0.2c0-0.1,0.1-0.1,0.2-0.2
		c0.1,0,0.3-0.1,0.4-0.1c0.2,0,0.4-0.1,0.7-0.1c0.3,0,0.5,0,0.6,0c0.2,0,0.3,0,0.4,0.1c0.1,0,0.2,0.1,0.2,0.1c0,0.1,0,0.1,0,0.2
		l-0.3,2.2l2.1-0.1c0.1,0,0.2,0,0.3,0.1C262.1,18.8,262.2,18.9,262.2,19z"/>
	<path class="st3" d="M272.8,21.5c0,0.5,0,1,0,1.6c-0.1,0.5-0.2,1.1-0.4,1.6c-0.2,0.5-0.4,1-0.7,1.5c-0.3,0.5-0.7,0.9-1.1,1.3
		c-0.4,0.4-0.9,0.7-1.5,0.9c-0.6,0.2-1.2,0.4-2,0.4c-0.7,0-1.4,0-1.9-0.1c-0.5-0.1-1-0.3-1.4-0.7c-0.4-0.3-0.7-0.7-0.9-1.2
		c-0.2-0.5-0.3-1-0.4-1.6c0-0.5,0-1,0-1.6c0.1-0.5,0.2-1.1,0.4-1.6s0.4-1,0.7-1.5c0.3-0.5,0.7-0.9,1.1-1.3c0.4-0.4,0.9-0.7,1.5-0.9
		c0.6-0.2,1.2-0.4,2-0.4c0.7,0,1.4,0,1.9,0.1c0.5,0.1,1,0.3,1.4,0.7c0.4,0.3,0.7,0.7,0.9,1.1C272.6,20.3,272.7,20.9,272.8,21.5z
		 M270,21.9c0-0.3-0.1-0.6-0.1-0.8c-0.1-0.2-0.2-0.4-0.3-0.6c-0.2-0.1-0.3-0.3-0.6-0.3c-0.2-0.1-0.5-0.1-0.8-0.1
		c-0.4,0-0.7,0.1-1,0.3c-0.3,0.2-0.5,0.4-0.7,0.6c-0.2,0.3-0.4,0.5-0.5,0.9c-0.1,0.3-0.3,0.7-0.3,1c-0.1,0.4-0.1,0.7-0.2,1.1
		c0,0.4,0,0.7,0,1c0,0.3,0.1,0.6,0.1,0.8c0.1,0.2,0.2,0.4,0.3,0.6c0.2,0.2,0.3,0.3,0.6,0.3c0.2,0.1,0.5,0.1,0.8,0.1
		c0.4,0,0.7-0.1,0.9-0.3c0.3-0.2,0.5-0.4,0.7-0.6c0.2-0.3,0.4-0.5,0.5-0.9c0.1-0.3,0.3-0.7,0.3-1c0.1-0.4,0.1-0.7,0.2-1.1
		C270,22.5,270,22.2,270,21.9z"/>
	<path class="st3" d="M281.5,18.1c0,0.1,0,0.2,0,0.4c0,0.2,0,0.3-0.1,0.5c0,0.2-0.1,0.3-0.1,0.5c-0.1,0.1-0.1,0.2-0.2,0.2
		c-0.1,0-0.2,0-0.3-0.1c-0.1-0.1-0.3-0.1-0.5-0.2c-0.2-0.1-0.4-0.1-0.6-0.2c-0.2,0-0.5-0.1-0.8,0c-0.2,0-0.5,0.1-0.7,0.1
		c-0.2,0.1-0.3,0.2-0.5,0.3c-0.1,0.1-0.2,0.3-0.3,0.4c-0.1,0.2-0.1,0.3-0.1,0.5c0,0.2,0.1,0.4,0.3,0.5c0.2,0.1,0.4,0.3,0.7,0.4
		c0.3,0.1,0.6,0.2,0.9,0.4c0.3,0.1,0.6,0.3,0.9,0.5c0.3,0.2,0.5,0.4,0.7,0.7c0.2,0.3,0.3,0.7,0.3,1.1c0,0.5,0,1.1-0.2,1.5
		c-0.2,0.5-0.5,0.9-0.8,1.3c-0.4,0.4-0.8,0.7-1.4,0.9c-0.6,0.2-1.2,0.4-1.9,0.4c-0.3,0-0.7,0-1,0c-0.3,0-0.6-0.1-0.8-0.1
		c-0.3-0.1-0.5-0.1-0.6-0.2c-0.2-0.1-0.3-0.2-0.4-0.2c-0.1-0.1-0.1-0.1-0.1-0.2c0-0.1,0-0.1-0.1-0.2c0-0.1,0-0.1,0-0.2
		c0-0.1,0-0.2,0-0.3c0-0.1,0-0.2,0.1-0.4c0-0.1,0.1-0.2,0.1-0.3c0-0.1,0.1-0.2,0.1-0.3c0-0.1,0.1-0.1,0.2-0.1c0.1,0,0.2,0,0.3,0.1
		c0.1,0.1,0.3,0.2,0.5,0.3c0.2,0.1,0.4,0.2,0.7,0.2s0.6,0.1,1.1,0.1c0.3,0,0.5-0.1,0.8-0.1c0.2-0.1,0.4-0.2,0.5-0.3
		c0.1-0.1,0.2-0.3,0.3-0.4c0.1-0.2,0.1-0.3,0.1-0.5c0-0.2-0.1-0.4-0.3-0.6c-0.2-0.1-0.4-0.3-0.7-0.4c-0.3-0.1-0.6-0.2-0.9-0.4
		c-0.3-0.1-0.6-0.3-0.9-0.5c-0.3-0.2-0.5-0.4-0.7-0.7c-0.2-0.3-0.3-0.7-0.3-1.1c0-0.5,0-1,0.2-1.4c0.2-0.4,0.4-0.8,0.8-1.2
		c0.3-0.4,0.8-0.6,1.3-0.8c0.5-0.2,1.1-0.3,1.8-0.4c0.3,0,0.6,0,0.9,0c0.3,0,0.5,0.1,0.8,0.1c0.2,0,0.4,0.1,0.6,0.2
		c0.2,0.1,0.3,0.1,0.4,0.2C281.4,17.8,281.5,17.9,281.5,18.1z"/>
	<path class="st3" d="M287.2,25.2c0,0.1,0,0.3,0,0.5c0,0.2,0,0.3-0.1,0.5c0,0.2-0.1,0.3-0.1,0.5c-0.1,0.2-0.1,0.3-0.2,0.4
		c-0.1,0.1-0.3,0.3-0.5,0.3c-0.2,0.1-0.5,0.1-0.8,0.2c-0.3,0-0.5,0-0.6,0c-0.2,0-0.3-0.1-0.4-0.2c-0.1-0.1-0.2-0.2-0.2-0.3
		c0-0.1-0.1-0.2-0.1-0.4c0-0.1,0-0.3,0-0.4c0-0.2,0-0.3,0.1-0.5c0-0.2,0.1-0.4,0.1-0.5c0.1-0.2,0.1-0.3,0.2-0.4
		c0.1-0.2,0.3-0.3,0.5-0.4c0.2-0.1,0.5-0.1,0.8-0.1c0.3,0,0.5,0,0.7,0c0.2,0,0.3,0.1,0.4,0.2c0.1,0.1,0.2,0.2,0.2,0.3
		C287.1,25,287.2,25.1,287.2,25.2z M287.2,22.7c0,0.1,0,0.1-0.1,0.2c-0.1,0.1-0.1,0.1-0.2,0.2c-0.1,0-0.2,0.1-0.4,0.1
		c-0.1,0-0.3,0.1-0.6,0.1c-0.2,0-0.4,0-0.6,0c-0.1,0-0.3,0-0.3-0.1c-0.1,0-0.1-0.1-0.2-0.1c0-0.1,0-0.1,0-0.2l1-9.8
		c0-0.1,0-0.2,0.1-0.3c0.1-0.1,0.1-0.1,0.3-0.2c0.1-0.1,0.3-0.1,0.5-0.1c0.2,0,0.4-0.1,0.7-0.1c0.3,0,0.5,0,0.7,0
		c0.2,0,0.3,0,0.4,0.1c0.1,0,0.2,0.1,0.2,0.2c0,0.1,0,0.2,0,0.2L287.2,22.7z"/>
</g>
</svg>
