<?xml version="1.0" encoding="UTF-8"?>
<!DOCTYPE svg PUBLIC "-//W3C//DTD SVG 1.1//EN" "http://www.w3.org/Graphics/SVG/1.1/DTD/svg11.dtd">
<!-- Creator: CorelDRAW X7 -->
<svg xmlns="http://www.w3.org/2000/svg" xml:space="preserve" width="64.594mm" height="9.2254mm" version="1.1" style="shape-rendering:geometricPrecision; text-rendering:geometricPrecision; image-rendering:optimizeQuality; fill-rule:evenodd; clip-rule:evenodd"
viewBox="0 0 15284 2183"
 xmlns:xlink="http://www.w3.org/1999/xlink">
 <defs>
  <style type="text/css">
   <![CDATA[
    .fil0 {fill:#FEFEFE}
    .fil1 {fill:#284B8C;fill-rule:nonzero}
   ]]>
  </style>
 </defs>
 <g id="__x0023_Layer_x0020_1">
  <metadata id="CorelCorpID_0Corel-Layer"/>
  <path class="fil0" d="M14834 1296c7,30 11,62 11,93 0,28 -3,56 -8,84 -4,24 -9,48 -14,66 -8,31 -18,60 -33,93 -17,36 -39,70 -66,99l-6 6 -6 6c-42,40 -92,69 -148,87 -49,16 -101,22 -153,22 -40,0 -79,-3 -118,-12 -53,-12 -102,-35 -144,-70l-5 -5c-22,-19 -41,-41 -57,-65 -7,8 -13,15 -21,22 -37,36 -82,60 -131,79 -35,13 -72,23 -108,31 -41,9 -81,15 -122,20 -46,6 -93,8 -139,8 -77,0 -155,-8 -230,-29 -57,-15 -110,-39 -159,-70 -24,19 -51,35 -79,48 -28,12 -57,22 -86,29 -27,7 -54,11 -81,15 -29,4 -58,5 -87,5 -58,0 -115,-6 -171,-21 -64,-18 -124,-49 -175,-93 -54,-47 -95,-107 -119,-175 -5,-14 -10,-28 -14,-42l-13 66c-11,58 -40,111 -75,146 -38,40 -85,68 -138,84 -29,9 -60,15 -90,18 -28,3 -57,4 -85,4 -29,0 -57,-1 -86,-4 -32,-4 -63,-10 -93,-21l-7 -2c-17,-6 -33,-14 -48,-23 -19,12 -40,21 -62,28 -53,18 -111,22 -167,22 -25,0 -50,-1 -75,-4 -32,-3 -65,-10 -95,-21 -7,2 -14,5 -22,7 -62,22 -127,33 -193,33 -87,0 -173,-16 -250,-57 -72,-38 -132,-91 -178,-158 -12,-19 -24,-39 -34,-60l-2 8c-11,58 -40,111 -75,146 -38,40 -85,68 -137,84 -30,9 -61,15 -91,18 -28,3 -57,4 -85,4 -29,0 -57,-1 -86,-4 -31,-4 -63,-10 -93,-21l-7 -2c-9,-3 -18,-7 -26,-11 -1,0 -3,1 -4,2 -28,12 -57,22 -86,29 -27,7 -54,11 -81,15 -29,4 -58,5 -87,5 -57,0 -115,-6 -171,-21 -64,-18 -124,-49 -175,-93 -9,-8 -18,-16 -27,-25 -58,45 -125,79 -195,102 -82,28 -167,39 -253,39 -43,0 -86,-3 -129,-10 -35,-5 -70,-12 -104,-22 -36,-10 -71,-23 -105,-41 -24,16 -51,28 -79,36 -29,9 -60,15 -90,18 -28,3 -57,4 -85,4 -29,0 -57,-1 -86,-4 -26,-3 -52,-8 -77,-15 -5,9 -10,19 -15,28 -42,75 -99,140 -169,191 -69,51 -148,86 -232,108 -85,22 -174,30 -262,30 -65,0 -132,-5 -196,-18 -58,-11 -115,-28 -168,-53 -57,-26 -105,-68 -137,-122 -29,-50 -42,-105 -42,-162 0,-3 0,-6 0,-10 -18,6 -37,10 -55,14 -40,9 -81,15 -122,20 -46,6 -92,8 -139,8 -77,0 -155,-8 -229,-29 -49,-13 -95,-32 -139,-57 -33,25 -71,43 -113,54 -31,8 -62,12 -94,14 -30,2 -60,3 -89,3 -30,0 -60,-1 -90,-4 -37,-4 -72,-11 -107,-24 -48,-19 -90,-49 -122,-87 -5,5 -9,10 -14,15l-6 6c-36,34 -80,58 -127,72l-6 2c-28,8 -58,13 -87,16 -29,3 -58,4 -87,4 -28,0 -57,-1 -86,-4 -31,-3 -62,-9 -91,-19l-10 -3c-60,-22 -111,-61 -147,-114 -44,-66 -58,-146 -41,-223l221 -1101c17,-92 64,-174 142,-229 63,-44 137,-67 214,-67l328 0c72,0 144,7 215,23 74,17 144,45 207,87 69,46 124,107 163,180 13,25 24,50 32,77 20,-10 41,-19 63,-27 86,-33 178,-46 270,-46 78,0 157,9 231,33 69,23 134,57 190,104 10,9 20,18 29,27 53,-46 112,-84 177,-113 81,-35 168,-51 257,-51 70,0 140,12 205,37 0,0 1,0 1,0 54,-18 111,-22 166,-22 28,0 55,1 82,5 7,1 14,2 21,3 2,-14 4,-27 7,-40 8,-41 20,-81 40,-123 24,-50 59,-94 103,-129 45,-36 97,-61 147,-72 44,-11 88,-15 133,-15 45,0 91,4 129,15 68,16 129,52 179,109 46,55 71,122 75,194 2,19 1,38 0,57 58,-13 118,-19 178,-19 38,0 76,2 114,8 34,4 68,11 101,20 20,6 40,12 59,20 1,0 1,-1 1,-1l1 -4c12,-54 38,-103 75,-143 35,-37 78,-64 126,-81 32,-12 66,-19 100,-22 28,-3 57,-4 85,-4 29,0 57,1 85,4 39,4 77,12 113,28 58,25 106,65 139,118l6 10 5 10c13,26 22,54 27,83 1,0 2,1 3,1 7,-3 15,-6 22,-8 29,-10 58,-16 88,-20 26,-3 53,-4 80,-4 28,0 55,1 83,5 22,3 44,7 66,14 1,-1 3,-1 4,-2 54,-21 110,-32 168,-32 21,0 42,1 63,4 15,2 29,4 43,7l8 2c20,4 40,10 59,18l8 3 8 3c24,11 47,24 67,40 17,-9 33,-17 50,-25 82,-36 170,-52 260,-52 70,0 140,12 205,37 1,0 1,0 1,0 54,-18 111,-22 166,-22 28,0 55,1 82,5 33,4 65,11 95,24 14,6 28,12 41,20 17,-10 36,-19 55,-25 29,-10 58,-16 87,-20 27,-3 54,-4 81,-4 28,0 55,1 83,5 22,3 44,7 66,14 1,-1 2,-1 4,-2 53,-21 110,-32 168,-32 21,0 42,1 63,4 7,1 15,2 22,3 14,-40 36,-76 65,-107 35,-37 78,-64 126,-81 32,-12 65,-19 99,-22 29,-3 58,-4 86,-4 29,0 57,1 85,4 39,4 77,12 113,28 57,25 106,65 139,118l6 10 5 10c13,26 22,54 27,83 27,12 52,28 75,48 32,-19 67,-34 102,-48 87,-33 179,-46 271,-46 78,0 156,9 230,33 38,13 75,28 109,48 1,-14 2,-27 4,-40 2,-21 6,-42 10,-63l1 -6c6,-25 13,-50 22,-74 16,-46 41,-88 75,-124l4 -4 4 -4c34,-32 73,-55 114,-74 34,-16 70,-28 105,-38 37,-10 74,-17 111,-23 41,-6 82,-10 123,-10 63,0 127,6 188,20 57,13 113,33 164,61 50,28 96,63 135,105 36,38 65,81 88,128 23,45 39,93 49,143 8,41 12,83 12,126 0,75 -11,148 -33,220 -24,80 -63,154 -115,219 -55,68 -123,122 -199,163 -26,14 -52,26 -79,36l-6 25 -1 5c-5,16 -10,31 -17,45zm-13578 -826c0,18 -3,41 -9,71 -6,30 -14,54 -23,71 -9,18 -19,27 -31,27 -8,0 -18,-5 -29,-15 -11,-11 -26,-22 -44,-34 -18,-12 -42,-23 -70,-33 -28,-11 -64,-16 -105,-16 -47,0 -90,9 -128,27 -38,19 -73,44 -103,74 -30,30 -56,66 -79,105 -23,40 -41,81 -56,124 -15,42 -26,85 -33,127 -8,43 -11,82 -11,119 0,43 5,82 16,115 12,34 27,61 48,83 21,22 46,39 77,50 30,11 64,16 102,16 44,0 83,-5 114,-14 32,-9 59,-20 82,-31 22,-11 40,-22 55,-31 15,-10 28,-15 40,-15 8,0 14,3 16,9 3,6 4,15 4,26 0,4 0,11 -1,19 -2,9 -3,19 -5,30 -2,11 -4,23 -7,36 -2,13 -5,25 -8,36 -3,11 -7,21 -11,30 -4,9 -10,17 -17,24 -7,7 -20,16 -40,27 -20,11 -45,21 -73,31 -29,9 -62,17 -99,24 -36,7 -75,10 -117,10 -68,0 -130,-9 -185,-28 -55,-18 -101,-45 -140,-83 -38,-37 -68,-83 -88,-139 -21,-56 -32,-121 -32,-196 0,-59 6,-119 18,-183 12,-63 30,-125 55,-185 24,-60 54,-117 92,-172 37,-54 80,-101 131,-142 51,-40 108,-72 173,-96 64,-24 135,-36 214,-36 44,0 86,5 125,14 39,9 74,21 103,36 29,15 50,29 61,41 12,12 18,28 18,47zm887 512c0,45 -4,91 -12,139 -9,48 -22,95 -40,140 -19,46 -42,89 -71,129 -28,40 -63,75 -103,105 -40,31 -85,55 -137,72 -51,18 -109,27 -174,27 -64,0 -119,-8 -165,-22 -47,-15 -85,-37 -116,-66 -31,-28 -54,-63 -69,-105 -15,-42 -23,-90 -23,-144 0,-45 5,-92 13,-140 9,-47 22,-94 40,-139 19,-45 42,-88 71,-129 28,-40 63,-76 102,-106 41,-30 86,-54 138,-71 52,-18 110,-27 175,-27 63,0 118,8 164,22 47,15 85,37 116,65 31,29 54,64 69,106 15,42 22,90 22,144zm-245 16c0,-26 -3,-50 -8,-70 -5,-20 -14,-38 -26,-52 -13,-14 -28,-25 -47,-32 -20,-8 -43,-11 -71,-11 -32,0 -60,6 -85,18 -25,12 -48,29 -68,49 -19,21 -36,45 -51,73 -14,27 -27,56 -36,86 -9,30 -16,60 -21,92 -4,31 -6,60 -6,89 0,26 2,49 8,70 5,21 14,38 26,53 13,14 29,24 48,32 19,7 42,11 70,11 32,0 60,-6 85,-18 25,-12 48,-29 67,-50 20,-21 37,-45 52,-72 14,-28 26,-57 36,-87 9,-31 16,-61 21,-92 4,-31 6,-60 6,-89zm1657 543c-1,6 -4,11 -9,16 -4,5 -12,9 -22,12 -10,3 -23,5 -39,7 -16,2 -35,2 -59,2 -22,0 -41,0 -55,-2 -15,-2 -26,-4 -34,-7 -9,-3 -14,-7 -17,-12 -3,-5 -3,-10 -1,-16l98 -506c3,-14 5,-29 7,-43 2,-14 3,-28 3,-43 0,-30 -6,-53 -17,-72 -10,-18 -30,-27 -58,-27 -25,0 -51,8 -78,24 -27,17 -53,39 -78,67 -24,28 -46,61 -66,99 -19,37 -32,77 -40,119l-77 382c-2,6 -5,11 -9,16 -5,5 -12,9 -23,12 -10,3 -23,5 -38,7 -15,2 -35,2 -58,2 -23,0 -41,0 -56,-2 -15,-2 -26,-4 -34,-7 -8,-3 -14,-7 -17,-12 -3,-5 -3,-10 -2,-16l100 -506c4,-14 7,-29 8,-45 2,-15 3,-30 3,-44 0,-28 -6,-51 -17,-69 -12,-18 -31,-27 -59,-27 -25,0 -52,8 -79,24 -27,17 -53,39 -78,67 -24,28 -47,61 -66,99 -19,37 -32,77 -41,119l-75 382c-2,6 -5,11 -9,16 -5,5 -12,9 -22,12 -10,3 -23,5 -39,7 -15,2 -35,2 -58,2 -23,0 -42,0 -56,-2 -15,-2 -26,-4 -35,-7 -8,-3 -14,-7 -16,-12 -3,-5 -3,-10 -2,-16l168 -844c1,-6 4,-11 8,-16 4,-5 10,-9 19,-11 8,-3 19,-6 33,-7 13,-2 29,-2 48,-2 20,0 36,0 48,2 12,1 22,4 29,7 7,2 11,6 14,11 2,5 2,10 1,16l-27 139c13,-22 30,-44 53,-67 22,-23 46,-44 74,-62 28,-18 59,-33 92,-44 33,-12 67,-18 102,-18 37,0 69,5 95,15 27,9 49,23 66,40 18,18 31,38 40,61 9,23 15,48 18,75 14,-22 32,-45 55,-68 22,-22 47,-43 75,-61 28,-18 58,-33 91,-44 33,-12 66,-18 101,-18 44,0 80,6 110,18 30,13 54,30 72,51 19,22 32,47 40,77 8,29 12,60 12,95 0,22 -1,44 -4,66 -2,22 -6,45 -11,68l-102 521zm1160 -559c0,45 -4,91 -13,139 -8,48 -22,95 -40,140 -18,46 -41,89 -70,129 -29,40 -63,75 -103,105 -40,31 -86,55 -137,72 -52,18 -110,27 -175,27 -63,0 -118,-8 -165,-22 -46,-15 -84,-37 -115,-66 -31,-28 -54,-63 -70,-105 -15,-42 -22,-90 -22,-144 0,-45 4,-92 13,-140 8,-47 22,-94 40,-139 18,-45 42,-88 70,-129 29,-40 63,-76 103,-106 40,-30 86,-54 138,-71 51,-18 109,-27 174,-27 64,0 119,8 165,22 46,15 85,37 116,65 30,29 53,64 68,106 16,42 23,90 23,144zm-245 16c0,-26 -3,-50 -8,-70 -6,-20 -15,-38 -27,-52 -12,-14 -28,-25 -47,-32 -19,-8 -43,-11 -70,-11 -32,0 -60,6 -85,18 -26,12 -48,29 -68,49 -20,21 -37,45 -51,73 -15,27 -27,56 -36,86 -10,30 -17,60 -21,92 -4,31 -7,60 -7,89 0,26 3,49 8,70 6,21 15,38 27,53 12,14 28,24 47,32 19,7 43,11 71,11 31,0 60,-6 85,-18 25,-12 47,-29 67,-50 20,-21 37,-45 52,-72 14,-28 26,-57 35,-87 10,-31 17,-61 21,-92 4,-31 7,-60 7,-89zm1807 -380c0,40 -6,80 -17,120 -11,39 -28,77 -52,112 -24,36 -55,68 -93,96 -38,28 -85,51 -140,68 31,12 56,36 77,71 21,35 38,84 51,146l48 247c3,14 5,27 7,38 2,10 3,20 3,28 0,6 -2,11 -6,15 -4,5 -12,8 -23,11 -11,3 -25,5 -44,6 -19,2 -43,2 -71,2 -26,0 -47,0 -63,-2 -16,-2 -28,-4 -37,-8 -9,-3 -14,-8 -17,-13 -3,-6 -5,-12 -6,-20l-47 -271c-5,-31 -12,-59 -20,-82 -9,-24 -20,-44 -33,-60 -13,-16 -30,-28 -49,-36 -20,-8 -43,-12 -69,-12l-79 0 -92 466c-1,6 -5,12 -10,17 -5,5 -13,9 -23,12 -10,3 -24,5 -40,7 -17,2 -37,2 -61,2 -24,0 -43,0 -58,-2 -16,-2 -28,-4 -37,-7 -8,-3 -14,-7 -17,-12 -4,-5 -4,-11 -2,-17l222 -1110c5,-28 16,-48 33,-60 18,-12 38,-19 61,-19l328 0c57,0 109,6 155,17 46,10 86,27 119,49 33,22 58,49 75,83 18,33 27,73 27,118zm-267 46c0,-18 -3,-34 -9,-49 -6,-16 -15,-28 -29,-40 -13,-11 -30,-19 -51,-25 -21,-6 -47,-9 -76,-9l-141 0 -70 348 119 0c47,0 87,-7 120,-21 33,-13 59,-31 80,-53 19,-21 34,-45 43,-71 10,-26 14,-53 14,-80zm1168 220c0,45 -11,86 -31,122 -20,36 -52,67 -95,93 -43,27 -97,47 -164,60 -66,14 -145,21 -236,21l-87 0c-2,15 -4,29 -5,43 -2,14 -2,27 -2,39 0,51 13,90 39,115 26,26 68,39 127,39 41,0 78,-3 111,-9 33,-6 62,-13 87,-20 25,-7 45,-14 62,-20 16,-6 28,-9 36,-9 7,0 13,2 16,6 3,5 5,12 5,21 0,11 -1,23 -3,37 -2,14 -5,28 -8,41 -4,14 -8,26 -14,38 -5,12 -11,21 -18,28 -7,7 -21,15 -41,22 -20,8 -45,15 -73,21 -28,6 -60,11 -95,16 -36,4 -71,6 -108,6 -60,0 -113,-7 -158,-19 -45,-13 -82,-32 -113,-58 -30,-25 -52,-58 -68,-98 -15,-40 -22,-87 -22,-142 0,-42 4,-87 12,-135 8,-49 20,-96 38,-143 18,-47 40,-91 68,-134 27,-43 61,-80 100,-113 40,-32 85,-58 137,-78 51,-19 110,-29 176,-29 57,0 107,7 147,20 42,14 75,32 102,54 26,22 46,48 58,77 13,28 20,58 20,88zm-234 17c0,-25 -10,-46 -29,-63 -20,-16 -48,-25 -85,-25 -32,0 -60,6 -85,17 -25,12 -46,27 -65,46 -19,19 -35,42 -49,68 -13,26 -24,54 -32,84l79 0c50,0 92,-4 125,-10 34,-7 61,-16 82,-27 21,-12 35,-25 45,-40 9,-16 14,-32 14,-50zm1080 673c-12,57 -29,107 -53,150 -24,42 -55,77 -94,106 -39,29 -86,50 -142,65 -56,14 -121,21 -195,21 -53,0 -101,-4 -144,-12 -42,-9 -78,-19 -107,-33 -9,-5 -17,-10 -20,-16 -4,-7 -6,-16 -6,-27 0,-4 0,-10 1,-19 1,-9 2,-18 4,-29 2,-10 5,-21 8,-33 4,-12 8,-22 12,-31 5,-9 10,-17 16,-22 6,-7 13,-9 20,-9 8,0 17,2 28,8 11,5 25,11 44,17 18,6 41,12 68,17 27,5 60,8 100,8 32,0 60,-3 86,-8 25,-5 47,-13 66,-24 19,-12 34,-26 46,-44 12,-18 20,-39 25,-65 8,-41 16,-75 24,-103 9,-28 17,-50 24,-68 -12,21 -28,41 -49,62 -21,20 -45,39 -72,55 -27,16 -56,29 -87,39 -32,10 -63,15 -94,15 -49,0 -90,-8 -123,-25 -33,-16 -60,-39 -81,-68 -20,-29 -35,-62 -44,-101 -10,-39 -14,-82 -14,-127 0,-41 4,-85 11,-132 8,-47 19,-94 36,-140 16,-47 36,-91 60,-134 25,-43 55,-81 89,-114 34,-33 73,-59 118,-79 44,-19 94,-29 150,-29 52,0 98,11 138,33 40,21 75,53 105,94l15 -75c3,-13 13,-22 30,-28 18,-6 46,-8 84,-8 19,0 35,0 47,2 13,1 23,4 30,7 7,2 12,6 14,11 3,5 3,10 2,16l-176 877zm-110 -624c-22,-35 -46,-61 -73,-78 -26,-17 -57,-26 -92,-26 -27,0 -51,6 -73,19 -22,13 -41,29 -59,50 -17,22 -32,46 -45,73 -13,28 -24,57 -33,87 -8,30 -14,61 -19,90 -4,31 -6,59 -6,86 0,22 2,41 6,59 4,17 10,32 18,44 8,13 18,22 30,29 13,7 28,10 46,10 28,0 56,-9 85,-25 29,-17 56,-39 82,-68 25,-29 47,-62 66,-100 20,-38 33,-79 42,-123l25 -127zm838 -536c-4,23 -10,43 -18,59 -7,16 -17,29 -30,39 -13,10 -28,17 -47,21 -18,4 -41,6 -68,6 -27,0 -48,-2 -65,-6 -16,-4 -29,-11 -37,-21 -9,-10 -13,-23 -15,-39 -1,-16 1,-36 6,-59 5,-22 10,-42 18,-57 7,-16 18,-29 30,-39 13,-10 28,-17 46,-22 18,-4 41,-6 68,-6 26,0 48,2 65,6 17,5 30,12 38,22 9,10 14,23 15,39 1,15 -1,35 -6,57zm-244 1127c-1,6 -4,11 -9,16 -5,5 -12,9 -22,12 -10,3 -22,5 -38,7 -16,2 -35,2 -58,2 -23,0 -42,0 -57,-2 -14,-2 -26,-4 -34,-7 -9,-3 -14,-7 -17,-12 -2,-5 -3,-10 -2,-16l166 -841c2,-6 5,-11 9,-16 5,-5 12,-9 22,-12 10,-4 23,-7 38,-9 15,-1 35,-2 58,-2 23,0 42,1 57,2 15,2 26,5 35,9 8,3 14,7 17,12 2,5 3,10 1,16l-166 841zm930 -806c0,8 -1,19 -4,34 -2,15 -5,29 -9,45 -5,15 -10,28 -16,39 -5,11 -12,16 -20,16 -8,0 -17,-3 -28,-9 -11,-6 -25,-12 -41,-19 -15,-7 -34,-14 -55,-19 -21,-6 -45,-9 -74,-9 -22,0 -41,3 -58,9 -18,5 -32,13 -43,23 -11,9 -20,21 -26,34 -6,13 -9,27 -9,42 0,20 8,36 24,49 16,14 36,26 60,38 24,11 49,24 77,36 27,13 53,28 77,47 24,19 44,42 59,69 16,27 24,61 24,102 0,48 -9,92 -28,132 -18,41 -44,76 -79,105 -35,30 -77,53 -127,70 -50,16 -107,25 -169,25 -31,0 -60,-3 -87,-7 -27,-4 -52,-9 -74,-15 -21,-7 -40,-14 -55,-22 -15,-8 -26,-15 -34,-22 -5,-5 -8,-10 -11,-16 -2,-6 -3,-13 -3,-22 0,-5 1,-13 2,-21 1,-9 2,-19 4,-30 3,-10 5,-21 8,-32 3,-11 6,-21 10,-29 4,-9 7,-16 12,-22 4,-5 9,-8 14,-8 9,0 19,4 29,12 11,7 25,15 42,25 17,9 38,17 63,25 25,8 56,12 93,12 25,0 48,-3 67,-9 19,-6 34,-15 47,-25 12,-11 21,-24 27,-37 6,-14 9,-29 9,-45 0,-22 -7,-40 -23,-54 -15,-13 -34,-26 -58,-38 -23,-12 -48,-24 -75,-37 -28,-12 -53,-28 -76,-46 -23,-18 -42,-41 -58,-68 -15,-27 -23,-61 -23,-102 0,-45 9,-86 26,-124 17,-39 42,-72 74,-101 33,-28 73,-51 119,-67 47,-16 100,-24 159,-24 26,0 52,2 77,5 24,4 47,8 67,14 20,5 37,12 51,18 15,7 26,14 32,21 6,6 10,17 10,32zm707 -28c0,6 0,14 -2,24 -1,10 -2,21 -5,32 -2,11 -5,23 -9,34 -3,11 -8,22 -12,31 -5,9 -10,16 -16,23 -6,6 -13,9 -20,9l-183 0 -80 395c-2,9 -4,20 -5,33 -2,13 -2,24 -2,32 0,25 5,44 17,55 12,12 31,18 57,18 15,0 28,-1 39,-3 11,-3 20,-5 28,-8 8,-3 14,-5 20,-8 6,-2 11,-3 16,-3 5,0 10,2 13,7 4,5 5,13 5,23 0,12 -1,26 -4,41 -2,15 -5,30 -10,44 -3,14 -8,27 -13,39 -5,11 -11,20 -16,25 -6,6 -15,11 -26,16 -11,6 -25,10 -40,14 -16,3 -32,6 -50,9 -17,2 -35,3 -53,3 -38,0 -71,-4 -99,-12 -29,-8 -53,-20 -72,-37 -20,-17 -34,-39 -44,-65 -10,-27 -15,-59 -15,-97 0,-7 1,-15 1,-24 1,-9 2,-19 4,-29 1,-10 3,-20 4,-31 2,-10 4,-19 5,-27l83 -410 -102 0c-9,0 -15,-3 -18,-9 -4,-5 -6,-15 -6,-30 0,-11 1,-25 3,-42 2,-18 6,-35 11,-51 5,-17 12,-32 20,-44 8,-12 18,-18 29,-18l102 0 38 -188c1,-6 4,-12 9,-17 4,-5 11,-9 21,-13 10,-3 22,-6 38,-7 15,-2 34,-3 57,-3 23,0 42,1 57,3 16,1 27,4 36,7 8,4 14,8 17,13 2,5 3,11 2,17l-38 188 181 0c11,0 18,4 22,11 3,7 5,17 5,30zm707 -21c0,4 -1,12 -2,23 -1,11 -3,25 -5,40 -3,15 -6,30 -10,46 -4,16 -8,31 -13,45 -5,14 -10,25 -16,34 -6,9 -12,13 -19,13 -6,0 -12,-1 -17,-3 -6,-3 -12,-4 -19,-7 -7,-2 -15,-4 -23,-6 -8,-3 -17,-4 -28,-4 -21,0 -44,8 -68,25 -24,16 -47,38 -69,64 -22,27 -42,58 -59,94 -17,36 -29,73 -37,112l-76 379c-1,6 -4,11 -9,16 -4,5 -12,9 -22,12 -9,3 -22,5 -38,7 -16,2 -35,2 -58,2 -23,0 -42,0 -57,-2 -14,-2 -26,-4 -34,-7 -9,-3 -14,-7 -17,-12 -2,-5 -3,-10 -2,-16l169 -844c1,-6 4,-11 8,-16 4,-5 11,-9 19,-11 9,-3 20,-6 33,-7 13,-2 29,-2 48,-2 20,0 35,0 48,2 12,1 22,4 28,7 7,2 12,6 14,11 2,5 3,10 1,16l-25 135c15,-28 33,-52 52,-75 20,-22 41,-42 63,-59 23,-17 45,-29 69,-39 24,-9 48,-14 71,-14 9,0 19,1 28,2 10,1 19,3 28,5 8,1 16,4 23,7 6,3 12,5 15,9 4,4 6,9 6,18zm763 856c-2,13 -12,22 -30,28 -17,5 -45,8 -84,8 -19,0 -35,0 -47,-2 -12,-1 -22,-3 -30,-6 -7,-3 -12,-6 -14,-11 -2,-5 -3,-11 -2,-17l27 -136c-10,21 -25,42 -46,64 -20,22 -45,43 -73,61 -28,18 -60,33 -94,45 -34,12 -70,18 -106,18 -51,0 -92,-9 -126,-27 -33,-17 -60,-41 -80,-71 -20,-30 -35,-64 -43,-102 -9,-39 -13,-79 -13,-121 0,-40 4,-83 11,-129 8,-47 19,-94 35,-140 16,-47 36,-92 60,-135 25,-43 55,-81 89,-114 34,-34 73,-60 118,-80 44,-20 95,-30 151,-30 52,0 98,11 138,33 40,21 75,53 105,94l15 -75c3,-13 13,-22 30,-28 18,-6 46,-8 84,-8 19,0 35,0 47,2 13,1 23,4 30,7 7,2 12,6 14,11 3,5 3,10 2,16l-168 845zm-118 -592c-22,-34 -46,-59 -73,-76 -26,-17 -57,-26 -92,-26 -27,0 -52,6 -73,19 -23,12 -42,29 -59,50 -17,21 -33,46 -45,73 -13,28 -24,56 -33,86 -8,30 -14,60 -19,90 -4,31 -6,59 -6,85 0,19 2,37 4,53 3,17 9,32 16,46 8,13 18,23 31,31 13,8 29,12 49,12 27,0 56,-9 85,-25 29,-17 56,-40 81,-68 25,-29 48,-62 67,-100 19,-38 33,-79 42,-122l25 -128zm1055 -264c0,4 -1,12 -2,23 -1,11 -3,25 -6,40 -2,15 -5,30 -9,46 -4,16 -8,31 -13,45 -5,14 -10,25 -16,34 -6,9 -12,13 -19,13 -6,0 -12,-1 -17,-3 -6,-3 -12,-4 -19,-7 -7,-2 -15,-4 -23,-6 -8,-3 -18,-4 -28,-4 -21,0 -44,8 -68,25 -25,16 -47,38 -69,64 -22,27 -42,58 -59,94 -17,36 -30,73 -37,112l-76 379c-1,6 -4,11 -9,16 -5,5 -12,9 -22,12 -10,3 -22,5 -38,7 -16,2 -35,2 -58,2 -23,0 -42,0 -57,-2 -14,-2 -26,-4 -34,-7 -9,-3 -14,-7 -17,-12 -2,-5 -3,-10 -2,-16l168 -844c2,-6 5,-11 9,-16 4,-5 11,-9 19,-11 9,-3 19,-6 33,-7 13,-2 29,-2 48,-2 20,0 35,0 48,2 12,1 22,4 28,7 7,2 12,6 14,11 2,5 3,10 1,16l-25 135c15,-28 33,-52 52,-75 20,-22 41,-42 63,-59 22,-17 45,-29 69,-39 24,-9 47,-14 71,-14 9,0 19,1 28,2 10,1 19,3 28,5 8,1 16,4 23,7 6,3 11,5 15,9 4,4 6,9 6,18zm643 21c0,6 0,14 -2,24 -1,10 -3,21 -5,32 -2,11 -5,23 -9,34 -3,11 -8,22 -12,31 -5,9 -10,16 -17,23 -5,6 -12,9 -19,9l-183 0 -80 395c-2,9 -4,20 -5,33 -2,13 -3,24 -3,32 0,25 6,44 18,55 12,12 31,18 56,18 16,0 29,-1 39,-3 11,-3 21,-5 28,-8 8,-3 15,-5 21,-8 5,-2 11,-3 16,-3 5,0 9,2 13,7 4,5 5,13 5,23 0,12 -1,26 -4,41 -2,15 -6,30 -10,44 -4,14 -8,27 -13,39 -5,11 -11,20 -16,25 -6,6 -15,11 -26,16 -11,6 -25,10 -40,14 -16,3 -32,6 -50,9 -18,2 -35,3 -53,3 -38,0 -71,-4 -100,-12 -28,-8 -52,-20 -71,-37 -20,-17 -35,-39 -44,-65 -10,-27 -15,-59 -15,-97 0,-7 0,-15 1,-24 1,-9 2,-19 4,-29 1,-10 2,-20 4,-31 2,-10 4,-19 5,-27l83 -410 -102 0c-9,0 -15,-3 -19,-9 -3,-5 -5,-15 -5,-30 0,-11 1,-25 3,-42 2,-18 6,-35 11,-51 5,-17 11,-32 20,-44 8,-12 18,-18 29,-18l102 0 38 -188c1,-6 4,-12 9,-17 4,-5 11,-9 21,-13 10,-3 22,-6 38,-7 15,-2 34,-3 57,-3 23,0 42,1 57,3 16,1 27,4 36,7 8,4 13,8 16,13 3,5 4,11 3,17l-38 188 181 0c11,0 18,4 21,11 4,7 6,17 6,30zm867 177c0,45 -10,86 -30,122 -20,36 -52,67 -95,93 -43,27 -98,47 -164,60 -66,14 -145,21 -237,21l-86 0c-3,15 -5,29 -6,43 -1,14 -2,27 -2,39 0,51 13,90 40,115 26,26 68,39 126,39 42,0 79,-3 112,-9 33,-6 62,-13 87,-20 25,-7 45,-14 62,-20 16,-6 28,-9 36,-9 7,0 13,2 15,6 4,5 5,12 5,21 0,11 -1,23 -3,37 -2,14 -4,28 -8,41 -3,14 -7,26 -13,38 -5,12 -11,21 -18,28 -8,7 -22,15 -42,22 -20,8 -44,15 -72,21 -29,6 -60,11 -96,16 -35,4 -71,6 -107,6 -61,0 -113,-7 -158,-19 -45,-13 -83,-32 -113,-58 -30,-25 -53,-58 -68,-98 -15,-40 -22,-87 -22,-142 0,-42 3,-87 12,-135 7,-49 20,-96 37,-143 18,-47 41,-91 68,-134 28,-43 62,-80 101,-113 40,-32 85,-58 136,-78 52,-19 111,-29 177,-29 57,0 106,7 147,20 41,14 75,32 101,54 27,22 46,48 59,77 13,28 19,58 19,88zm-233 17c0,-25 -10,-46 -30,-63 -19,-16 -48,-25 -85,-25 -31,0 -59,6 -84,17 -25,12 -47,27 -65,46 -19,19 -36,42 -49,68 -13,26 -24,54 -32,84l78 0c50,0 92,-4 126,-10 34,-7 61,-16 82,-27 20,-12 35,-25 44,-40 10,-16 15,-32 15,-50zm1188 -318c0,49 -7,97 -21,144 -14,47 -37,90 -67,128 -31,38 -71,70 -119,96 -48,25 -105,41 -173,48l-43 180c-3,12 -14,20 -32,26 -19,5 -45,8 -79,8 -20,0 -37,0 -51,-1 -13,-1 -24,-3 -32,-6 -8,-2 -14,-5 -17,-10 -2,-4 -3,-10 -1,-17l35 -223c3,-20 7,-36 12,-49 6,-12 12,-22 20,-30 9,-7 18,-12 28,-15 11,-3 22,-4 36,-4l7 0c46,0 84,-8 116,-24 31,-15 56,-34 75,-57 19,-24 32,-49 41,-77 8,-28 12,-55 12,-80 0,-24 -3,-45 -11,-65 -6,-20 -17,-38 -31,-53 -15,-14 -33,-26 -54,-34 -22,-8 -47,-12 -76,-12 -34,0 -64,3 -90,10 -26,7 -48,15 -67,23 -19,9 -35,17 -47,24 -13,7 -22,11 -29,11 -6,0 -11,-4 -14,-10 -3,-7 -4,-18 -4,-33 0,-6 1,-16 2,-29 2,-14 4,-28 7,-43 4,-14 7,-28 12,-41 5,-14 11,-24 18,-31 7,-7 21,-15 39,-24 19,-8 41,-16 66,-23 25,-7 52,-13 80,-17 29,-4 56,-7 83,-7 48,0 91,5 128,13 36,9 68,21 95,35 27,16 50,33 69,54 19,19 34,41 45,65 12,23 20,48 25,74 5,25 7,50 7,76zm-438 806c0,11 -2,24 -4,40 -3,15 -6,30 -10,45 -4,16 -10,30 -16,44 -6,13 -13,24 -21,32 -12,12 -28,21 -46,27 -18,6 -42,9 -71,9 -23,0 -41,-2 -56,-5 -15,-4 -27,-9 -35,-16 -8,-7 -14,-15 -17,-25 -3,-9 -5,-21 -5,-33 0,-10 1,-23 3,-38 2,-14 5,-29 10,-45 4,-16 9,-31 15,-45 6,-14 13,-25 22,-34 14,-14 30,-24 49,-29 18,-6 40,-8 67,-8 24,0 44,2 59,6 15,4 27,10 35,17 8,7 14,16 16,26 3,10 5,21 5,32zm-10743 -831c12,-10 23,-19 35,-28 64,-48 135,-85 211,-110 84,-29 173,-41 261,-41 83,0 167,9 246,35 80,25 154,66 216,123 63,58 109,130 138,210 27,76 38,155 38,235 0,62 -6,125 -17,186 -11,66 -30,131 -55,193 -26,65 -60,127 -101,184 -44,61 -97,116 -157,162 -64,49 -136,86 -213,112 -84,29 -172,41 -261,41 -83,0 -166,-9 -246,-35 -66,-21 -128,-52 -182,-95 -5,5 -9,11 -14,15 -38,38 -84,64 -134,79 -29,9 -59,14 -89,17 -28,3 -57,4 -86,4 -28,0 -56,-1 -84,-4 -33,-4 -66,-10 -97,-22l-7 -2c-28,-12 -54,-26 -77,-45 -31,24 -65,41 -103,52 -28,9 -58,14 -88,17 -28,3 -57,4 -85,4 -28,0 -57,-1 -85,-4 -32,-4 -63,-10 -93,-21l-6 -1 -5 -3c-28,-11 -53,-25 -77,-43 -29,22 -63,39 -99,50 -29,9 -60,15 -91,18 -28,3 -56,4 -85,4 -28,0 -57,-1 -85,-4 -32,-4 -64,-10 -94,-21l-7 -2c-46,-18 -87,-46 -119,-82 -54,35 -112,62 -172,83 -84,29 -173,41 -261,41 -83,0 -167,-9 -246,-35 -67,-21 -128,-52 -182,-94 -16,10 -33,20 -50,30 -37,20 -77,36 -118,50 -44,14 -89,25 -134,33 -54,10 -109,14 -165,14 -91,0 -182,-12 -269,-41 -91,-30 -173,-78 -241,-145 -69,-66 -120,-148 -153,-238 -34,-92 -48,-190 -48,-288 0,-78 8,-156 23,-232 15,-80 38,-159 68,-235 32,-79 72,-154 120,-223 52,-76 113,-143 185,-200 74,-59 157,-105 246,-138 99,-36 202,-52 307,-52 63,0 125,6 186,21 57,13 112,32 164,59 49,25 95,54 133,94 47,50 76,111 86,177 82,-27 168,-38 254,-38 83,0 166,9 245,35 69,21 132,54 188,98 1,-2 3,-4 5,-6 36,-42 83,-71 135,-89 28,-9 57,-15 86,-19 27,-3 54,-4 80,-4 28,0 56,1 83,5 30,4 60,10 88,21 8,-3 16,-6 25,-9 61,-21 125,-32 190,-32 63,0 126,9 186,30 28,10 55,23 81,38 27,-13 55,-25 84,-36 61,-21 125,-32 190,-32 72,0 144,10 212,38 67,28 127,70 174,126 4,5 8,10 12,15zm-2845 476c12,-53 28,-105 48,-155 2,-5 4,-9 6,-14 -22,-12 -41,-27 -60,-44 -3,-3 -7,-6 -9,-7 -6,-3 -13,-6 -12,-6 -6,-1 -14,-1 -19,-1 -3,0 -10,0 -12,1 -11,6 -21,13 -29,22 -15,14 -27,31 -38,50 -14,25 -26,50 -35,78 -10,28 -18,56 -23,85 -4,23 -6,48 -7,71 6,0 12,-1 16,-3 12,-3 25,-7 37,-13 11,-6 22,-12 32,-18 33,-21 68,-37 105,-46z"/>
  <path class="fil1" d="M1256 470c0,18 -3,41 -9,71 -6,30 -14,54 -23,71 -9,18 -19,27 -30,27 -9,0 -18,-5 -30,-15 -11,-11 -26,-22 -44,-34 -18,-12 -42,-23 -70,-33 -28,-11 -64,-16 -105,-16 -47,0 -90,9 -128,27 -38,19 -73,44 -103,74 -30,30 -56,66 -79,105 -23,40 -41,81 -56,124 -15,42 -26,85 -33,127 -7,43 -11,82 -11,119 0,43 5,82 16,115 12,34 27,61 48,83 21,22 46,39 77,50 30,11 64,16 102,16 44,0 83,-5 114,-14 32,-9 59,-20 82,-31 22,-11 40,-22 55,-31 15,-10 28,-15 40,-15 8,0 14,3 16,9 3,6 5,15 5,26 0,4 -1,10 -2,19 -2,9 -3,19 -5,30 -2,11 -4,23 -7,36 -2,13 -5,25 -8,36 -3,11 -7,21 -11,30 -4,9 -10,17 -16,24 -8,7 -21,16 -41,27 -20,11 -45,21 -73,31 -29,9 -62,17 -99,24 -36,7 -75,10 -117,10 -68,0 -130,-9 -185,-28 -55,-18 -101,-45 -140,-83 -38,-37 -68,-83 -88,-139 -21,-56 -32,-121 -32,-196 0,-59 7,-119 18,-183 12,-63 30,-125 55,-185 24,-60 54,-117 92,-172 37,-54 81,-101 131,-142 51,-40 108,-72 173,-96 64,-24 136,-36 214,-36 44,0 86,5 125,14 39,9 74,21 103,36 29,15 50,29 61,41 12,12 18,28 18,47zm887 512c0,45 -4,91 -12,139 -9,48 -22,95 -40,140 -19,46 -42,89 -71,129 -28,40 -63,75 -103,105 -40,31 -85,55 -137,72 -51,18 -109,27 -174,27 -64,0 -119,-8 -165,-22 -47,-15 -85,-37 -116,-66 -31,-28 -54,-63 -69,-105 -15,-42 -23,-90 -23,-144 0,-45 5,-92 13,-140 9,-47 22,-94 40,-139 19,-45 42,-88 71,-129 28,-40 63,-76 103,-106 40,-30 85,-54 137,-72 52,-17 110,-26 175,-26 63,0 118,7 164,22 47,15 85,37 116,65 31,29 54,64 69,106 15,42 22,90 22,144zm-245 16c0,-26 -2,-50 -8,-70 -5,-20 -14,-38 -26,-52 -13,-14 -28,-24 -47,-32 -20,-8 -43,-11 -71,-11 -31,0 -60,6 -85,18 -25,12 -48,29 -68,49 -19,21 -36,45 -51,73 -14,27 -26,56 -36,86 -9,30 -16,60 -20,92 -5,31 -7,60 -7,89 0,26 2,49 8,70 5,21 14,38 26,53 13,14 29,24 48,32 19,7 42,11 70,11 32,0 60,-6 85,-18 25,-12 48,-29 67,-50 20,-21 37,-45 52,-72 14,-28 26,-57 36,-87 9,-31 16,-61 21,-92 4,-31 6,-60 6,-89zm1657 543c-1,6 -4,11 -9,16 -4,5 -12,9 -22,12 -10,3 -23,5 -39,7 -15,2 -35,2 -59,2 -22,0 -41,0 -55,-2 -15,-2 -26,-4 -34,-7 -9,-3 -14,-7 -17,-12 -2,-5 -3,-10 -1,-16l98 -506c3,-14 5,-29 7,-43 2,-14 3,-28 3,-43 0,-30 -6,-53 -17,-72 -10,-18 -30,-27 -58,-27 -25,0 -51,8 -78,24 -27,17 -53,39 -78,67 -24,28 -46,61 -66,99 -19,37 -32,77 -40,119l-77 382c-2,6 -5,11 -9,16 -5,5 -12,9 -23,12 -10,3 -23,5 -38,7 -15,2 -35,2 -58,2 -22,0 -41,0 -56,-2 -15,-2 -26,-4 -34,-7 -8,-3 -14,-7 -17,-12 -3,-5 -3,-10 -2,-16l100 -506c4,-14 7,-29 8,-45 2,-15 3,-30 3,-44 0,-28 -6,-51 -17,-69 -12,-18 -31,-27 -59,-27 -25,0 -52,8 -79,24 -27,17 -53,39 -77,67 -25,28 -48,61 -67,99 -19,37 -32,77 -41,119l-75 382c-2,6 -5,11 -9,16 -5,5 -12,9 -22,12 -10,3 -23,5 -39,7 -15,2 -35,2 -58,2 -23,0 -41,0 -56,-2 -15,-2 -26,-4 -35,-7 -8,-3 -14,-7 -16,-12 -3,-5 -3,-10 -2,-16l168 -844c1,-6 4,-11 8,-16 4,-5 10,-9 19,-11 8,-3 19,-6 33,-7 13,-2 30,-2 49,-2 19,0 35,0 47,2 12,1 22,4 29,7 7,2 11,6 14,11 2,5 2,10 1,16l-27 139c13,-22 31,-44 53,-67 22,-23 46,-44 74,-62 28,-18 59,-33 92,-45 33,-11 67,-17 102,-17 37,0 69,5 95,15 27,9 49,23 66,40 18,18 31,38 40,61 9,23 15,48 18,75 14,-22 32,-45 55,-68 22,-22 47,-43 75,-61 28,-18 58,-33 91,-45 33,-11 66,-17 101,-17 44,0 80,6 110,18 30,13 54,30 72,51 19,22 32,47 40,77 8,29 12,61 12,95 0,22 -1,44 -4,66 -2,22 -6,45 -11,68l-102 521zm1160 -559c0,45 -4,91 -13,139 -8,48 -21,95 -40,140 -18,46 -41,89 -70,129 -29,40 -63,75 -103,105 -40,31 -86,55 -137,72 -52,18 -110,27 -175,27 -63,0 -118,-8 -165,-22 -46,-15 -84,-37 -115,-66 -31,-28 -54,-63 -69,-105 -16,-42 -23,-90 -23,-144 0,-45 4,-92 13,-140 8,-47 22,-94 40,-139 18,-45 42,-88 70,-129 29,-40 63,-76 103,-106 40,-30 86,-54 138,-72 51,-17 109,-26 174,-26 64,0 119,7 165,22 46,15 85,37 116,65 30,29 53,64 68,106 16,42 23,90 23,144zm-245 16c0,-26 -3,-50 -8,-70 -6,-20 -15,-38 -27,-52 -12,-14 -28,-24 -47,-32 -19,-8 -43,-11 -70,-11 -32,0 -60,6 -85,18 -25,12 -48,29 -68,49 -20,21 -37,45 -51,73 -15,27 -27,56 -36,86 -10,30 -17,60 -21,92 -4,31 -7,60 -7,89 0,26 3,49 8,70 6,21 15,38 27,53 12,14 28,24 47,32 20,7 43,11 71,11 31,0 60,-6 85,-18 25,-12 47,-29 67,-50 20,-21 37,-45 52,-72 14,-28 26,-57 35,-87 10,-31 17,-61 21,-92 4,-31 7,-60 7,-89zm1807 -380c0,40 -6,80 -17,120 -11,39 -28,77 -52,112 -24,36 -55,68 -93,96 -38,28 -85,51 -140,68 31,12 56,36 77,71 21,35 38,84 51,146l48 247c3,14 5,27 7,37 2,11 3,21 3,29 0,6 -2,11 -6,15 -4,5 -12,8 -23,11 -11,3 -25,5 -44,6 -19,2 -43,2 -71,2 -26,0 -47,0 -63,-2 -16,-2 -28,-4 -37,-8 -9,-3 -14,-8 -17,-13 -3,-6 -5,-12 -6,-20l-47 -271c-5,-31 -12,-59 -20,-82 -9,-24 -20,-44 -33,-60 -13,-16 -30,-28 -49,-36 -20,-8 -43,-12 -69,-12l-79 0 -92 466c-1,6 -5,12 -10,17 -5,5 -13,9 -23,12 -10,3 -24,5 -40,7 -17,2 -37,2 -61,2 -24,0 -43,0 -58,-2 -16,-2 -28,-4 -37,-7 -8,-3 -14,-7 -17,-12 -4,-5 -4,-11 -2,-17l222 -1110c5,-28 16,-48 33,-60 18,-12 38,-19 61,-19l328 0c57,0 109,6 155,17 46,10 86,27 119,48 33,23 58,50 75,84 18,33 27,73 27,118zm-267 46c0,-18 -3,-34 -9,-49 -6,-16 -15,-29 -29,-40 -13,-11 -30,-19 -51,-25 -21,-6 -47,-9 -76,-9l-141 0 -70 348 119 0c47,0 87,-7 120,-21 33,-13 59,-31 80,-53 19,-21 34,-45 43,-71 10,-26 14,-53 14,-80zm1168 220c0,45 -11,86 -31,122 -20,36 -52,67 -95,93 -43,27 -97,46 -164,60 -66,14 -145,21 -236,21l-87 0c-2,15 -4,29 -5,43 -2,14 -2,27 -2,39 0,51 13,90 39,115 26,26 68,39 127,39 41,0 78,-3 111,-9 33,-6 62,-13 87,-20 25,-7 45,-14 62,-20 16,-6 28,-9 36,-9 7,0 13,2 16,6 3,5 5,12 5,21 0,11 -1,23 -3,37 -2,14 -5,28 -8,41 -4,14 -8,26 -14,38 -5,12 -11,21 -18,28 -7,7 -21,15 -41,22 -20,8 -45,15 -73,21 -28,6 -60,11 -95,16 -36,4 -71,6 -108,6 -60,0 -113,-7 -158,-19 -45,-13 -82,-32 -113,-58 -30,-25 -52,-58 -68,-98 -15,-40 -22,-87 -22,-142 0,-42 4,-87 12,-135 8,-49 20,-96 38,-143 18,-47 40,-91 68,-134 27,-43 61,-80 100,-113 40,-32 85,-58 137,-78 51,-19 110,-29 176,-29 57,0 107,7 147,20 42,14 75,32 102,54 26,22 46,48 58,77 13,28 20,58 20,88zm-234 17c0,-25 -10,-46 -29,-63 -20,-16 -48,-25 -85,-25 -32,0 -60,6 -85,17 -24,12 -46,27 -65,46 -19,19 -35,42 -49,68 -13,26 -24,54 -32,84l79 0c50,0 92,-4 125,-10 34,-7 61,-16 82,-27 21,-12 35,-25 45,-40 9,-16 14,-32 14,-50zm1080 673c-12,57 -29,107 -53,150 -24,42 -55,77 -94,106 -39,29 -86,50 -142,65 -56,14 -121,21 -195,21 -53,0 -101,-4 -144,-12 -42,-9 -78,-19 -106,-33 -10,-5 -18,-10 -21,-16 -4,-7 -6,-16 -6,-27 0,-4 0,-10 1,-19 1,-9 2,-18 4,-29 3,-10 5,-21 8,-33 4,-12 8,-22 12,-31 5,-9 10,-17 16,-22 6,-7 13,-9 20,-9 8,0 17,2 28,8 11,5 25,11 44,17 18,6 41,12 68,17 27,5 60,8 100,8 32,0 60,-3 86,-8 25,-5 48,-13 66,-24 19,-12 34,-26 46,-44 12,-18 20,-40 25,-65 8,-41 16,-75 25,-103 8,-28 16,-50 23,-68 -12,21 -28,41 -49,62 -21,20 -45,39 -72,55 -27,16 -56,29 -87,39 -32,10 -63,15 -94,15 -49,0 -90,-8 -123,-25 -33,-16 -60,-39 -81,-68 -20,-29 -35,-62 -44,-101 -10,-39 -14,-82 -14,-127 0,-41 4,-85 11,-132 8,-47 19,-94 36,-140 16,-47 36,-92 60,-134 25,-43 55,-81 89,-114 34,-33 73,-59 118,-79 44,-19 94,-29 150,-29 52,0 98,11 138,33 40,21 75,53 105,94l15 -75c3,-13 13,-22 30,-28 18,-6 46,-8 84,-8 19,0 35,0 47,2 13,1 23,4 30,7 7,2 12,6 14,11 3,5 3,10 2,16l-176 877zm-110 -624c-22,-35 -46,-61 -73,-78 -26,-17 -57,-26 -92,-26 -27,0 -51,6 -73,19 -22,13 -41,29 -59,50 -17,22 -32,46 -45,73 -13,28 -24,57 -33,87 -8,30 -14,61 -19,90 -4,31 -6,59 -6,86 0,22 2,41 6,59 4,17 10,32 18,44 8,13 18,22 30,29 13,7 28,10 46,10 28,0 56,-9 85,-25 29,-17 56,-39 82,-68 25,-29 47,-62 66,-100 20,-38 33,-79 42,-123l25 -127zm838 -536c-4,23 -10,43 -18,59 -7,16 -17,29 -30,39 -13,10 -28,17 -47,21 -18,4 -41,6 -68,6 -27,0 -48,-2 -65,-6 -16,-4 -29,-11 -37,-21 -9,-10 -13,-23 -15,-39 -1,-16 1,-36 6,-59 5,-22 10,-42 18,-57 7,-16 17,-29 30,-39 13,-10 28,-17 46,-22 18,-4 41,-6 68,-6 26,0 48,2 65,6 17,5 30,12 38,22 9,10 14,23 15,39 1,15 -1,35 -6,57zm-244 1127c-1,6 -4,11 -9,16 -5,5 -12,9 -22,12 -10,3 -22,5 -38,7 -16,2 -35,2 -58,2 -23,0 -42,0 -57,-2 -14,-2 -26,-4 -34,-7 -9,-3 -14,-7 -17,-12 -2,-5 -3,-10 -2,-16l167 -841c1,-6 4,-11 9,-16 4,-5 11,-9 21,-13 10,-3 23,-6 38,-8 15,-1 35,-2 58,-2 23,0 42,1 57,2 15,2 26,5 35,8 9,4 14,8 17,13 2,5 3,10 1,16l-166 841zm930 -806c0,8 -1,19 -4,34 -2,15 -5,29 -9,45 -5,15 -10,28 -16,39 -5,11 -12,16 -20,16 -8,0 -17,-3 -28,-9 -11,-6 -25,-12 -41,-19 -15,-8 -34,-14 -55,-19 -21,-6 -45,-9 -74,-9 -22,0 -41,3 -58,9 -18,5 -32,13 -43,23 -11,9 -20,21 -26,34 -6,13 -9,27 -9,42 0,20 8,36 24,49 16,14 36,26 60,38 24,11 49,24 77,36 27,13 53,28 77,47 24,19 44,42 59,69 16,27 24,61 24,102 0,48 -9,92 -28,132 -18,41 -44,76 -79,105 -35,30 -77,53 -127,70 -50,16 -107,25 -169,25 -31,0 -60,-3 -87,-7 -27,-4 -52,-9 -74,-15 -21,-7 -40,-14 -55,-22 -15,-8 -26,-15 -34,-22 -5,-5 -8,-10 -11,-16 -2,-6 -3,-13 -3,-22 0,-5 1,-13 2,-22 1,-8 2,-18 4,-29 3,-10 5,-21 8,-32 3,-11 6,-21 10,-29 4,-9 8,-16 12,-22 5,-5 9,-8 14,-8 9,0 19,4 29,12 11,7 25,15 42,25 17,9 38,17 62,25 26,8 57,12 94,12 25,0 48,-3 67,-9 19,-6 34,-15 47,-25 12,-11 21,-24 27,-37 6,-14 9,-29 9,-45 0,-22 -7,-40 -23,-54 -15,-13 -34,-26 -58,-38 -23,-12 -48,-24 -75,-37 -28,-13 -53,-28 -76,-46 -23,-18 -42,-41 -58,-68 -15,-27 -23,-61 -23,-102 0,-45 9,-86 26,-124 17,-39 42,-72 74,-101 33,-28 73,-51 119,-67 47,-16 100,-24 159,-24 26,0 52,2 77,5 24,4 47,8 67,14 20,5 37,12 51,18 15,7 26,14 32,21 6,6 10,17 10,32zm707 -28c0,6 0,14 -1,24 -2,10 -3,21 -6,32 -2,11 -5,23 -9,34 -3,11 -8,22 -12,31 -5,9 -10,16 -16,23 -6,6 -13,9 -20,9l-183 0 -80 395c-2,9 -4,20 -5,33 -2,13 -2,24 -2,32 0,25 5,44 17,55 12,12 31,18 57,18 15,0 28,-1 39,-3 11,-3 20,-5 28,-8 8,-3 14,-5 20,-8 6,-2 11,-3 16,-3 5,0 10,2 13,7 4,5 5,13 5,23 0,12 -1,26 -4,41 -2,15 -5,30 -10,44 -3,14 -8,27 -13,39 -5,11 -11,20 -16,25 -6,6 -15,11 -26,16 -11,6 -25,10 -40,14 -16,3 -32,6 -50,9 -17,2 -35,3 -53,3 -38,0 -71,-4 -99,-12 -29,-8 -53,-20 -72,-37 -20,-17 -34,-39 -44,-66 -10,-26 -15,-58 -15,-96 0,-7 1,-15 1,-24 1,-9 2,-19 4,-29 1,-10 3,-20 4,-31 2,-10 4,-19 5,-27l83 -410 -102 0c-9,0 -15,-3 -18,-8 -4,-6 -6,-16 -6,-31 0,-11 1,-25 3,-42 2,-18 6,-35 11,-51 5,-17 12,-32 20,-44 8,-12 18,-18 29,-18l102 0 38 -188c1,-6 4,-12 9,-17 4,-5 11,-9 21,-13 10,-3 22,-6 38,-7 15,-2 34,-3 57,-3 23,0 42,1 57,3 16,1 27,4 36,7 8,4 14,8 17,13 2,5 3,11 2,17l-38 188 181 0c11,0 18,4 22,11 4,7 5,17 5,30zm707 -21c0,4 -1,12 -2,23 -1,11 -3,25 -5,40 -3,15 -6,30 -10,46 -4,16 -8,31 -13,45 -5,14 -10,25 -16,34 -6,9 -12,13 -19,13 -6,0 -12,-1 -17,-3 -6,-3 -12,-4 -19,-7 -7,-2 -15,-4 -23,-6 -8,-3 -17,-4 -28,-4 -21,0 -44,8 -68,25 -24,16 -47,38 -69,64 -22,27 -42,58 -59,94 -17,36 -29,73 -37,112l-76 379c-1,6 -4,11 -9,16 -4,5 -12,9 -22,12 -9,3 -22,5 -38,7 -16,2 -35,2 -58,2 -23,0 -42,0 -57,-2 -14,-2 -26,-4 -34,-7 -9,-3 -14,-7 -17,-12 -2,-5 -3,-10 -2,-16l169 -844c1,-6 4,-11 8,-16 4,-5 11,-9 19,-11 9,-3 20,-6 33,-7 13,-2 29,-2 48,-2 20,0 35,0 48,2 12,1 22,4 28,7 7,2 12,6 14,11 2,5 3,10 2,16l-26 135c15,-28 33,-52 52,-75 20,-22 41,-42 63,-59 23,-17 45,-29 69,-39 24,-9 48,-14 71,-14 9,0 19,1 28,2 10,1 19,3 28,5 8,1 16,4 23,7 6,3 12,5 15,9 4,3 6,9 6,18zm763 856c-2,13 -12,22 -30,28 -17,5 -45,8 -84,8 -19,0 -35,0 -47,-2 -12,-1 -22,-3 -30,-6 -7,-3 -12,-6 -14,-11 -2,-5 -3,-11 -2,-17l27 -136c-10,21 -25,42 -46,64 -20,22 -45,43 -73,61 -28,18 -60,33 -94,45 -34,12 -70,18 -106,18 -51,0 -92,-9 -126,-27 -33,-17 -60,-41 -80,-71 -20,-30 -35,-64 -43,-102 -9,-39 -13,-79 -13,-121 0,-40 4,-83 11,-129 8,-47 19,-94 35,-141 16,-46 36,-91 60,-134 25,-43 55,-81 89,-114 34,-34 73,-60 118,-80 44,-20 95,-30 151,-30 52,0 98,11 138,33 40,21 75,53 105,94l15 -75c3,-13 13,-22 30,-28 18,-6 46,-8 84,-8 19,0 35,0 47,2 13,1 23,4 30,7 7,2 12,6 14,11 3,5 3,10 2,16l-168 845zm-118 -592c-22,-34 -46,-59 -73,-76 -26,-17 -57,-26 -92,-26 -27,0 -51,6 -73,19 -23,12 -42,29 -59,50 -17,21 -33,46 -45,73 -13,28 -24,56 -33,86 -8,30 -14,60 -19,90 -4,31 -6,59 -6,85 0,18 2,37 4,53 3,17 9,32 16,46 8,13 18,23 31,31 13,8 29,12 49,12 27,0 56,-9 85,-25 29,-17 56,-40 81,-68 25,-29 48,-62 67,-100 19,-38 33,-79 42,-122l25 -128zm1055 -264c0,4 -1,12 -2,23 -1,11 -3,25 -6,40 -2,15 -5,30 -9,46 -4,16 -8,31 -13,45 -5,14 -10,25 -16,34 -6,9 -12,13 -19,13 -6,0 -12,-1 -17,-3 -6,-3 -12,-4 -19,-7 -7,-2 -15,-4 -23,-6 -8,-3 -18,-4 -28,-4 -21,0 -44,8 -68,25 -25,16 -47,38 -69,64 -22,27 -42,58 -59,94 -17,36 -30,73 -37,112l-76 379c-1,6 -4,11 -9,16 -5,5 -12,9 -22,12 -10,3 -22,5 -38,7 -16,2 -35,2 -58,2 -23,0 -42,0 -57,-2 -14,-2 -26,-4 -34,-7 -9,-3 -14,-7 -17,-12 -2,-5 -3,-10 -2,-16l168 -844c2,-6 5,-11 9,-16 4,-5 11,-9 19,-11 8,-3 19,-6 33,-7 13,-2 29,-2 48,-2 20,0 35,0 48,2 12,1 21,4 28,7 7,2 12,6 14,11 2,5 3,10 1,16l-25 135c15,-28 32,-52 52,-75 20,-22 41,-42 63,-59 22,-17 45,-29 69,-39 24,-9 47,-14 71,-14 9,0 19,1 28,2 10,1 19,3 28,5 8,1 16,4 23,7 6,3 11,5 15,9 4,3 6,9 6,18zm643 21c0,6 0,14 -2,24 -1,10 -3,21 -5,32 -2,11 -5,23 -9,34 -3,11 -8,22 -12,31 -5,9 -10,16 -17,23 -5,6 -12,9 -19,9l-183 0 -80 395c-2,9 -4,20 -5,33 -2,13 -3,24 -3,32 0,25 6,44 18,55 12,12 31,18 56,18 16,0 29,-1 39,-3 11,-3 21,-5 28,-8 8,-3 15,-5 21,-8 5,-2 11,-3 16,-3 5,0 9,2 13,7 3,5 5,13 5,23 0,12 -1,26 -4,41 -2,15 -6,30 -10,44 -4,14 -8,27 -13,39 -5,11 -11,20 -16,25 -6,6 -15,11 -26,16 -11,6 -25,10 -40,14 -16,3 -32,6 -50,9 -18,2 -35,3 -53,3 -38,0 -71,-4 -100,-12 -28,-8 -52,-20 -71,-37 -20,-17 -35,-39 -44,-66 -10,-26 -15,-58 -15,-96 0,-7 0,-15 1,-24 1,-9 2,-19 3,-29 2,-10 3,-20 5,-31 2,-10 4,-19 5,-27l83 -410 -103 0c-8,0 -14,-3 -18,-8 -3,-6 -5,-16 -5,-31 0,-11 1,-25 3,-42 2,-18 6,-35 11,-51 5,-17 11,-32 20,-44 8,-12 18,-18 29,-18l102 0 38 -188c1,-6 4,-12 9,-17 4,-5 11,-9 21,-13 10,-3 22,-6 37,-7 16,-2 35,-3 58,-3 23,0 42,1 57,3 16,1 27,4 36,7 8,4 13,8 16,13 3,5 4,11 3,17l-38 188 181 0c10,0 18,4 21,11 4,7 6,17 6,30zm867 177c0,45 -10,86 -30,122 -21,36 -52,67 -95,93 -43,27 -98,46 -164,60 -66,14 -145,21 -237,21l-86 0c-3,15 -5,29 -6,43 -1,14 -2,27 -2,39 0,51 13,90 39,115 27,26 69,39 127,39 42,0 79,-3 112,-9 33,-6 62,-13 87,-20 25,-7 45,-14 62,-20 16,-6 28,-9 36,-9 7,0 12,2 15,6 4,5 5,12 5,21 0,11 -1,23 -3,37 -2,14 -4,28 -8,41 -3,14 -7,26 -13,38 -5,12 -11,21 -18,28 -8,7 -22,15 -42,22 -20,8 -44,15 -72,21 -29,6 -61,11 -96,16 -35,4 -71,6 -107,6 -61,0 -113,-7 -158,-19 -45,-13 -83,-32 -113,-58 -30,-25 -53,-58 -68,-98 -15,-40 -22,-87 -22,-142 0,-42 3,-87 11,-135 8,-49 21,-96 38,-143 18,-47 41,-91 68,-134 28,-43 62,-80 101,-113 39,-32 85,-58 136,-78 52,-19 111,-29 177,-29 57,0 106,7 147,20 41,14 75,32 101,54 27,22 46,48 59,77 13,28 19,58 19,88zm-233 17c0,-25 -10,-46 -30,-63 -19,-16 -48,-25 -85,-25 -31,0 -59,6 -84,17 -25,12 -47,27 -65,46 -19,19 -36,42 -49,68 -13,26 -24,54 -32,84l78 0c50,0 92,-4 126,-10 34,-7 61,-16 82,-27 20,-12 35,-25 44,-40 10,-16 15,-32 15,-50zm1188 -318c0,49 -7,97 -21,144 -14,47 -37,90 -67,128 -31,38 -71,70 -119,96 -48,25 -106,41 -173,48l-43 180c-3,12 -14,20 -33,26 -18,5 -44,8 -78,8 -20,0 -37,0 -51,-1 -13,-1 -24,-3 -32,-6 -9,-2 -14,-5 -17,-10 -2,-4 -3,-10 -2,-17l36 -223c3,-20 7,-36 12,-49 6,-12 12,-22 20,-30 9,-7 18,-12 28,-15 11,-3 22,-4 36,-4l7 0c46,0 84,-8 116,-24 31,-15 56,-34 75,-58 19,-23 32,-48 41,-76 8,-29 12,-55 12,-80 0,-24 -4,-45 -11,-65 -6,-20 -17,-38 -31,-53 -15,-14 -33,-26 -54,-34 -22,-8 -47,-12 -76,-12 -34,0 -64,3 -90,10 -26,7 -48,15 -67,23 -19,9 -35,17 -47,24 -13,7 -22,11 -29,11 -6,0 -11,-4 -14,-10 -3,-7 -4,-18 -4,-33 0,-6 1,-16 2,-29 2,-14 4,-28 7,-43 3,-14 7,-28 12,-41 5,-14 11,-24 18,-31 7,-7 20,-15 39,-24 19,-8 41,-16 66,-23 25,-7 52,-13 80,-17 29,-4 56,-7 83,-7 48,0 91,5 128,13 36,9 68,21 95,35 27,16 50,33 69,54 19,19 34,41 45,65 12,23 20,48 25,74 5,25 7,50 7,76zm-438 806c0,11 -2,24 -4,40 -3,15 -6,30 -10,45 -4,16 -10,30 -16,44 -6,13 -13,24 -21,32 -12,12 -28,21 -46,27 -18,6 -42,9 -71,9 -23,0 -41,-2 -56,-5 -15,-4 -27,-9 -35,-16 -8,-7 -14,-15 -17,-25 -3,-9 -5,-21 -5,-33 0,-10 1,-23 3,-38 2,-14 5,-30 10,-45 4,-16 9,-31 15,-45 6,-14 13,-25 22,-34 14,-14 30,-24 49,-29 18,-6 40,-8 67,-8 24,0 44,2 59,6 15,4 27,10 35,17 8,7 13,16 16,26 3,10 5,21 5,32z"/>
 </g>
</svg>
