<!-- Generator: Adobe Illustrator 21.1.0, SVG Export Plug-In  -->
<svg version="1.1"
	 xmlns="http://www.w3.org/2000/svg" xmlns:xlink="http://www.w3.org/1999/xlink" xmlns:a="http://ns.adobe.com/AdobeSVGViewerExtensions/3.0/"
	 x="0px" y="0px" width="67.7px" height="67.6px" viewBox="0 0 67.7 67.6"
	 style="overflow:scroll;enable-background:new 0 0 67.7 67.6;" xml:space="preserve">
<style type="text/css">
	.st0{fill:url(#SVGID_1_);}
	.st1{clip-path:url(#SVGID_3_);}
	.st2{opacity:0.5;fill:#DBA78C;enable-background:new    ;}
	.st3{fill:#FFFFFF;}
	.st4{fill:#070308;}
	.st5{fill:#B32218;}
	.st6{fill:url(#SVGID_4_);}
	.st7{clip-path:url(#SVGID_6_);}
</style>
<defs>
</defs>
<g>
	
		<radialGradient id="SVGID_1_" cx="203.4044" cy="487.9648" r="35.2141" gradientTransform="matrix(0.6338 0.7735 0.7734 -0.6337 -476.2861 181.0728)" gradientUnits="userSpaceOnUse">
		<stop  offset="0" style="stop-color:#B32218"/>
		<stop  offset="1" style="stop-color:#65181A"/>
	</radialGradient>
	<path class="st0" d="M26.1,0.9c9-2.1,18.2-0.4,25.5,4.1s13,11.9,15.1,21s0.4,18.2-4.1,25.5s-11.9,13-21,15.1
		c-9.1,2.2-18.2,0.4-25.6-4.1c-7.3-4.4-13-11.8-15.1-21S0.5,23.4,5,16.1S17,3.1,26.1,0.9z"/>
	<g>
		<g>
			<defs>
				<path id="SVGID_2_" d="M26.1,0.9c9-2.1,18.2-0.4,25.5,4.1s13,11.9,15.1,21s0.4,18.2-4.1,25.5s-11.9,13-21,15.1
					c-9.1,2.2-18.2,0.4-25.6-4.1c-7.3-4.4-13-11.8-15.1-21S0.5,23.4,5,16.1S17,3.1,26.1,0.9z"/>
			</defs>
			<clipPath id="SVGID_3_">
				<use xlink:href="#SVGID_2_"  style="overflow:visible;"/>
			</clipPath>
			<g class="st1">
				<path class="st2" d="M27.4,2.4c11.1-2.6,22.3,0.7,30.1,8C49.8,4.2,39.6,1.6,29.5,4C12.1,8.1,1.3,25.6,5.5,43
					c2.4,10.1,9.3,18,18.2,22c-10-3.6-18-12.1-20.6-23.2C-1.2,24.1,9.7,6.6,27.4,2.4z"/>
			</g>
		</g>
	</g>
	<ellipse transform="matrix(0.9731 -0.2306 0.2306 0.9731 -3.8829 2.5745)" class="st3" cx="9.1" cy="17.9" rx="3" ry="3"/>
	<g>
		<path class="st4" d="M10.8,41c-0.3,0.5-0.5,0.9-0.6,1.5c-0.1,0.5,0,1,0.3,1.1c0.2,0.1,0.5-0.4,0.8-0.7c0.2-0.3,0.4-0.4,0.7-0.5
			c0.4-0.1,1,0,2.1,0c1.1,0.2,2.6,0.3,4.3,1c1.6,0.7,3.2,1.8,4.8,3.3c1.6,1.5,3,3.3,4.5,4.6c1.4,1.3,2.7,2.1,3.8,2.7
			c1.2,0.5,2,0.8,3.1,0.8c1,0.1,2.1-0.1,3.7-0.5c1.6-0.3,3.7-0.8,5.3-1.4c1.6-0.7,2.6-1.5,3.3-2.8c0.7-1.3,1-3,1.8-5
			s1.7-4.4,2.7-6.1c0.8-1.6,1.6-2.4,2.6-3.3c1-0.7,2.2-1.5,3-1.8c0.7-0.4,1-0.4,1.3-0.3c0.2,0.1,0.4,0.3,0.6,0.6
			c0.2,0.3,0.5,0.6,0.7,0.8s0.4,0.1,0.3-0.3c-0.1-0.4-0.4-1.1-1-1.7c-0.6-0.7-1.4-1.2-2.1-1.6c-0.7-0.3-1.1-0.5-1.2-0.3
			c-0.1,0.1,0.1,0.5,0.5,0.8c0.3,0.3,0.7,0.7,0.8,0.8c0,0.2-0.1,0.2-0.9,0.6c-0.6,0.4-1.7,0.9-3.7,1.9c-2,0.9-4.8,2.2-7.7,3.2
			c-2.8,1-5.6,1.6-8.4,2.2c-2.8,0.6-5.7,0.9-8.3,1.3s-4.9,0.3-6.8,0.3s-3.8-0.3-5.1-0.5c-1.4-0.3-2.3-0.5-2.8-0.7s-0.7-0.3-0.6-0.4
			c0.1-0.1,0.2-0.4,0.3-0.7s0.2-0.8,0.2-1s-0.3-0.2-0.5-0.2c-0.2,0.1-0.4,0.3-0.7,0.8C11.4,39.9,11.1,40.6,10.8,41z"/>
		<path class="st5" d="M32,54.2c0.9,0.3,1.7,0.5,2.5,0.5c1,0.1,2.1-0.1,3.7-0.5c1.2-0.2,2.7-0.5,4-0.9c0.2-0.1,0.3-0.3,0.4-0.3
			c1.5-1.2,2-2.1,2.7-3.1c0.7-1,1.4-2,1.8-2.5c0.3-0.6,0.2-0.8-0.3-0.8c-0.5-0.1-1.3,0-2.2,0.3s-1.6,0.7-2.6,1.4
			c-1,0.6-2.3,1.6-2.9,2c-0.6,0.4-0.8,0.3-0.7,0.1c0.1-0.2,0.3-0.5,0.8-0.8c0.5-0.4,1.3-0.9,1.7-1.3c0.3-0.4,0.3-0.5,0.1-0.5
			c-0.2-0.1-0.7,0.2-1.6,0.6c-0.9,0.4-2.4,1.1-3.8,2c-1.4,1-2.7,2.2-3.2,3.2C32.1,54,32,54.1,32,54.2z"/>
		<path class="st3" d="M22.6,44.3c1,1,2.9,2.8,4.6,3.7c1.7,1,3,1.2,5.3,1c2.3-0.2,5.6-1,8.4-1.9c2.8-0.9,5-1.8,6.3-3
			s1.7-2.6,2.1-3.8c0.4-1.1,0.8-2,0.8-2.3c-0.1-0.3-0.5-0.1-2.4,0.5c-1.7,0.6-4.7,1.5-8.1,2.3s-7.3,1.5-10.2,1.9
			c-2.8,0.4-4.5,0.4-5.7,0.3c-1.1,0-1.6,0-1.7,0C21.5,43.1,21.6,43.3,22.6,44.3z"/>
		<path class="st4" d="M33.9,58.6c0.5,0.1,1.7,0.3,3,0.3c1.2,0,2.5,0,3.9-0.4c1.4-0.4,3.1-1.2,4.1-1.7c1-0.5,1.2-0.9,1-1
			c-0.2-0.1-1,0.1-2.3,0.6c-1.3,0.4-3.2,1-4.6,1.3s-2.7,0.4-3.4,0.5c-0.8,0.1-1.2,0.1-1.5,0.2C33.6,58.4,33.4,58.5,33.9,58.6z"/>
	</g>
</g>
</svg>
