<?xml version="1.0" encoding="UTF-8"?>
<!DOCTYPE svg PUBLIC "-//W3C//DTD SVG 1.1//EN" "http://www.w3.org/Graphics/SVG/1.1/DTD/svg11.dtd">
<!-- Creator: CorelDRAW X7 -->
<svg xmlns="http://www.w3.org/2000/svg" xml:space="preserve" width="98.1976mm" height="29.2868mm" version="1.1" style="shape-rendering:geometricPrecision; text-rendering:geometricPrecision; image-rendering:optimizeQuality; fill-rule:evenodd; clip-rule:evenodd"
viewBox="0 0 4314 1286"
 xmlns:xlink="http://www.w3.org/1999/xlink">
 <defs>
  <style type="text/css">
   <![CDATA[
    .fil0 {fill:#FEFEFE}
    .fil1 {fill:#284B8C;fill-rule:nonzero}
   ]]>
  </style>
 </defs>
 <g id="__x0023_Layer_x0020_1">
  <metadata id="CorelCorpID_0Corel-Layer"/>
  <path class="fil0" d="M3717 1133c1,2 2,4 2,7 3,8 4,17 4,25 0,8 -1,15 -2,22 -1,7 -3,14 -4,19 -2,8 -5,16 -9,24 -4,9 -9,17 -16,25l-1 1 -2 1c-10,10 -22,17 -36,21 -12,5 -26,6 -40,6 -10,0 -20,-1 -30,-3 -13,-3 -25,-8 -36,-18 -10,-9 -18,-20 -21,-32 -3,-9 -4,-19 -4,-28 0,-7 0,-13 1,-19 1,-8 2,-16 5,-23 2,-7 4,-14 6,-20 4,-9 9,-17 15,-25 -2,-9 -2,-18 0,-26l11 -71c1,-9 4,-19 8,-29 4,-10 11,-20 19,-27l1 -2c9,-8 20,-14 31,-17 9,-2 18,-3 27,-3l2 0c3,0 9,-1 12,-2 1,-1 4,-2 5,-3 1,-2 2,-3 2,-5 1,-2 1,-3 2,-5 -4,0 -8,0 -12,1 -5,1 -9,3 -14,5 -2,1 -6,3 -8,4 -12,7 -24,11 -38,11 -25,0 -46,-14 -56,-36 -5,-11 -6,-22 -6,-33 0,-6 0,-11 1,-16 1,-6 2,-12 3,-19 2,-7 4,-14 6,-20 4,-11 10,-21 18,-30l2 -2c8,-7 18,-13 28,-18 9,-4 19,-7 29,-10 10,-3 21,-5 32,-7 11,-2 23,-3 35,-3 17,0 35,2 53,6 15,4 30,9 44,17 14,7 26,16 36,27 10,11 18,22 24,34 6,12 10,25 13,38 2,12 3,23 3,35 0,21 -3,42 -9,62 -7,22 -17,42 -32,59 -15,19 -33,34 -54,45 -12,6 -23,11 -36,14l-5 23 0 1c-2,7 -5,13 -9,19zm-3661 -699c0,-16 3,-31 7,-46 4,-15 12,-29 21,-41 10,-12 22,-22 37,-30 16,-8 34,-13 55,-15l14 -57c1,-4 4,-7 10,-9 6,-1 15,-2 25,-2 7,0 12,0 16,0 5,0 8,1 11,2 2,1 4,2 4,3 1,2 1,3 1,6l-11 70c-1,7 -2,12 -4,16 -2,4 -4,7 -6,9 -3,3 -6,4 -9,5 -3,1 -7,1 -11,1l-2 0c-15,0 -27,3 -37,8 -10,5 -18,11 -24,18 -6,7 -10,16 -13,25 -2,8 -4,17 -4,25 0,7 2,14 4,20 2,7 5,12 10,17 4,5 10,8 17,11 7,2 15,4 24,4 11,0 20,-1 28,-4 8,-2 15,-4 21,-7 6,-3 11,-5 15,-7 4,-3 7,-4 9,-4 2,0 4,1 5,3 1,2 1,6 1,11 0,2 0,5 -1,9 0,4 -1,9 -2,13 -1,5 -2,9 -4,14 -1,4 -3,7 -5,9 -3,3 -7,5 -13,8 -6,3 -13,5 -20,7 -8,2 -17,4 -26,6 -9,1 -17,2 -26,2 -15,0 -29,-2 -40,-4 -12,-3 -22,-7 -31,-11 -8,-5 -15,-11 -21,-17 -6,-7 -11,-14 -15,-21 -3,-7 -6,-15 -7,-23 -2,-8 -3,-16 -3,-24zm139 -256c0,-3 1,-8 1,-12 1,-5 2,-10 4,-15 1,-5 3,-9 5,-14 2,-4 4,-7 6,-10 4,-4 9,-7 15,-9 6,-1 13,-2 22,-2 8,0 13,0 18,1 5,1 9,3 11,5 3,2 5,5 5,8 1,3 2,7 2,11 0,3 0,7 -1,12 -1,4 -1,9 -3,14 -1,5 -3,10 -5,14 -2,5 -4,8 -7,11 -4,5 -9,8 -15,9 -6,2 -13,3 -21,3 -8,0 -14,-1 -19,-2 -5,-1 -9,-3 -11,-6 -3,-2 -5,-5 -5,-8 -1,-3 -2,-6 -2,-10zm528 314c0,2 -1,4 -1,8 0,3 -1,7 -2,11 -1,4 -2,8 -3,12 -1,4 -2,8 -4,11 -2,3 -3,6 -5,8 -2,2 -4,3 -7,3 -2,0 -5,0 -9,-1 -5,-1 -10,-3 -17,-6 -6,-2 -12,-5 -20,-9 -7,-4 -15,-9 -23,-15 -8,-6 -15,-13 -23,-20 -8,-8 -15,-16 -22,-26 -11,5 -22,9 -35,11 -13,3 -27,4 -42,4 -24,0 -46,-3 -64,-8 -19,-6 -34,-14 -47,-25 -13,-11 -22,-25 -29,-42 -6,-17 -9,-37 -9,-60 0,-19 1,-38 5,-59 3,-20 8,-40 16,-60 7,-19 16,-38 28,-56 12,-17 26,-33 42,-47 17,-13 36,-24 59,-32 22,-7 47,-11 75,-11 24,0 45,2 64,8 18,5 34,14 47,25 12,11 22,25 28,42 7,18 10,38 10,61 0,11 -1,23 -2,36 -1,12 -4,25 -6,38 -3,12 -7,25 -11,38 -5,13 -10,25 -16,38 -7,12 -14,24 -23,35 -8,11 -18,21 -28,31 9,10 18,17 26,23 8,5 15,9 21,12 6,3 11,6 15,7 4,1 7,3 8,4 2,2 3,3 3,5 0,1 1,3 1,6zm-71 -266c0,-12 -2,-23 -5,-33 -2,-10 -7,-18 -13,-25 -5,-7 -13,-12 -23,-16 -10,-3 -22,-5 -35,-5 -18,0 -33,3 -46,10 -14,7 -25,15 -35,26 -9,11 -18,23 -24,37 -7,14 -12,28 -16,42 -4,14 -7,28 -8,42 -2,13 -3,25 -3,35 0,13 1,24 4,34 3,9 7,18 13,24 6,7 14,12 24,16 9,3 21,5 35,5 17,0 33,-3 46,-10 13,-6 24,-15 34,-26 10,-10 18,-23 24,-36 7,-14 13,-28 16,-42 4,-14 7,-28 9,-42 2,-13 3,-25 3,-36zm354 240c0,2 -1,4 -2,6 -2,1 -4,2 -6,3 -3,1 -6,2 -11,2 -4,1 -9,1 -15,1 -6,0 -11,0 -15,-1 -4,0 -7,-1 -9,-2 -3,-1 -4,-2 -5,-3 0,-2 0,-4 0,-6l8 -43c-4,7 -9,14 -16,21 -7,7 -15,14 -24,19 -9,6 -19,11 -30,15 -10,3 -21,5 -32,5 -14,0 -26,-2 -36,-6 -9,-4 -17,-9 -23,-16 -6,-6 -10,-14 -13,-24 -3,-9 -4,-19 -4,-30 0,-7 0,-14 1,-21 1,-7 2,-14 4,-22l33 -165c0,-2 1,-4 3,-5 1,-2 3,-3 6,-4 4,-1 8,-2 13,-2 5,-1 11,-1 18,-1 7,0 13,0 18,1 5,0 8,1 11,2 3,1 4,2 5,4 1,1 1,3 1,5l-32 160c-1,5 -2,9 -2,14 -1,5 -1,9 -1,14 0,5 0,9 1,13 1,4 3,7 5,10 2,2 4,5 7,6 4,1 7,2 12,2 8,0 16,-3 25,-8 9,-5 18,-12 25,-22 8,-9 16,-20 22,-32 6,-13 11,-27 14,-42l23 -115c0,-2 1,-4 2,-5 2,-2 4,-3 7,-4 4,-1 8,-2 13,-2 5,-1 11,-1 18,-1 7,0 13,0 18,1 5,0 8,1 11,2 3,1 4,2 5,4 1,1 1,3 1,5l-54 267zm354 -208c0,14 -4,27 -10,39 -7,11 -17,21 -30,29 -14,9 -31,15 -52,19 -21,5 -46,7 -75,7l-28 0c0,5 -1,9 -1,14 -1,4 -1,8 -1,12 0,16 4,28 12,36 9,9 22,13 41,13 13,0 25,-1 35,-3 10,-2 20,-4 28,-7 7,-2 14,-4 19,-6 5,-2 9,-3 12,-3 2,0 4,1 5,2 1,2 1,4 1,7 0,3 0,7 -1,12 0,4 -1,8 -2,13 -1,4 -3,8 -5,12 -1,3 -3,6 -5,8 -3,3 -7,5 -14,7 -6,3 -14,5 -23,7 -9,2 -19,4 -30,5 -11,1 -22,2 -34,2 -19,0 -36,-2 -50,-6 -14,-4 -26,-10 -36,-18 -9,-8 -16,-19 -21,-31 -5,-13 -7,-28 -7,-45 0,-14 1,-28 3,-43 3,-16 7,-31 13,-45 5,-15 12,-29 21,-43 9,-14 19,-25 32,-36 12,-10 27,-18 43,-24 16,-7 35,-10 56,-10 18,0 34,3 47,7 13,4 23,10 32,17 8,7 14,15 18,24 4,9 7,18 7,28zm-75 5c0,-7 -3,-14 -9,-19 -6,-6 -15,-8 -27,-8 -10,0 -19,1 -27,5 -7,4 -14,8 -20,15 -6,6 -11,13 -16,21 -4,8 -7,17 -10,27l25 0c16,0 29,-1 40,-4 11,-2 19,-4 26,-8 6,-4 11,-8 14,-13 3,-5 4,-10 4,-16zm5 -121c-2,2 -3,4 -5,5 -2,1 -4,2 -6,3 -3,1 -6,1 -10,2 -4,0 -8,0 -14,0 -7,0 -13,0 -17,-1 -4,0 -7,-1 -8,-2 -2,-2 -2,-3 -2,-5 1,-2 2,-5 4,-7l45 -69c2,-2 3,-4 5,-5 2,-2 5,-3 8,-4 3,-1 7,-2 12,-2 4,-1 10,-1 17,-1 9,0 16,1 21,2 5,1 9,2 11,3 2,2 3,3 3,5 -1,2 -2,4 -4,6l-60 70zm450 69c0,2 0,6 -1,11 0,4 -1,9 -3,14 -1,5 -3,9 -5,12 -1,4 -4,5 -6,5 -2,0 -6,-1 -9,-2 -3,-2 -8,-4 -13,-7 -5,-2 -11,-4 -17,-6 -7,-1 -15,-2 -24,-2 -7,0 -13,1 -18,2 -6,2 -10,5 -14,8 -3,3 -6,6 -8,11 -2,4 -3,8 -3,13 0,6 3,11 8,15 5,5 11,9 19,12 7,4 15,8 24,12 9,4 17,9 25,15 7,6 13,13 18,22 5,8 8,19 8,32 0,15 -3,29 -9,42 -6,13 -14,24 -25,33 -11,9 -25,17 -40,22 -16,5 -34,8 -54,8 -10,0 -19,-1 -27,-2 -9,-2 -17,-3 -24,-5 -7,-2 -12,-4 -17,-7 -5,-2 -9,-5 -11,-7 -2,-2 -3,-3 -3,-5 -1,-2 -1,-4 -1,-7 0,-2 0,-4 0,-7 0,-2 1,-6 2,-9 0,-3 1,-7 2,-10 1,-4 2,-7 3,-10 1,-2 3,-5 4,-6 1,-2 3,-3 4,-3 3,0 6,1 10,4 3,2 7,5 13,8 5,3 12,5 20,8 8,2 17,3 29,3 8,0 15,0 21,-2 6,-2 11,-5 15,-8 4,-4 7,-8 9,-12 2,-4 3,-9 3,-14 0,-7 -3,-13 -7,-17 -5,-5 -11,-9 -19,-12 -7,-4 -15,-8 -24,-12 -8,-4 -16,-9 -24,-15 -7,-5 -13,-13 -18,-21 -5,-9 -7,-20 -7,-33 0,-14 2,-27 8,-39 5,-12 13,-23 23,-32 11,-9 23,-16 38,-21 15,-5 32,-8 50,-8 9,0 17,1 25,2 8,1 15,3 21,4 6,2 12,4 16,6 5,2 8,5 10,7 2,2 3,5 3,10zm316 78c0,14 -1,29 -4,44 -2,15 -7,30 -12,45 -6,14 -14,28 -23,40 -9,13 -20,24 -32,34 -13,9 -27,17 -44,23 -16,5 -34,8 -55,8 -20,0 -38,-2 -52,-7 -15,-5 -27,-12 -37,-21 -10,-9 -17,-20 -22,-33 -5,-13 -7,-29 -7,-46 0,-14 1,-29 4,-44 3,-15 7,-30 13,-44 5,-15 13,-28 22,-41 9,-13 20,-24 33,-34 12,-9 27,-17 43,-22 17,-6 35,-9 56,-9 20,0 37,3 52,7 14,5 27,12 36,21 10,9 17,20 22,33 5,14 7,29 7,46zm-77 5c0,-8 -1,-16 -3,-22 -2,-6 -4,-12 -8,-16 -4,-5 -9,-8 -15,-11 -6,-2 -14,-3 -23,-3 -10,0 -19,2 -27,6 -8,3 -15,9 -21,15 -6,7 -12,14 -16,23 -5,9 -9,18 -12,27 -3,10 -5,20 -6,30 -2,9 -2,19 -2,28 0,8 1,16 2,22 2,7 5,12 9,17 4,4 9,8 15,10 6,2 13,4 22,4 10,0 19,-2 27,-6 8,-4 15,-9 21,-16 7,-7 12,-14 17,-23 4,-9 8,-18 11,-28 3,-9 5,-19 7,-29 1,-9 2,-19 2,-28zm393 -35c0,7 -1,14 -2,21 -1,7 -2,14 -3,21l-33 165c0,2 -1,4 -3,5 -1,2 -4,3 -7,4 -3,1 -7,2 -12,2 -5,1 -11,1 -18,1 -8,0 -14,0 -18,-1 -5,0 -8,-1 -11,-2 -2,-1 -4,-2 -5,-4 -1,-1 -1,-3 -1,-5l32 -160c1,-5 2,-10 2,-15 1,-5 1,-9 1,-13 0,-9 -2,-16 -6,-22 -3,-6 -10,-9 -19,-9 -8,0 -16,3 -25,8 -9,5 -18,12 -25,21 -8,9 -15,19 -22,31 -6,12 -10,25 -13,38l-24 121c0,2 -1,4 -3,5 -1,2 -3,3 -7,4 -3,1 -7,2 -12,2 -5,1 -11,1 -18,1 -7,0 -13,0 -18,-1 -5,0 -8,-1 -11,-2 -3,-1 -4,-2 -5,-4 -1,-1 -1,-3 -1,-5l54 -267c0,-2 1,-4 2,-5 1,-2 3,-3 6,-4 3,-1 6,-2 11,-2 4,-1 9,-1 15,-1 6,0 11,0 15,1 4,0 7,1 9,2 2,1 4,2 4,4 1,1 1,3 1,5l-9 44c5,-7 10,-14 17,-21 7,-8 15,-14 24,-20 9,-6 19,-10 30,-14 10,-4 21,-6 33,-6 14,0 26,2 35,6 10,5 17,10 23,17 6,7 10,15 13,24 2,10 4,20 4,30zm468 25c0,13 -1,27 -3,42 -3,15 -6,30 -11,44 -5,15 -12,29 -19,43 -8,14 -17,26 -28,36 -11,10 -24,19 -38,25 -14,6 -30,9 -47,9 -8,0 -15,-1 -22,-2 -7,-2 -14,-4 -20,-7 -5,-3 -11,-6 -15,-10 -5,-4 -9,-8 -13,-13l-24 121c0,2 -1,3 -3,5 -1,2 -3,3 -7,4 -3,1 -7,2 -12,3 -5,0 -11,1 -18,1 -8,0 -14,-1 -18,-1 -5,-1 -8,-2 -11,-3 -3,-1 -5,-2 -5,-4 -1,-2 -1,-3 -1,-5l75 -373c1,-4 4,-7 9,-9 5,-2 14,-3 27,-3 6,0 11,0 15,1 4,0 7,1 9,2 2,1 4,2 5,4 0,1 1,3 0,5l-8 43c3,-6 8,-13 14,-20 6,-7 14,-14 23,-19 9,-6 19,-11 30,-15 11,-4 22,-6 34,-6 15,0 28,3 39,8 10,6 18,13 25,22 6,9 11,20 14,32 3,13 4,26 4,40zm-77 7c0,-7 0,-13 -1,-19 -2,-6 -3,-10 -6,-14 -2,-4 -6,-7 -10,-9 -3,-2 -8,-3 -14,-3 -9,0 -18,3 -27,8 -9,5 -18,12 -25,21 -8,9 -15,20 -22,32 -6,12 -10,25 -13,39l-8 41c7,10 15,19 23,24 9,6 18,8 29,8 9,0 16,-2 23,-6 7,-4 13,-9 19,-16 5,-6 10,-14 14,-23 4,-9 8,-18 10,-27 3,-10 5,-19 6,-29 2,-10 2,-19 2,-27zm354 175c-1,2 -2,4 -3,6 -1,1 -3,2 -6,3 -3,1 -6,2 -10,2 -5,1 -10,1 -16,1 -6,0 -11,0 -15,-1 -4,0 -7,-1 -9,-2 -2,-1 -4,-2 -5,-3 0,-2 0,-4 0,-6l8 -43c-4,7 -9,14 -16,21 -7,7 -15,14 -24,19 -9,6 -19,11 -29,15 -11,3 -22,5 -33,5 -14,0 -26,-2 -36,-6 -9,-4 -17,-9 -23,-16 -6,-6 -10,-14 -13,-24 -3,-9 -4,-19 -4,-30 0,-7 1,-14 1,-21 1,-7 3,-14 4,-22l33 -165c0,-2 1,-4 3,-5 1,-2 4,-3 7,-4 3,-1 7,-2 12,-2 5,-1 11,-1 18,-1 7,0 13,0 18,1 5,0 9,1 11,2 3,1 4,2 5,4 1,1 2,3 1,5l-32 160c-1,5 -2,9 -2,14 -1,5 -1,9 -1,14 0,5 1,9 2,13 0,4 2,7 4,10 2,2 5,5 8,6 3,1 7,2 11,2 8,0 17,-3 25,-8 9,-5 18,-12 26,-22 8,-9 15,-20 21,-32 6,-13 11,-27 14,-42l23 -115c0,-2 1,-4 3,-5 1,-2 4,-3 7,-4 3,-1 7,-2 12,-2 5,-1 11,-1 18,-1 7,0 13,0 18,1 5,0 9,1 11,2 3,1 5,2 5,4 1,1 1,3 1,5l-53 267zm362 -207c0,7 -1,14 -1,21 -1,7 -3,14 -4,21l-33 165c0,2 -1,4 -3,5 -1,2 -3,3 -7,4 -3,1 -7,2 -12,2 -5,1 -11,1 -18,1 -7,0 -13,0 -18,-1 -5,0 -8,-1 -11,-2 -2,-1 -4,-2 -5,-4 -1,-1 -1,-3 -1,-5l32 -160c1,-5 2,-10 2,-15 1,-5 1,-9 1,-13 0,-9 -2,-16 -6,-22 -3,-6 -10,-9 -19,-9 -8,0 -16,3 -25,8 -9,5 -17,12 -25,21 -8,9 -15,19 -21,31 -7,12 -11,25 -14,38l-24 121c0,2 -1,4 -2,5 -2,2 -4,3 -7,4 -3,1 -8,2 -13,2 -5,1 -11,1 -18,1 -7,0 -13,0 -18,-1 -4,0 -8,-1 -11,-2 -2,-1 -4,-2 -5,-4 -1,-1 -1,-3 -1,-5l54 -267c0,-2 1,-4 2,-5 2,-2 4,-3 6,-4 3,-1 6,-2 11,-2 4,-1 9,-1 15,-1 6,0 11,0 15,1 4,0 7,1 9,2 3,1 4,2 5,4 0,1 0,3 0,5l-9 44c5,-7 10,-14 17,-21 7,-8 15,-14 24,-20 9,-6 19,-10 30,-14 10,-4 22,-6 33,-6 14,0 26,2 35,6 10,5 17,10 23,17 6,7 10,15 13,24 3,10 4,20 4,30zm240 -57c0,2 0,5 -1,8 0,3 -1,6 -1,10 -1,3 -2,7 -3,11 -1,3 -3,6 -4,9 -2,3 -3,6 -5,7 -2,2 -4,3 -6,3l-59 0 -25 126c0,2 -1,6 -1,10 -1,4 -1,8 -1,10 0,8 2,14 5,18 4,3 10,5 18,5 5,0 9,0 13,-1 3,0 6,-1 9,-2 2,-1 4,-2 6,-3 2,0 3,-1 5,-1 2,0 3,1 4,3 1,1 2,4 2,7 0,4 -1,8 -1,13 -1,5 -2,9 -4,14 -1,4 -2,8 -4,12 -1,4 -3,6 -5,8 -2,2 -5,4 -8,5 -4,2 -8,3 -13,4 -5,2 -10,3 -16,3 -5,1 -11,1 -16,1 -12,0 -23,-1 -32,-3 -9,-3 -17,-7 -23,-12 -6,-6 -10,-13 -14,-21 -3,-8 -4,-18 -4,-30 0,-3 0,-5 0,-8 0,-3 1,-6 1,-9 1,-3 1,-7 2,-10 0,-3 1,-6 1,-9l26 -130 -32 0c-3,0 -5,0 -6,-2 -1,-2 -2,-5 -2,-10 0,-3 1,-8 1,-13 1,-6 2,-11 4,-17 2,-5 4,-9 6,-13 3,-4 6,-6 10,-6l32 0 12 -60c0,-2 1,-3 3,-5 1,-2 3,-3 6,-4 4,-1 7,-2 12,-2 5,-1 11,-1 19,-1 7,0 13,0 18,1 5,0 8,1 11,2 2,1 4,2 5,4 1,2 1,3 1,5l-12 60 57 0c4,0 6,1 7,3 1,3 2,6 2,10zm290 87c0,14 -1,29 -4,44 -3,15 -7,30 -13,45 -5,14 -13,28 -22,40 -9,13 -20,24 -33,34 -12,9 -27,17 -43,23 -16,5 -35,8 -55,8 -20,0 -38,-2 -53,-7 -14,-5 -26,-12 -36,-21 -10,-9 -17,-20 -22,-33 -5,-13 -7,-29 -7,-46 0,-14 1,-29 4,-44 2,-15 7,-30 12,-44 6,-15 14,-28 23,-41 9,-13 20,-24 32,-34 13,-9 28,-17 44,-22 16,-6 35,-9 55,-9 20,0 38,3 52,7 15,5 27,12 37,21 10,9 17,20 22,33 5,14 7,29 7,46zm-78 5c0,-8 0,-16 -2,-22 -2,-6 -5,-12 -9,-16 -3,-5 -8,-8 -14,-11 -7,-2 -14,-3 -23,-3 -10,0 -19,2 -27,6 -8,3 -15,9 -21,15 -6,7 -12,14 -16,23 -5,9 -9,18 -12,27 -3,10 -5,20 -6,30 -2,9 -2,19 -2,28 0,8 0,16 2,22 2,7 5,12 8,17 4,4 9,8 15,10 7,2 14,4 23,4 10,0 19,-2 27,-6 8,-4 15,-9 21,-16 6,-7 12,-14 16,-23 5,-9 9,-18 12,-28 3,-9 5,-19 6,-29 2,-9 2,-19 2,-28zm326 -83c0,2 0,6 -1,11 0,4 -2,9 -3,14 -1,5 -3,9 -5,12 -2,4 -4,5 -6,5 -3,0 -6,-1 -9,-2 -4,-2 -8,-4 -13,-7 -5,-2 -11,-4 -17,-6 -7,-1 -15,-2 -24,-2 -7,0 -13,1 -18,2 -6,2 -10,5 -14,8 -4,3 -6,6 -8,11 -2,4 -3,8 -3,13 0,6 3,11 8,15 5,5 11,9 19,12 7,4 15,8 24,12 9,4 17,9 24,15 8,6 14,13 19,22 5,8 8,19 8,32 0,15 -3,29 -9,42 -6,13 -14,24 -25,33 -11,9 -25,17 -41,22 -15,5 -33,8 -53,8 -10,0 -19,-1 -28,-2 -8,-2 -16,-3 -23,-5 -7,-2 -13,-4 -17,-7 -5,-2 -9,-5 -11,-7 -2,-2 -3,-3 -4,-5 0,-2 -1,-4 -1,-7 0,-2 1,-4 1,-7 0,-2 1,-6 1,-9 1,-3 2,-7 3,-10 1,-4 2,-7 3,-10 1,-2 2,-5 4,-6 1,-2 3,-3 4,-3 3,0 6,1 10,4 3,2 7,5 13,8 5,3 12,5 20,8 7,2 17,3 29,3 8,0 15,0 21,-2 6,-2 11,-5 15,-8 4,-4 7,-8 9,-12 2,-4 3,-9 3,-14 0,-7 -3,-13 -8,-17 -4,-5 -11,-9 -18,-12 -7,-4 -15,-8 -24,-12 -9,-4 -16,-9 -24,-15 -7,-5 -13,-13 -18,-21 -5,-9 -7,-20 -7,-33 0,-14 2,-27 8,-39 5,-12 13,-23 23,-32 11,-9 23,-16 38,-21 15,-5 31,-8 50,-8 9,0 17,1 25,2 7,1 15,3 21,4 6,2 12,4 16,6 5,2 8,5 10,7 2,2 3,5 3,10zm-3435 638c0,1 0,4 0,7 0,3 -1,6 -2,10 0,4 -1,8 -2,12 -1,4 -2,8 -4,11 -1,3 -3,6 -5,9 -2,2 -4,3 -7,3l-127 0 -20 104 119 0c2,0 4,1 6,3 1,2 1,5 1,9 0,1 0,4 0,7 -1,3 -1,6 -2,10 -1,3 -1,7 -2,11 -2,5 -3,8 -4,11 -2,4 -4,6 -6,9 -2,2 -4,3 -6,3l-119 0 -28 144c-1,3 -2,5 -3,6 -2,2 -4,3 -8,4 -3,1 -7,2 -12,2 -5,1 -12,1 -19,1 -8,0 -15,0 -19,-1 -5,0 -9,-1 -12,-2 -3,-1 -5,-2 -6,-4 -1,-1 -1,-3 0,-6l69 -351c2,-8 6,-15 11,-19 6,-3 12,-5 19,-5l181 0c3,0 5,1 6,3 1,2 1,5 1,9zm229 365c-1,4 -4,7 -9,9 -6,1 -14,2 -27,2 -6,0 -11,0 -15,0 -4,-1 -7,-1 -9,-2 -3,-1 -4,-2 -5,-4 0,-1 -1,-3 0,-5l8 -43c-3,6 -8,13 -14,20 -7,7 -15,14 -23,19 -9,6 -19,11 -30,15 -11,3 -22,5 -34,5 -16,0 -29,-3 -40,-8 -10,-6 -19,-13 -25,-23 -7,-9 -11,-20 -14,-32 -3,-12 -4,-25 -4,-38 0,-13 1,-27 4,-41 2,-15 6,-30 11,-45 5,-15 11,-29 19,-42 8,-14 17,-26 28,-37 11,-10 23,-19 37,-25 14,-6 30,-9 48,-9 17,0 31,3 44,10 13,7 24,17 33,30l5 -24c1,-4 4,-7 10,-9 5,-2 14,-2 26,-2 6,0 11,0 15,0 4,1 7,1 9,2 3,1 4,2 5,4 1,1 1,3 1,5l-54 268zm-37 -188c-7,-10 -15,-19 -23,-24 -9,-5 -18,-8 -29,-8 -9,0 -17,2 -24,6 -7,4 -13,9 -18,16 -6,6 -11,14 -15,23 -4,9 -7,18 -10,27 -2,10 -5,19 -6,29 -1,10 -2,18 -2,27 0,5 1,11 2,16 0,6 2,11 5,15 2,4 5,7 9,10 4,2 10,4 16,4 9,0 17,-3 27,-8 9,-6 17,-13 26,-22 7,-9 14,-20 21,-32 6,-12 10,-24 13,-38l8 -41zm334 -84c0,2 0,4 -1,8 0,4 -1,8 -1,12 -1,5 -2,10 -3,15 -2,5 -3,10 -4,14 -2,5 -4,8 -5,11 -2,3 -4,4 -7,4 -1,0 -3,0 -5,-1 -2,0 -4,-1 -6,-2 -2,-1 -5,-1 -7,-2 -3,-1 -6,-1 -9,-1 -7,0 -14,3 -22,8 -7,5 -15,12 -22,20 -6,9 -13,19 -18,30 -6,11 -9,23 -12,35l-24 120c0,2 -1,4 -3,6 -1,1 -4,2 -7,3 -3,1 -7,2 -12,3 -5,0 -11,0 -18,0 -8,0 -13,0 -18,0 -5,-1 -8,-2 -11,-3 -3,-1 -4,-2 -5,-3 -1,-2 -1,-4 -1,-6l53 -267c1,-2 2,-4 3,-5 1,-2 3,-3 6,-4 3,-1 6,-1 10,-2 5,0 10,0 16,0 6,0 11,0 15,0 4,1 7,1 9,2 2,1 4,2 4,4 1,1 1,3 1,5l-8 43c4,-9 10,-17 16,-24 6,-7 13,-13 20,-19 7,-5 14,-9 22,-12 8,-3 15,-4 22,-4 3,0 6,0 9,0 4,1 6,1 9,2 3,0 5,1 7,2 2,1 4,2 5,3 1,1 2,3 2,5zm413 271c0,2 -1,4 -3,6 -1,1 -4,2 -7,3 -3,1 -7,2 -12,3 -5,0 -11,0 -19,0 -7,0 -13,0 -18,0 -4,-1 -8,-2 -10,-3 -3,-1 -5,-2 -6,-3 0,-2 -1,-4 0,-6l31 -160c1,-4 2,-9 2,-13 1,-5 1,-9 1,-14 0,-9 -2,-17 -5,-23 -3,-6 -10,-8 -18,-8 -8,0 -17,2 -25,7 -9,5 -17,13 -25,21 -8,9 -15,20 -21,32 -6,11 -10,24 -13,37l-24 121c0,2 -1,4 -3,6 -1,1 -4,2 -7,3 -3,1 -7,2 -12,3 -5,0 -11,0 -18,0 -8,0 -13,0 -18,0 -5,-1 -8,-2 -11,-3 -3,-1 -4,-2 -5,-3 -1,-2 -1,-4 -1,-6l32 -160c1,-4 2,-9 2,-14 1,-5 1,-10 1,-14 0,-9 -2,-16 -5,-22 -4,-6 -10,-8 -19,-8 -8,0 -16,2 -25,7 -8,5 -17,13 -24,21 -8,9 -15,20 -21,32 -6,11 -11,24 -13,37l-24 121c-1,2 -2,4 -3,6 -2,1 -4,2 -7,3 -3,1 -7,2 -12,3 -5,0 -11,0 -19,0 -7,0 -13,0 -18,0 -4,-1 -8,-2 -11,-3 -2,-1 -4,-2 -5,-3 -1,-2 -1,-4 0,-6l53 -267c0,-2 1,-4 2,-5 2,-2 4,-3 6,-4 3,-1 7,-1 11,-2 4,0 9,0 15,0 6,0 11,0 15,0 4,1 7,1 10,2 2,1 3,2 4,4 1,1 1,3 0,5l-8 44c4,-7 9,-14 16,-21 7,-7 15,-14 24,-20 9,-5 19,-10 29,-14 11,-4 21,-5 32,-5 12,0 22,1 31,4 8,3 15,8 20,13 6,6 10,12 13,19 3,8 5,16 6,24 4,-7 10,-14 17,-21 7,-7 15,-14 24,-20 9,-5 18,-10 29,-14 10,-4 21,-5 32,-5 14,0 25,2 35,5 9,4 17,10 23,17 5,6 10,14 12,24 3,9 4,19 4,30 0,7 0,14 -1,21 -1,7 -2,14 -4,22l-32 164zm321 1c-1,4 -4,7 -10,9 -5,1 -14,2 -26,2 -6,0 -11,0 -15,0 -4,-1 -7,-1 -10,-2 -2,-1 -3,-2 -4,-4 -1,-1 -1,-3 -1,-5l9 -43c-3,6 -8,13 -15,20 -6,7 -14,14 -23,19 -9,6 -19,11 -30,15 -10,3 -22,5 -33,5 -16,0 -30,-3 -40,-8 -11,-6 -19,-13 -26,-23 -6,-9 -11,-20 -13,-32 -3,-12 -4,-25 -4,-38 0,-13 1,-27 3,-41 3,-15 6,-30 11,-45 5,-15 12,-29 19,-42 8,-14 18,-26 29,-37 10,-10 23,-19 37,-25 14,-6 30,-9 48,-9 16,0 31,3 43,10 13,7 24,17 34,30l5 -24c0,-4 4,-7 9,-9 6,-2 15,-2 27,-2 6,0 11,0 15,0 4,1 7,1 9,2 2,1 4,2 5,4 0,1 1,3 0,5l-53 268zm-37 -188c-7,-10 -15,-19 -24,-24 -8,-5 -18,-8 -29,-8 -8,0 -16,2 -23,6 -7,4 -13,9 -19,16 -5,6 -10,14 -14,23 -4,9 -7,18 -10,27 -3,10 -5,19 -6,29 -2,10 -2,18 -2,27 0,5 0,11 1,16 1,6 3,11 5,15 3,4 6,7 10,10 4,2 9,4 15,4 9,0 18,-3 27,-8 9,-6 18,-13 26,-22 8,-9 15,-20 21,-32 6,-12 11,-24 13,-38l9 -41zm399 -20c0,7 0,14 -1,21 -1,7 -2,14 -4,22l-32 164c-1,2 -2,4 -3,6 -2,1 -4,2 -7,3 -3,1 -7,2 -12,3 -5,0 -11,0 -19,0 -7,0 -13,0 -18,0 -4,-1 -8,-2 -11,-3 -2,-1 -4,-2 -5,-3 -1,-2 -1,-4 0,-6l31 -160c1,-4 2,-9 3,-14 0,-5 0,-10 0,-14 0,-9 -1,-16 -5,-22 -4,-6 -10,-8 -19,-8 -9,0 -17,2 -26,7 -9,5 -17,13 -25,21 -8,9 -15,20 -21,32 -6,11 -11,24 -13,37l-24 121c-1,2 -2,4 -3,6 -2,1 -4,2 -7,3 -3,1 -7,2 -12,3 -5,0 -11,0 -19,0 -7,0 -13,0 -18,0 -4,-1 -8,-2 -10,-3 -3,-1 -5,-2 -6,-3 0,-2 -1,-4 0,-6l53 -267c0,-2 1,-4 3,-5 1,-2 3,-3 6,-4 2,-1 6,-1 10,-2 4,0 9,0 15,0 7,0 12,0 15,0 4,1 7,1 10,2 2,1 3,2 4,4 1,1 1,3 0,5l-8 44c4,-7 9,-14 16,-21 7,-7 15,-14 24,-20 10,-5 19,-10 30,-14 11,-4 22,-5 33,-5 14,0 26,2 36,6 9,4 17,9 22,16 6,7 11,15 13,25 3,9 4,19 4,29zm330 30c0,15 -1,29 -4,45 -2,15 -7,29 -12,44 -6,14 -14,28 -23,41 -9,12 -20,23 -32,33 -13,10 -27,17 -44,23 -16,5 -34,8 -55,8 -20,0 -38,-2 -52,-7 -15,-5 -27,-11 -37,-20 -10,-10 -17,-21 -22,-34 -5,-13 -7,-28 -7,-45 0,-15 1,-29 4,-45 3,-15 7,-30 13,-44 6,-14 13,-28 22,-41 9,-13 20,-24 33,-33 12,-10 27,-17 43,-23 17,-6 35,-8 56,-8 20,0 37,2 52,7 14,4 27,11 36,20 10,9 17,20 22,34 5,13 7,28 7,45zm-77 6c0,-9 -1,-16 -3,-23 -2,-6 -4,-12 -8,-16 -4,-5 -9,-8 -15,-10 -6,-3 -14,-4 -23,-4 -10,0 -18,2 -26,6 -8,4 -16,9 -22,16 -6,6 -12,14 -16,22 -5,9 -9,18 -12,28 -2,9 -5,19 -6,29 -1,10 -2,19 -2,28 0,8 1,16 2,22 2,7 5,12 9,17 4,4 9,8 15,10 6,3 13,4 22,4 10,0 19,-2 27,-6 8,-4 15,-9 21,-16 7,-6 12,-14 17,-23 4,-8 8,-18 11,-27 3,-10 5,-20 7,-29 1,-10 2,-19 2,-28zm327 -100c0,2 0,4 0,8 -1,4 -1,8 -2,12 -1,5 -2,10 -3,15 -1,5 -3,10 -4,14 -2,5 -3,8 -5,11 -2,3 -4,4 -6,4 -2,0 -4,0 -6,-1 -1,0 -3,-1 -6,-2 -2,-1 -4,-1 -7,-2 -2,-1 -5,-1 -9,-1 -7,0 -14,3 -21,8 -8,5 -15,12 -22,20 -7,9 -13,19 -19,30 -5,11 -9,23 -12,35l-24 120c0,2 -1,4 -2,6 -2,1 -4,2 -7,3 -3,1 -8,2 -13,3 -5,0 -11,0 -18,0 -7,0 -13,0 -18,0 -4,-1 -8,-2 -11,-3 -2,-1 -4,-2 -5,-3 -1,-2 -1,-4 -1,-6l54 -267c0,-2 1,-4 2,-5 2,-2 4,-3 6,-4 3,-1 7,-1 11,-2 4,0 9,0 15,0 6,0 11,0 15,0 4,1 7,1 9,2 2,1 4,2 5,4 0,1 0,3 0,5l-8 43c5,-9 10,-17 16,-24 7,-7 13,-13 20,-19 7,-5 15,-9 22,-12 8,-3 15,-4 23,-4 3,0 6,0 9,0 3,1 6,1 8,2 3,0 5,1 8,2 2,1 3,2 5,3 1,1 1,3 1,5zm204 7c0,2 0,5 0,8 -1,3 -1,6 -2,10 -1,4 -2,7 -3,11 -1,3 -2,7 -4,9 -1,3 -3,6 -5,8 -2,2 -4,3 -6,3l-58 0 -26 125c0,3 -1,6 -1,10 -1,4 -1,8 -1,10 0,8 2,14 6,18 4,4 10,6 18,6 4,0 9,-1 12,-1 3,-1 6,-2 9,-3 2,-1 5,-2 6,-2 2,-1 4,-1 5,-1 2,0 3,0 5,2 1,1 1,4 1,7 0,4 0,8 -1,13 -1,5 -2,10 -3,14 -1,4 -3,9 -5,12 -1,4 -3,7 -5,8 -1,2 -4,4 -8,6 -3,1 -8,3 -13,4 -4,1 -10,2 -15,3 -6,0 -11,1 -17,1 -12,0 -23,-2 -32,-4 -9,-3 -16,-7 -22,-12 -7,-5 -11,-12 -14,-21 -3,-8 -5,-18 -5,-30 0,-2 0,-5 0,-8 1,-3 1,-6 2,-9 0,-3 0,-6 1,-10 0,-3 1,-6 2,-8l26 -130 -33 0c-2,0 -4,-1 -5,-3 -2,-2 -2,-5 -2,-10 0,-3 0,-8 1,-13 1,-6 2,-11 3,-16 2,-6 4,-10 7,-14 2,-4 5,-6 9,-6l32 0 12 -59c0,-2 1,-4 3,-6 1,-1 4,-3 7,-4 3,-1 7,-2 12,-2 4,-1 11,-1 18,-1 7,0 13,0 18,1 5,0 8,1 11,2 3,1 5,3 5,4 1,2 2,4 1,6l-12 59 58 0c3,0 5,1 6,4 2,2 2,5 2,9zm275 56c0,15 -3,28 -10,39 -6,12 -16,21 -30,30 -13,8 -31,14 -52,19 -21,4 -46,6 -75,6l-27 0c-1,5 -1,9 -2,14 0,4 -1,8 -1,12 0,16 5,29 13,37 8,8 22,12 40,12 13,0 25,-1 36,-3 10,-2 19,-4 27,-6 8,-3 14,-5 20,-7 5,-2 9,-2 11,-2 2,0 4,0 5,2 1,1 2,3 2,6 0,4 -1,7 -1,12 -1,4 -2,9 -3,13 -1,4 -2,8 -4,12 -2,4 -4,7 -6,9 -2,2 -7,4 -13,7 -6,2 -14,4 -23,6 -9,2 -19,4 -30,5 -11,2 -23,2 -34,2 -19,0 -36,-2 -50,-6 -15,-4 -27,-10 -36,-18 -10,-8 -17,-19 -22,-31 -4,-13 -7,-28 -7,-45 0,-14 1,-28 4,-43 2,-15 7,-30 12,-45 6,-15 13,-29 22,-43 8,-13 19,-25 31,-35 13,-11 27,-19 44,-25 16,-6 35,-9 56,-9 18,0 33,2 46,6 13,4 24,10 32,17 9,7 15,15 19,24 4,9 6,19 6,28zm-74 6c0,-8 -3,-15 -9,-20 -7,-5 -16,-8 -27,-8 -10,0 -19,2 -27,5 -8,4 -15,9 -21,15 -6,6 -11,13 -15,21 -4,9 -8,17 -10,27l25 0c15,0 29,-1 39,-3 11,-2 20,-5 26,-9 7,-3 11,-8 14,-13 3,-4 5,-10 5,-15zm377 -101c0,15 -3,31 -7,46 -5,15 -12,28 -22,40 -9,12 -22,22 -37,30 -15,9 -34,14 -55,16l-14 57c-1,3 -4,6 -10,8 -6,2 -14,3 -25,3 -6,0 -11,0 -16,-1 -4,0 -8,-1 -10,-2 -3,0 -4,-1 -5,-3 -1,-1 -1,-3 -1,-5l11 -71c1,-6 3,-11 4,-15 2,-4 4,-7 7,-10 2,-2 5,-4 8,-5 4,-1 7,-1 12,-1l2 0c14,0 27,-2 37,-7 10,-5 17,-11 24,-19 6,-7 10,-15 12,-24 3,-9 4,-17 4,-25 0,-8 -1,-15 -3,-21 -2,-6 -6,-12 -10,-17 -5,-4 -10,-8 -17,-10 -7,-3 -15,-4 -24,-4 -11,0 -20,1 -29,3 -8,2 -15,5 -21,7 -6,3 -11,5 -15,8 -4,2 -7,3 -9,3 -2,0 -3,-1 -4,-3 -1,-2 -2,-6 -2,-10 0,-2 0,-5 1,-10 0,-4 1,-8 2,-13 1,-5 2,-9 4,-13 2,-5 3,-8 6,-10 2,-2 6,-5 12,-7 6,-3 13,-6 21,-8 8,-2 16,-4 25,-5 9,-2 18,-2 27,-2 15,0 28,1 40,4 12,2 22,6 30,11 9,5 16,10 22,17 6,6 11,13 14,20 4,8 7,16 8,24 2,8 3,16 3,24zm-139 255c0,4 -1,8 -2,13 0,5 -1,9 -3,14 -1,5 -3,10 -5,14 -2,4 -4,8 -6,10 -4,4 -9,7 -15,9 -6,2 -13,3 -23,3 -7,0 -13,-1 -17,-2 -5,-1 -9,-3 -11,-5 -3,-2 -5,-5 -6,-8 -1,-3 -1,-6 -1,-10 0,-3 0,-7 1,-12 0,-5 1,-10 3,-15 1,-5 3,-9 5,-14 1,-4 4,-8 7,-11 4,-4 9,-7 15,-9 6,-2 13,-2 21,-2 8,0 14,0 19,2 5,1 8,3 11,5 3,2 4,5 5,8 1,3 2,7 2,10zm-392 -253c15,-11 32,-19 49,-26 24,-9 50,-13 76,-13 21,0 43,3 64,10 18,6 36,15 51,27 14,12 25,27 33,44 7,16 11,34 11,51 0,24 -5,46 -17,66 -10,20 -26,35 -44,47 2,2 4,5 6,7 8,12 12,25 12,39 0,7 -1,13 -2,20 -1,6 -2,13 -3,18 -2,8 -5,15 -7,21 -5,10 -11,20 -19,27 -9,9 -20,15 -32,19 -10,4 -20,7 -31,9 -12,3 -24,5 -36,6 -13,2 -27,2 -40,2 -22,0 -44,-2 -66,-8 -20,-5 -40,-15 -57,-29 -1,-1 -2,-3 -4,-4 -2,4 -5,8 -9,11 -7,7 -15,13 -24,17 -8,3 -15,5 -23,7 -7,2 -15,3 -22,4 -8,1 -16,2 -24,2 -16,0 -31,-2 -47,-6 -16,-4 -31,-12 -44,-23 -14,-12 -24,-27 -30,-44 -6,-16 -8,-33 -8,-50 0,-4 0,-8 0,-12 1,-4 1,-9 2,-14 0,-3 1,-6 1,-9 1,-4 2,-8 2,-12l11 -53c0,0 0,0 0,0 -8,0 -16,-2 -23,-4 -2,1 -3,3 -5,5 -4,6 -8,12 -11,18 -4,7 -6,15 -7,22l-24 120c-3,13 -9,25 -17,33 -9,9 -20,15 -32,19 -7,2 -15,4 -23,5 -8,0 -16,1 -24,1 -8,0 -16,-1 -24,-1 -8,-1 -16,-3 -25,-6 -15,-6 -27,-16 -35,-30 -2,-4 -3,-8 -4,-12 -5,4 -9,7 -13,11 -18,13 -38,24 -59,31 -24,8 -49,11 -74,11 -23,0 -47,-2 -69,-9 -22,-7 -42,-18 -58,-33 -6,-5 -11,-11 -16,-17 -3,12 -9,23 -18,31 -8,9 -18,14 -30,18 -8,2 -15,4 -23,5 -8,0 -16,1 -24,1 -8,0 -16,-1 -24,-1 -8,-1 -16,-3 -24,-6l-1 0c-14,-6 -25,-15 -33,-27l-1 -2 0 -1c-1,-1 -1,-2 -2,-2 -2,5 -6,10 -10,14 -9,9 -19,15 -31,19 -8,2 -16,4 -24,5 -8,0 -16,1 -24,1 -8,0 -16,-1 -24,-1 -8,-1 -16,-3 -25,-6 -9,-4 -17,-9 -24,-16 -8,8 -18,14 -29,17 -14,5 -30,6 -44,6 -7,0 -14,-1 -21,-1 -8,-1 -16,-3 -24,-6 -3,-1 -6,-2 -9,-4 -5,3 -11,5 -16,7 -17,5 -35,8 -52,8 -23,0 -46,-4 -66,-14 -18,-10 -33,-22 -44,-38 -4,9 -9,17 -16,24 -9,9 -19,15 -31,18 -7,2 -15,4 -22,5 -9,0 -17,1 -25,1 -8,0 -16,-1 -24,-1 -8,-1 -16,-3 -25,-6 -14,-6 -25,-15 -33,-27l0 -2 -1 -1c0,0 0,0 0,0 -3,4 -6,9 -10,12 -8,9 -19,16 -32,19 -7,2 -15,4 -22,5 -8,0 -16,1 -24,1 -8,0 -16,-1 -24,-1 -8,-1 -16,-3 -24,-6l-2 0c-14,-6 -25,-15 -33,-28 0,0 -1,-1 -1,-2 -3,5 -6,9 -9,12 -9,9 -20,15 -31,19 -8,2 -16,4 -24,5 -8,0 -16,1 -24,1 -8,0 -16,-1 -24,-1 -8,-1 -16,-3 -25,-6 -14,-6 -27,-16 -34,-30 -8,-13 -10,-29 -7,-43l28 -140c-3,-1 -7,-2 -10,-3 -2,1 -4,3 -5,5 -5,6 -8,12 -11,18 -4,7 -6,15 -8,22l-24 120c-2,13 -9,25 -17,33 -8,9 -19,15 -31,19 -7,2 -15,4 -23,5 -8,0 -16,1 -24,1 -8,0 -16,-1 -24,-1 -8,-1 -16,-3 -25,-6 -10,-4 -18,-9 -25,-16 -8,8 -18,14 -29,17 -14,5 -29,6 -44,6 -7,0 -14,-1 -21,-1 -8,-1 -16,-3 -23,-6 -3,-1 -6,-2 -9,-4 -6,3 -11,5 -17,7 -17,5 -34,8 -52,8 -23,0 -46,-4 -66,-14 -19,-10 -34,-24 -46,-41 -10,-16 -18,-33 -22,-52 -3,-16 -5,-33 -5,-50 0,-2 0,-3 0,-5l-66 0 -19 99c-3,13 -9,25 -19,35 -8,8 -19,14 -31,18 -7,2 -15,3 -22,4 -8,1 -17,2 -25,2 -9,0 -18,-1 -26,-2 -8,-1 -15,-2 -24,-5 -14,-5 -25,-13 -34,-27 -9,-14 -12,-31 -8,-48l69 -350c5,-22 16,-41 34,-53 15,-11 32,-17 51,-17l181 0c25,0 48,14 58,38 4,10 6,20 6,31 0,4 -1,8 -1,12 -1,5 -1,10 -2,15 -1,5 -2,10 -3,15 -1,2 -1,3 -1,4 4,-3 9,-5 14,-7 23,-10 47,-15 71,-15 23,0 44,5 65,14 3,-1 6,-2 9,-3 14,-5 30,-6 44,-6 8,0 15,1 22,1 8,2 16,3 24,6 8,4 16,9 23,16 7,-8 17,-13 27,-17 7,-2 14,-4 22,-5 7,0 14,-1 22,-1 7,0 15,0 22,1 8,2 16,3 24,6 0,1 1,1 2,1 3,-1 7,-3 10,-4 14,-6 29,-9 43,-9 6,0 11,1 17,1 4,1 8,2 13,3 5,1 10,2 15,4l2 1 2 1c4,1 7,3 11,6 3,-2 7,-4 10,-5 7,-2 15,-4 22,-5 7,0 15,-1 22,-1 8,0 15,0 23,1 8,2 16,3 23,6 3,2 5,3 8,4 6,-2 11,-5 17,-7 17,-6 34,-9 51,-9 17,0 34,3 50,8 12,5 23,11 33,19 12,-7 25,-13 38,-18 16,-6 33,-9 51,-9 19,0 38,3 56,10 17,7 33,18 45,32 7,10 14,20 18,31 6,-8 13,-15 20,-22 16,-15 34,-27 54,-36 22,-10 46,-15 71,-15 22,0 44,5 64,14 3,-1 7,-2 10,-3 14,-5 29,-6 44,-6 7,0 15,1 22,1 8,2 16,3 23,6 9,4 17,9 23,16 8,-8 17,-13 28,-17 7,-2 14,-4 21,-5 8,0 15,-1 22,-1 8,0 15,0 23,1 8,2 16,3 23,6 3,2 6,3 8,4 6,-2 12,-5 19,-7 16,-6 34,-9 51,-9 20,0 40,3 58,11 17,7 32,18 44,32 8,10 14,21 19,32 10,-12 21,-23 34,-32 18,-14 38,-24 59,-31 24,-8 49,-12 74,-12 23,0 47,3 69,10 21,7 41,18 58,33 6,6 12,13 17,20l1 -2c2,-11 7,-21 15,-30l1 -1c8,-9 18,-15 29,-19 7,-2 15,-4 22,-5 7,0 15,-1 22,-1 8,0 15,0 23,1 8,2 15,3 23,6 1,1 1,1 2,1 4,-1 7,-3 11,-4 13,-6 28,-9 43,-9 5,0 11,1 16,1 4,1 8,2 14,3 5,1 10,2 15,4l1 1c1,0 1,0 2,0l3 -17c3,-12 8,-23 17,-32 8,-9 18,-15 29,-19 8,-3 16,-4 25,-5 8,-1 16,-1 24,-1 8,0 16,0 24,1 9,1 19,3 27,7 13,5 24,14 32,26l1 2 1 2c5,11 7,23 6,35 19,3 36,14 45,31zm762 -722c6,-8 13,-15 20,-21 17,-15 36,-25 57,-32 22,-8 45,-11 68,-11 11,0 22,1 32,2 10,2 19,3 29,6 8,2 17,5 25,9 10,5 19,11 27,19 13,13 19,31 19,49 0,6 -1,13 -2,19 -1,7 -3,14 -5,22 -2,8 -5,15 -9,23 -7,12 -17,22 -29,28 4,5 7,9 10,14 11,19 15,39 15,61 0,22 -4,44 -14,65 -9,20 -23,38 -40,53 -17,15 -37,25 -59,32 -23,8 -47,11 -71,11 -12,0 -24,-1 -36,-3 -10,-1 -20,-3 -30,-6 -10,-3 -20,-6 -29,-11 -7,-4 -15,-9 -21,-15l-2 -1 -2 -3c-4,-3 -7,-7 -9,-11 -3,3 -6,5 -9,7 -18,14 -38,24 -60,32 -23,8 -48,11 -73,11 -24,0 -47,-2 -70,-9 -21,-7 -41,-18 -57,-33 -1,-1 -1,-1 -1,-1 -3,5 -6,9 -10,13 -7,7 -16,12 -25,16 -7,4 -14,6 -22,8 -7,2 -15,3 -22,4 -8,1 -16,2 -24,2 -16,0 -32,-2 -47,-6 -16,-5 -32,-12 -45,-24 -8,-7 -15,-16 -21,-26 -3,11 -9,20 -17,28 -8,8 -18,14 -31,18 -7,2 -14,4 -22,4 -8,1 -16,1 -24,1 -8,0 -16,0 -24,-1 -8,-1 -16,-2 -24,-5l-2 -1c-13,-5 -24,-14 -32,-26l-1 -2 -1 -1c0,-1 0,-2 -1,-3 -3,6 -6,11 -10,15 -9,9 -20,15 -32,19 -7,2 -15,4 -23,4 -8,1 -16,1 -24,1 -8,0 -16,0 -24,-1 -8,-1 -16,-2 -25,-5 -9,-4 -18,-9 -24,-16 -8,7 -17,13 -28,16 -7,3 -14,4 -22,5 -7,1 -14,1 -22,1 -7,0 -15,0 -22,-1 -8,-1 -16,-3 -24,-6 -3,-1 -5,-2 -8,-4 -6,3 -12,6 -18,8 -17,5 -34,8 -51,8 -19,0 -39,-2 -56,-10 -18,-6 -33,-17 -45,-30 -8,-10 -15,-21 -20,-32 -6,8 -13,15 -21,23 -15,15 -33,26 -53,35 -22,10 -46,14 -70,14 -10,0 -20,-1 -29,-2l-10 46c-2,12 -7,22 -15,31l-2 2 -1 1c-8,8 -18,14 -28,17 -8,3 -16,5 -24,6 -8,1 -17,1 -25,1 -9,0 -17,0 -26,-2 -8,-1 -16,-3 -24,-6 -15,-5 -27,-16 -35,-31 -6,-13 -8,-27 -5,-41l75 -373c5,-25 22,-44 46,-52 14,-4 30,-5 45,-5 7,0 15,0 22,1 8,1 15,3 23,6 3,1 5,2 8,4 5,-3 11,-5 17,-7 16,-6 34,-9 52,-9 22,0 44,4 64,14 18,9 34,23 46,40 0,0 0,0 0,0 3,-10 9,-19 16,-26 9,-9 19,-14 31,-18 7,-2 15,-3 22,-4 8,-1 16,-1 24,-1 8,0 16,0 24,1 8,1 16,2 24,5 15,5 27,15 35,29 1,1 2,2 2,4 3,-6 7,-11 12,-16l1 -1c9,-8 19,-14 30,-17 7,-2 15,-3 22,-4 8,-1 16,-1 24,-1 8,0 16,0 24,1 8,1 16,2 24,5 10,3 19,9 26,16 8,-7 17,-13 27,-16 7,-3 15,-4 22,-5 7,-1 15,-1 22,-1 8,0 15,0 23,1 8,1 15,3 23,6 3,1 5,3 8,4 6,-3 12,-5 18,-7 17,-6 34,-9 52,-9 20,0 39,3 57,11 12,5 24,12 33,20 10,-11 23,-19 37,-23l4 -16c2,-12 8,-23 17,-32 8,-9 17,-15 28,-19 8,-3 17,-4 25,-5 8,-1 17,-1 25,-1 8,0 16,0 24,1 9,1 18,3 27,6 13,6 24,15 31,27l1 2 1 2c6,11 8,23 7,35 18,3 35,13 44,30 17,-11 34,-20 53,-26 23,-9 48,-12 73,-12 24,0 47,3 70,10 21,7 41,17 57,33 7,6 14,13 19,21zm-1954 -1l1 -2c2,-11 7,-22 15,-30 8,-10 18,-16 30,-20 7,-3 14,-4 22,-5 7,-1 15,-1 22,-1 7,0 15,0 22,1 8,1 16,3 24,6 3,1 5,3 8,4 6,-3 12,-5 18,-7 17,-6 34,-9 52,-9 20,0 39,3 57,11 17,7 32,18 44,32 11,13 19,29 24,45 4,15 6,30 6,45 0,9 -1,19 -2,28 -1,9 -2,17 -4,25l-33 166c-3,13 -9,24 -18,33 -8,8 -18,14 -31,18 -7,2 -15,4 -22,4 -8,1 -16,1 -24,1 -8,0 -16,0 -24,-1 -8,-1 -17,-2 -24,-5l-2 -1c-13,-5 -25,-14 -32,-26l-1 -2 -1 -1c0,-1 -1,-2 -1,-3 -3,6 -6,11 -10,15 -9,9 -20,15 -32,19 -7,2 -15,4 -23,4 -8,1 -16,1 -24,1 -8,0 -16,0 -24,-1 -8,-1 -16,-2 -25,-5 -15,-6 -27,-16 -35,-30 -2,-4 -3,-8 -5,-12 -4,4 -8,7 -12,10 -18,14 -38,24 -60,32 -23,8 -48,11 -73,11 -23,0 -47,-2 -69,-9 -22,-7 -42,-18 -58,-33 -7,-6 -12,-13 -17,-19 -6,6 -12,12 -19,18 -17,15 -37,25 -59,32 -23,8 -47,11 -71,11 -12,0 -24,-1 -36,-3 -10,-1 -20,-3 -30,-6 -10,-3 -20,-6 -29,-11 -7,-4 -15,-9 -21,-15l-2 -1 -2 -3c-6,-6 -11,-14 -15,-23 -3,-8 -5,-17 -5,-27 0,-4 1,-9 1,-13 1,-5 1,-10 2,-15 1,-4 2,-8 4,-13 1,-6 3,-12 6,-17 3,-7 7,-14 11,-20 9,-10 20,-18 32,-21 -1,-3 -3,-6 -5,-9 -10,-18 -15,-39 -15,-60 0,-21 5,-42 13,-62 9,-20 22,-37 38,-51 17,-15 36,-25 57,-32 22,-8 45,-11 68,-11 11,0 22,1 33,2 9,2 19,3 28,6 8,2 17,5 25,9 10,5 19,11 27,19 6,6 10,12 13,19 5,-4 10,-9 15,-13 18,-13 38,-23 59,-30 24,-9 49,-12 74,-12 23,0 47,3 69,10 21,7 41,17 58,33 6,6 12,12 17,20zm-911 -47c0,-4 0,-8 1,-12 3,-9 7,-18 12,-24l46 -70 1 -2c4,-6 10,-11 15,-15 8,-7 17,-11 27,-14 8,-2 15,-4 23,-4 7,-1 14,-1 22,-1 10,0 21,0 31,2 10,2 21,5 30,11l1 1 2 1c20,14 31,39 26,63 -3,12 -8,22 -16,31l-37 43c5,3 10,7 15,11 14,12 26,27 34,44 7,16 11,33 11,51 0,23 -6,46 -17,66 -11,19 -26,35 -44,47 2,2 4,4 6,7 8,12 11,25 11,39 0,6 0,13 -1,19 -1,7 -2,14 -4,18 -2,8 -4,16 -7,22 -4,10 -11,19 -19,27 -9,9 -20,15 -32,19 -10,4 -20,7 -30,9 -12,3 -24,4 -36,6 -14,1 -27,2 -41,2 -22,0 -44,-2 -65,-8 -21,-6 -40,-15 -57,-29 -7,-7 -14,-13 -19,-21 -3,10 -7,18 -13,26l-2 1c-8,10 -18,16 -30,20 -7,3 -14,4 -22,5 -7,1 -15,1 -22,1 -8,0 -15,0 -22,-1 -9,-1 -17,-3 -24,-6 -3,-1 -5,-2 -8,-4 -6,3 -12,6 -19,8 -16,5 -33,8 -50,8 -19,0 -39,-2 -57,-10 -6,-2 -11,-5 -17,-8 0,0 0,1 0,1 -1,6 -2,11 -4,17 -2,7 -4,14 -8,20 -3,8 -8,15 -13,21 -13,14 -30,22 -49,22 -8,0 -16,-2 -23,-4 -8,-2 -16,-4 -24,-8 -9,-3 -17,-7 -26,-12 -10,-6 -20,-12 -30,-19 -10,-8 -19,-16 -28,-24 -1,-1 -1,-1 -2,-2 -1,1 -3,1 -5,1 -17,4 -35,5 -53,5 -27,0 -54,-3 -80,-10 -25,-7 -48,-19 -68,-37 -17,-15 -30,-33 -40,-53 3,9 4,17 4,27 0,5 0,10 -1,16 -1,6 -2,12 -3,19 -2,6 -3,13 -6,19 -3,11 -9,22 -18,30l-1 2c-9,8 -19,14 -28,18 -9,4 -19,8 -29,10 -11,3 -21,6 -32,7 -12,2 -23,3 -35,3 -18,0 -36,-1 -53,-6 -15,-3 -31,-8 -45,-16 -13,-8 -25,-17 -36,-28 -9,-10 -17,-21 -23,-34 -6,-12 -10,-25 -13,-38 -2,-11 -3,-23 -3,-34 0,-21 3,-42 9,-62 7,-22 17,-42 31,-60 15,-18 34,-33 55,-45 11,-6 23,-10 35,-14l5 -22 0 -1c2,-8 6,-14 10,-20 -1,-2 -2,-4 -3,-6 -2,-9 -3,-17 -3,-26 0,-7 1,-15 2,-22 1,-7 3,-13 4,-18 2,-9 5,-16 9,-25 4,-9 9,-17 16,-24l1 -2 1 -1c11,-10 23,-17 36,-21 13,-4 27,-6 40,-6 11,0 21,1 31,4 13,2 24,8 35,17 11,9 18,21 22,33 3,9 4,18 4,28 0,6 0,12 -1,19 -1,7 -3,15 -5,23 -2,6 -4,13 -7,20 -3,9 -8,17 -15,25 2,8 2,17 1,25l-11 71c-2,10 -4,19 -8,28 -4,11 -11,21 -19,29 -9,8 -20,15 -32,18 -9,3 -18,4 -27,4l-2 0c-3,0 -9,0 -12,1 -2,1 -4,2 -5,4 -1,1 -2,3 -3,4 0,2 -1,4 -1,5 4,0 8,0 12,-1 4,-1 8,-2 13,-4 3,-2 6,-3 8,-4 12,-8 24,-12 38,-12 23,0 44,13 54,32 -10,-25 -14,-53 -14,-80 0,-22 2,-45 6,-68 4,-24 10,-47 19,-70 9,-24 20,-46 34,-68 15,-22 33,-42 54,-59 22,-18 48,-32 75,-42 30,-10 62,-15 94,-15 27,0 54,3 80,11 25,7 48,19 68,37 20,18 34,40 44,65 1,3 2,6 3,9 7,-6 15,-9 24,-12 7,-2 14,-3 22,-4 8,-1 16,-1 24,-1 8,0 16,0 24,1 8,1 16,2 24,5 15,5 27,15 35,29 1,1 1,2 2,4 3,-6 7,-11 12,-16l1 -1c8,-8 18,-14 30,-17 7,-2 14,-3 22,-4 8,-1 16,-1 24,-1 8,0 16,0 24,1 8,1 16,2 23,5 16,5 29,15 37,30 2,4 3,8 5,12 2,-2 5,-4 7,-6 15,-13 32,-23 51,-31zm-577 84c0,-6 0,-12 -2,-18 0,-1 0,-2 0,-2 -1,0 -1,-1 -2,-1 -4,-2 -11,-2 -15,-2 -7,0 -15,1 -21,4 -7,4 -13,8 -18,14 -6,7 -11,15 -15,23 -5,11 -10,22 -13,33 -3,11 -5,23 -7,34 -1,9 -2,19 -2,28 0,6 1,13 2,19 0,0 1,1 0,1 1,0 2,1 2,1 5,2 12,2 16,2 7,0 14,-1 21,-4 6,-4 12,-8 17,-13 7,-7 12,-15 16,-24 5,-10 9,-21 12,-32 3,-11 6,-22 7,-34 1,-9 2,-19 2,-29zm1327 77c-3,3 -5,6 -7,10 -3,5 -5,11 -7,17 -2,7 -3,13 -4,20 -1,4 -1,8 -2,12 3,-3 5,-6 7,-9 3,-6 5,-12 7,-18 2,-7 4,-14 5,-20 0,-4 1,-8 1,-12zm1953 0c-3,3 -5,6 -7,10 -3,5 -5,11 -7,17 -2,7 -4,13 -5,20 0,4 -1,8 -1,12 3,-3 5,-6 7,-9 3,-6 5,-12 7,-18 2,-7 4,-14 5,-20 0,-4 1,-8 1,-12zm-1235 747c-2,3 -5,6 -6,10 -3,5 -6,11 -8,17 -2,7 -3,14 -4,21 -1,4 -1,8 -2,12 3,-3 5,-7 7,-10 3,-6 5,-12 7,-18 2,-6 4,-13 5,-20 0,-4 1,-8 1,-12z"/>
  <g id="_2323597057232">
   <path class="fil1" d="M56 434c0,-16 3,-31 7,-46 4,-15 12,-29 21,-41 10,-12 22,-22 37,-30 16,-8 34,-13 55,-15l14 -57c1,-4 4,-7 10,-9 6,-1 15,-2 25,-2 7,0 12,0 16,0 5,0 8,1 11,2 2,1 4,2 4,3 1,2 1,3 1,6l-11 70c-1,7 -2,12 -4,16 -2,4 -4,7 -6,9 -3,3 -6,4 -9,5 -3,1 -7,1 -11,1l-2 0c-15,0 -27,3 -37,8 -10,5 -18,11 -24,18 -6,7 -10,16 -13,25 -2,8 -4,17 -4,25 0,7 2,14 4,20 2,7 5,12 10,17 4,5 10,8 17,11 7,2 15,4 24,4 11,0 20,-1 28,-4 8,-2 15,-4 21,-7 6,-3 11,-5 15,-7 4,-3 7,-4 9,-4 2,0 4,1 5,3 1,2 1,6 1,11 0,2 0,5 -1,9 0,4 -1,9 -2,13 -1,5 -2,9 -4,14 -1,4 -3,7 -5,9 -3,3 -7,5 -13,8 -6,3 -13,5 -20,7 -8,2 -17,4 -26,6 -9,1 -17,2 -26,2 -15,0 -29,-2 -40,-4 -12,-3 -22,-7 -31,-11 -8,-5 -15,-11 -21,-17 -6,-7 -11,-14 -15,-21 -3,-7 -6,-15 -7,-23 -2,-8 -3,-16 -3,-24zm139 -256c0,-3 1,-8 1,-12 1,-5 2,-10 4,-15 1,-5 3,-9 5,-14 2,-4 4,-7 6,-10 4,-4 9,-7 15,-9 6,-1 13,-2 22,-2 8,0 13,0 18,1 5,1 9,3 11,5 3,2 5,5 5,8 1,3 2,7 2,11 0,3 0,7 -1,12 -1,4 -1,9 -3,14 -1,5 -3,10 -5,14 -2,5 -4,8 -7,11 -4,5 -9,8 -15,9 -6,2 -13,3 -21,3 -8,0 -14,-1 -19,-2 -5,-1 -9,-3 -11,-6 -3,-2 -5,-5 -5,-8 -1,-3 -2,-6 -2,-10zm528 314c0,2 -1,4 -1,8 0,3 -1,7 -2,11 -1,4 -2,8 -3,12 -1,4 -2,8 -4,11 -2,3 -3,6 -5,8 -2,2 -4,3 -7,3 -2,0 -5,0 -9,-1 -5,-1 -10,-3 -17,-6 -6,-2 -12,-5 -20,-9 -7,-4 -15,-9 -23,-15 -8,-6 -15,-13 -23,-20 -8,-8 -15,-16 -22,-26 -11,5 -22,9 -35,11 -13,3 -27,4 -42,4 -24,0 -46,-3 -64,-8 -19,-6 -34,-14 -47,-25 -13,-11 -22,-25 -29,-42 -6,-17 -9,-37 -9,-60 0,-19 1,-38 5,-59 3,-20 8,-40 16,-60 7,-19 16,-38 28,-56 12,-17 26,-33 42,-47 17,-13 36,-24 59,-32 22,-7 47,-11 75,-11 24,0 45,2 64,8 18,5 34,14 47,25 12,11 22,25 28,42 7,18 10,38 10,61 0,11 -1,23 -2,36 -1,12 -4,25 -6,38 -3,12 -7,25 -11,38 -5,13 -10,25 -16,38 -7,12 -14,24 -23,35 -8,11 -18,21 -28,31 9,10 18,17 26,23 8,5 15,9 21,12 6,3 11,6 15,7 4,1 7,3 8,4 2,2 3,3 3,5 0,1 1,3 1,6zm-71 -266c0,-12 -2,-23 -5,-33 -2,-10 -7,-18 -13,-25 -5,-7 -13,-12 -23,-16 -10,-3 -22,-5 -35,-5 -18,0 -33,3 -46,10 -14,7 -25,15 -35,26 -9,11 -18,23 -24,37 -7,14 -12,28 -16,42 -4,14 -7,28 -8,42 -2,13 -3,25 -3,35 0,13 1,24 4,34 3,9 7,18 13,24 6,7 14,12 24,16 9,3 21,5 35,5 17,0 33,-3 46,-10 13,-6 24,-15 34,-26 10,-10 18,-23 24,-36 7,-14 13,-28 16,-42 4,-14 7,-28 9,-42 2,-13 3,-25 3,-36zm354 240c0,2 -1,4 -2,6 -2,1 -4,2 -6,3 -3,1 -6,2 -11,2 -4,1 -9,1 -15,1 -6,0 -11,0 -15,-1 -4,0 -7,-1 -9,-2 -3,-1 -4,-2 -5,-3 0,-2 0,-4 0,-6l8 -43c-4,7 -9,14 -16,21 -7,7 -15,14 -24,19 -9,6 -19,11 -30,15 -10,3 -21,5 -32,5 -14,0 -26,-2 -36,-6 -9,-4 -17,-9 -23,-16 -6,-6 -10,-14 -13,-24 -3,-9 -4,-19 -4,-30 0,-7 0,-14 1,-21 1,-7 2,-14 4,-22l33 -165c0,-2 1,-4 3,-5 1,-2 3,-3 6,-4 4,-1 8,-2 13,-2 5,-1 11,-1 18,-1 7,0 13,0 18,1 5,0 8,1 11,2 3,1 4,2 5,4 1,1 1,3 1,5l-32 160c-1,5 -2,9 -2,14 -1,5 -1,9 -1,14 0,5 0,9 1,13 1,4 3,7 5,10 2,2 4,5 7,6 4,1 7,2 12,2 8,0 16,-3 25,-8 9,-5 18,-12 25,-22 8,-9 16,-20 22,-32 6,-13 11,-27 14,-42l23 -115c0,-2 1,-4 2,-5 2,-2 4,-3 7,-4 4,-1 8,-2 13,-2 5,-1 11,-1 18,-1 7,0 13,0 18,1 5,0 8,1 11,2 3,1 4,2 5,4 1,1 1,3 1,5l-54 267zm354 -208c0,14 -4,27 -10,39 -7,11 -17,21 -30,29 -14,9 -31,15 -52,19 -21,5 -46,7 -75,7l-28 0c0,5 -1,9 -1,14 -1,4 -1,8 -1,12 0,16 4,28 12,36 9,9 22,13 41,13 13,0 25,-1 35,-3 10,-2 20,-4 28,-7 7,-2 14,-4 19,-6 5,-2 9,-3 12,-3 2,0 4,1 5,2 1,2 1,4 1,7 0,3 0,7 -1,12 0,4 -1,8 -2,13 -1,4 -3,8 -5,12 -1,3 -3,6 -5,8 -3,3 -7,5 -14,7 -6,3 -14,5 -23,7 -9,2 -19,4 -30,5 -11,1 -22,2 -34,2 -19,0 -36,-2 -50,-6 -14,-4 -26,-10 -36,-18 -9,-8 -16,-19 -21,-31 -5,-13 -7,-28 -7,-45 0,-14 1,-28 3,-43 3,-16 7,-31 13,-45 5,-15 12,-29 21,-43 9,-14 19,-25 32,-36 12,-10 27,-18 43,-24 16,-7 35,-10 56,-10 18,0 34,3 47,7 13,4 23,10 32,17 8,7 14,15 18,24 4,9 7,18 7,28zm-75 5c0,-7 -3,-14 -9,-19 -6,-6 -15,-8 -27,-8 -10,0 -19,1 -27,5 -7,4 -14,8 -20,15 -6,6 -11,13 -16,21 -4,8 -7,17 -10,27l25 0c16,0 29,-1 40,-4 11,-2 19,-4 26,-8 6,-4 11,-8 14,-13 3,-5 4,-10 4,-16zm5 -121c-2,2 -3,4 -5,5 -2,1 -4,2 -6,3 -3,1 -6,1 -10,2 -4,0 -8,0 -14,0 -7,0 -13,0 -17,-1 -4,0 -7,-1 -8,-2 -2,-2 -2,-3 -2,-5 1,-2 2,-5 4,-7l45 -69c2,-2 3,-4 5,-5 2,-2 5,-3 8,-4 3,-1 7,-2 12,-2 4,-1 10,-1 17,-1 9,0 16,1 21,2 5,1 9,2 11,3 2,2 3,3 3,5 -1,2 -2,4 -4,6l-60 70zm450 69c0,2 0,6 -1,11 0,4 -1,9 -3,14 -1,5 -3,9 -5,12 -1,4 -4,5 -6,5 -2,0 -6,-1 -9,-2 -3,-2 -8,-4 -13,-7 -5,-2 -11,-4 -17,-6 -7,-1 -15,-2 -24,-2 -7,0 -13,1 -18,2 -6,2 -10,5 -14,8 -3,3 -6,6 -8,11 -2,4 -3,8 -3,13 0,6 3,11 8,15 5,5 11,9 19,12 7,4 15,8 24,12 9,4 17,9 25,15 7,6 13,13 18,22 5,8 8,19 8,32 0,15 -3,29 -9,42 -6,13 -14,24 -25,33 -11,9 -25,17 -40,22 -16,5 -34,8 -54,8 -10,0 -19,-1 -27,-2 -9,-2 -17,-3 -24,-5 -7,-2 -12,-4 -17,-7 -5,-2 -9,-5 -11,-7 -2,-2 -3,-3 -3,-5 -1,-2 -1,-4 -1,-7 0,-2 0,-4 0,-7 0,-2 1,-6 2,-9 0,-3 1,-7 2,-10 1,-4 2,-7 3,-10 1,-2 3,-5 4,-6 1,-2 3,-3 4,-3 3,0 6,1 10,4 3,2 7,5 13,8 5,3 12,5 20,8 8,2 17,3 29,3 8,0 15,0 21,-2 6,-2 11,-5 15,-8 4,-4 7,-8 9,-12 2,-4 3,-9 3,-14 0,-7 -3,-13 -7,-17 -5,-5 -11,-9 -19,-12 -7,-4 -15,-8 -24,-12 -8,-4 -16,-9 -24,-15 -7,-5 -13,-13 -18,-21 -5,-9 -7,-20 -7,-33 0,-14 2,-27 8,-39 5,-12 13,-23 23,-32 11,-9 23,-16 38,-21 15,-5 32,-8 50,-8 9,0 17,1 25,2 8,1 15,3 21,4 6,2 12,4 16,6 5,2 8,5 10,7 2,2 3,5 3,10zm316 78c0,14 -1,29 -4,44 -2,15 -7,30 -12,45 -6,14 -14,28 -23,40 -9,13 -20,24 -32,34 -13,9 -27,17 -44,23 -16,5 -34,8 -55,8 -20,0 -38,-2 -52,-7 -15,-5 -27,-12 -37,-21 -10,-9 -17,-20 -22,-33 -5,-13 -7,-29 -7,-46 0,-14 1,-29 4,-44 3,-15 7,-30 13,-44 5,-15 13,-28 22,-41 9,-13 20,-24 33,-34 12,-9 27,-17 43,-22 17,-6 35,-9 56,-9 20,0 37,3 52,7 14,5 27,12 36,21 10,9 17,20 22,33 5,14 7,29 7,46zm-77 5c0,-8 -1,-16 -3,-22 -2,-6 -4,-12 -8,-16 -4,-5 -9,-8 -15,-11 -6,-2 -14,-3 -23,-3 -10,0 -19,2 -27,6 -8,3 -15,9 -21,15 -6,7 -12,14 -16,23 -5,9 -9,18 -12,27 -3,10 -5,20 -6,30 -2,9 -2,19 -2,28 0,8 1,16 2,22 2,7 5,12 9,17 4,4 9,8 15,10 6,2 13,4 22,4 10,0 19,-2 27,-6 8,-4 15,-9 21,-16 7,-7 12,-14 17,-23 4,-9 8,-18 11,-28 3,-9 5,-19 7,-29 1,-9 2,-19 2,-28zm393 -35c0,7 -1,14 -2,21 -1,7 -2,14 -3,21l-33 165c0,2 -1,4 -3,5 -1,2 -4,3 -7,4 -3,1 -7,2 -12,2 -5,1 -11,1 -18,1 -8,0 -14,0 -18,-1 -5,0 -8,-1 -11,-2 -2,-1 -4,-2 -5,-4 -1,-1 -1,-3 -1,-5l32 -160c1,-5 2,-10 2,-15 1,-5 1,-9 1,-13 0,-9 -2,-16 -6,-22 -3,-6 -10,-9 -19,-9 -8,0 -16,3 -25,8 -9,5 -18,12 -25,21 -8,9 -15,19 -22,31 -6,12 -10,25 -13,38l-24 121c0,2 -1,4 -3,5 -1,2 -3,3 -7,4 -3,1 -7,2 -12,2 -5,1 -11,1 -18,1 -7,0 -13,0 -18,-1 -5,0 -8,-1 -11,-2 -3,-1 -4,-2 -5,-4 -1,-1 -1,-3 -1,-5l54 -267c0,-2 1,-4 2,-5 1,-2 3,-3 6,-4 3,-1 6,-2 11,-2 4,-1 9,-1 15,-1 6,0 11,0 15,1 4,0 7,1 9,2 2,1 4,2 4,4 1,1 1,3 1,5l-9 44c5,-7 10,-14 17,-21 7,-8 15,-14 24,-20 9,-6 19,-10 30,-14 10,-4 21,-6 33,-6 14,0 26,2 35,6 10,5 17,10 23,17 6,7 10,15 13,24 2,10 4,20 4,30zm468 25c0,13 -1,27 -3,42 -3,15 -6,30 -11,44 -5,15 -12,29 -19,43 -8,14 -17,26 -28,36 -11,10 -24,19 -38,25 -14,6 -30,9 -47,9 -8,0 -15,-1 -22,-2 -7,-2 -14,-4 -20,-7 -5,-3 -11,-6 -15,-10 -5,-4 -9,-8 -13,-13l-24 121c0,2 -1,3 -3,5 -1,2 -3,3 -7,4 -3,1 -7,2 -12,3 -5,0 -11,1 -18,1 -8,0 -14,-1 -18,-1 -5,-1 -8,-2 -11,-3 -3,-1 -5,-2 -5,-4 -1,-2 -1,-3 -1,-5l75 -373c1,-4 4,-7 9,-9 5,-2 14,-3 27,-3 6,0 11,0 15,1 4,0 7,1 9,2 2,1 4,2 5,4 0,1 1,3 0,5l-8 43c3,-6 8,-13 14,-20 6,-7 14,-14 23,-19 9,-6 19,-11 30,-15 11,-4 22,-6 34,-6 15,0 28,3 39,8 10,6 18,13 25,22 6,9 11,20 14,32 3,13 4,26 4,40zm-77 7c0,-7 0,-13 -1,-19 -2,-6 -3,-10 -6,-14 -2,-4 -6,-7 -10,-9 -3,-2 -8,-3 -14,-3 -9,0 -18,3 -27,8 -9,5 -18,12 -25,21 -8,9 -15,20 -22,32 -6,12 -10,25 -13,39l-8 41c7,10 15,19 23,24 9,6 18,8 29,8 9,0 16,-2 23,-6 7,-4 13,-9 19,-16 5,-6 10,-14 14,-23 4,-9 8,-18 10,-27 3,-10 5,-19 6,-29 2,-10 2,-19 2,-27zm354 175c-1,2 -2,4 -3,6 -1,1 -3,2 -6,3 -3,1 -6,2 -10,2 -5,1 -10,1 -16,1 -6,0 -11,0 -15,-1 -4,0 -7,-1 -9,-2 -2,-1 -4,-2 -5,-3 0,-2 0,-4 0,-6l8 -43c-4,7 -9,14 -16,21 -7,7 -15,14 -24,19 -9,6 -19,11 -29,15 -11,3 -22,5 -33,5 -14,0 -26,-2 -36,-6 -9,-4 -17,-9 -23,-16 -6,-6 -10,-14 -13,-24 -3,-9 -4,-19 -4,-30 0,-7 1,-14 1,-21 1,-7 3,-14 4,-22l33 -165c0,-2 1,-4 3,-5 1,-2 4,-3 7,-4 3,-1 7,-2 12,-2 5,-1 11,-1 18,-1 7,0 13,0 18,1 5,0 9,1 11,2 3,1 4,2 5,4 1,1 2,3 1,5l-32 160c-1,5 -2,9 -2,14 -1,5 -1,9 -1,14 0,5 1,9 2,13 0,4 2,7 4,10 2,2 5,5 8,6 3,1 7,2 11,2 8,0 17,-3 25,-8 9,-5 18,-12 26,-22 8,-9 15,-20 21,-32 6,-13 11,-27 14,-42l23 -115c0,-2 1,-4 3,-5 1,-2 4,-3 7,-4 3,-1 7,-2 12,-2 5,-1 11,-1 18,-1 7,0 13,0 18,1 5,0 9,1 11,2 3,1 5,2 5,4 1,1 1,3 1,5l-53 267z"/>
   <path class="fil1" d="M3479 259c0,7 -1,14 -1,21 -1,7 -3,14 -4,21l-33 165c0,2 -1,4 -3,5 -1,2 -3,3 -7,4 -3,1 -7,2 -12,2 -5,1 -11,1 -18,1 -7,0 -13,0 -18,-1 -5,0 -8,-1 -11,-2 -2,-1 -4,-2 -5,-4 -1,-1 -1,-3 -1,-5l32 -160c1,-5 2,-10 2,-15 1,-5 1,-9 1,-13 0,-9 -2,-16 -6,-22 -3,-6 -10,-9 -19,-9 -8,0 -16,3 -25,8 -9,5 -17,12 -25,21 -8,9 -15,19 -21,31 -7,12 -11,25 -14,38l-24 121c0,2 -1,4 -2,5 -2,2 -4,3 -7,4 -3,1 -8,2 -13,2 -5,1 -11,1 -18,1 -7,0 -13,0 -18,-1 -4,0 -8,-1 -11,-2 -2,-1 -4,-2 -5,-4 -1,-1 -1,-3 -1,-5l54 -267c0,-2 1,-4 2,-5 2,-2 4,-3 6,-4 3,-1 6,-2 11,-2 4,-1 9,-1 15,-1 6,0 11,0 15,1 4,0 7,1 9,2 3,1 4,2 5,4 0,1 0,3 0,5l-9 44c5,-7 10,-14 17,-21 7,-8 15,-14 24,-20 9,-6 19,-10 30,-14 10,-4 22,-6 33,-6 14,0 26,2 35,6 10,5 17,10 23,17 6,7 10,15 13,24 3,10 4,20 4,30zm240 -57c0,2 0,5 -1,8 0,3 -1,6 -1,10 -1,3 -2,7 -3,11 -1,3 -3,6 -4,9 -2,3 -3,6 -5,7 -2,2 -4,3 -6,3l-59 0 -25 126c0,2 -1,6 -1,10 -1,4 -1,8 -1,10 0,8 2,14 5,18 4,3 10,5 18,5 5,0 9,0 13,-1 3,0 6,-1 9,-2 2,-1 4,-2 6,-3 2,0 3,-1 5,-1 2,0 3,1 4,3 1,1 2,4 2,7 0,4 -1,8 -1,13 -1,5 -2,9 -4,14 -1,4 -2,8 -4,12 -1,4 -3,6 -5,8 -2,2 -5,4 -8,5 -4,2 -8,3 -13,4 -5,2 -10,3 -16,3 -5,1 -11,1 -16,1 -12,0 -23,-1 -32,-3 -9,-3 -17,-7 -23,-12 -6,-6 -10,-13 -14,-21 -3,-8 -4,-18 -4,-30 0,-3 0,-5 0,-8 0,-3 1,-6 1,-9 1,-3 1,-7 2,-10 0,-3 1,-6 1,-9l26 -130 -32 0c-3,0 -5,0 -6,-2 -1,-2 -2,-5 -2,-10 0,-3 1,-8 1,-13 1,-6 2,-11 4,-17 2,-5 4,-9 6,-13 3,-4 6,-6 10,-6l32 0 12 -60c0,-2 1,-3 3,-5 1,-2 3,-3 6,-4 4,-1 7,-2 12,-2 5,-1 11,-1 19,-1 7,0 13,0 18,1 5,0 8,1 11,2 2,1 4,2 5,4 1,2 1,3 1,5l-12 60 57 0c4,0 6,1 7,3 1,3 2,6 2,10zm290 87c0,14 -1,29 -4,44 -3,15 -7,30 -13,45 -5,14 -13,28 -22,40 -9,13 -20,24 -33,34 -12,9 -27,17 -43,23 -16,5 -35,8 -55,8 -20,0 -38,-2 -53,-7 -14,-5 -26,-12 -36,-21 -10,-9 -17,-20 -22,-33 -5,-13 -7,-29 -7,-46 0,-14 1,-29 4,-44 2,-15 7,-30 12,-44 6,-15 14,-28 23,-41 9,-13 20,-24 32,-34 13,-9 28,-17 44,-22 16,-6 35,-9 55,-9 20,0 38,3 52,7 15,5 27,12 37,21 10,9 17,20 22,33 5,14 7,29 7,46zm-78 5c0,-8 0,-16 -2,-22 -2,-6 -5,-12 -9,-16 -3,-5 -8,-8 -14,-11 -7,-2 -14,-3 -23,-3 -10,0 -19,2 -27,6 -8,3 -15,9 -21,15 -6,7 -12,14 -16,23 -5,9 -9,18 -12,27 -3,10 -5,20 -6,30 -2,9 -2,19 -2,28 0,8 0,16 2,22 2,7 5,12 8,17 4,4 9,8 15,10 7,2 14,4 23,4 10,0 19,-2 27,-6 8,-4 15,-9 21,-16 6,-7 12,-14 16,-23 5,-9 9,-18 12,-28 3,-9 5,-19 6,-29 2,-9 2,-19 2,-28zm326 -83c0,2 0,6 -1,11 0,4 -2,9 -3,14 -1,5 -3,9 -5,12 -2,4 -4,5 -6,5 -3,0 -6,-1 -9,-2 -4,-2 -8,-4 -13,-7 -5,-2 -11,-4 -17,-6 -7,-1 -15,-2 -24,-2 -7,0 -13,1 -18,2 -6,2 -10,5 -14,8 -4,3 -6,6 -8,11 -2,4 -3,8 -3,13 0,6 3,11 8,15 5,5 11,9 19,12 7,4 15,8 24,12 9,4 17,9 24,15 8,6 14,13 19,22 5,8 8,19 8,32 0,15 -3,29 -9,42 -6,13 -14,24 -25,33 -11,9 -25,17 -41,22 -15,5 -33,8 -53,8 -10,0 -19,-1 -28,-2 -8,-2 -16,-3 -23,-5 -7,-2 -13,-4 -17,-7 -5,-2 -9,-5 -11,-7 -2,-2 -3,-3 -4,-5 0,-2 -1,-4 -1,-7 0,-2 1,-4 1,-7 0,-2 1,-6 1,-9 1,-3 2,-7 3,-10 1,-4 2,-7 3,-10 1,-2 2,-5 4,-6 1,-2 3,-3 4,-3 3,0 6,1 10,4 3,2 7,5 13,8 5,3 12,5 20,8 7,2 17,3 29,3 8,0 15,0 21,-2 6,-2 11,-5 15,-8 4,-4 7,-8 9,-12 2,-4 3,-9 3,-14 0,-7 -3,-13 -8,-17 -4,-5 -11,-9 -18,-12 -7,-4 -15,-8 -24,-12 -9,-4 -16,-9 -24,-15 -7,-5 -13,-13 -18,-21 -5,-9 -7,-20 -7,-33 0,-14 2,-27 8,-39 5,-12 13,-23 23,-32 11,-9 23,-16 38,-21 15,-5 31,-8 50,-8 9,0 17,1 25,2 7,1 15,3 21,4 6,2 12,4 16,6 5,2 8,5 10,7 2,2 3,5 3,10zm-3435 638c0,1 0,4 0,7 0,3 -1,6 -2,10 0,4 -1,8 -2,12 -1,4 -2,8 -4,11 -1,3 -3,6 -5,9 -2,2 -4,3 -7,3l-127 0 -20 104 119 0c2,0 4,1 6,3 1,2 1,5 1,9 0,1 0,4 0,7 -1,3 -1,6 -2,10 -1,3 -1,7 -2,11 -2,5 -3,8 -4,11 -2,4 -4,6 -6,9 -2,2 -4,3 -6,3l-119 0 -28 144c-1,3 -2,5 -3,6 -2,2 -4,3 -8,4 -3,1 -7,2 -12,2 -5,1 -12,1 -19,1 -8,0 -15,0 -19,-1 -5,0 -9,-1 -12,-2 -3,-1 -5,-2 -6,-4 -1,-1 -1,-3 0,-6l69 -351c2,-8 6,-15 11,-19 6,-3 12,-5 19,-5l181 0c3,0 5,1 6,3 1,2 1,5 1,9zm229 365c-1,4 -4,7 -9,9 -6,1 -14,2 -27,2 -6,0 -11,0 -15,0 -4,-1 -7,-1 -9,-2 -3,-1 -4,-2 -5,-4 0,-1 -1,-3 0,-5l8 -43c-3,6 -8,13 -14,20 -7,7 -15,14 -23,19 -9,6 -19,11 -30,15 -11,3 -22,5 -34,5 -16,0 -29,-3 -40,-8 -10,-6 -19,-13 -25,-23 -7,-9 -11,-20 -14,-32 -3,-12 -4,-25 -4,-38 0,-13 1,-27 4,-41 2,-15 6,-30 11,-45 5,-15 11,-29 19,-42 8,-14 17,-26 28,-37 11,-10 23,-19 37,-25 14,-6 30,-9 48,-9 17,0 31,3 44,10 13,7 24,17 33,30l5 -24c1,-4 4,-7 10,-9 5,-2 14,-2 26,-2 6,0 11,0 15,0 4,1 7,1 9,2 3,1 4,2 5,4 1,1 1,3 1,5l-54 268zm-37 -188c-7,-10 -15,-19 -23,-24 -9,-5 -18,-8 -29,-8 -9,0 -17,2 -24,6 -7,4 -13,9 -18,16 -6,6 -11,14 -15,23 -4,9 -7,18 -10,27 -2,10 -5,19 -6,29 -1,10 -2,18 -2,27 0,5 1,11 2,16 0,6 2,11 5,15 2,4 5,7 9,10 4,2 10,4 16,4 9,0 17,-3 27,-8 9,-6 17,-13 26,-22 7,-9 14,-20 21,-32 6,-12 10,-24 13,-38l8 -41zm334 -84c0,2 0,4 -1,8 0,4 -1,8 -1,12 -1,5 -2,10 -3,15 -2,5 -3,10 -4,14 -2,5 -4,8 -5,11 -2,3 -4,4 -7,4 -1,0 -3,0 -5,-1 -2,0 -4,-1 -6,-2 -2,-1 -5,-1 -7,-2 -3,-1 -6,-1 -9,-1 -7,0 -14,3 -22,8 -7,5 -15,12 -22,20 -6,9 -13,19 -18,30 -6,11 -9,23 -12,35l-24 120c0,2 -1,4 -3,6 -1,1 -4,2 -7,3 -3,1 -7,2 -12,3 -5,0 -11,0 -18,0 -8,0 -13,0 -18,0 -5,-1 -8,-2 -11,-3 -3,-1 -4,-2 -5,-3 -1,-2 -1,-4 -1,-6l53 -267c1,-2 2,-4 3,-5 1,-2 3,-3 6,-4 3,-1 6,-1 10,-2 5,0 10,0 16,0 6,0 11,0 15,0 4,1 7,1 9,2 2,1 4,2 4,4 1,1 1,3 1,5l-8 43c4,-9 10,-17 16,-24 6,-7 13,-13 20,-19 7,-5 14,-9 22,-12 8,-3 15,-4 22,-4 3,0 6,0 9,0 4,1 6,1 9,2 3,0 5,1 7,2 2,1 4,2 5,3 1,1 2,3 2,5zm413 271c0,2 -1,4 -3,6 -1,1 -4,2 -7,3 -3,1 -7,2 -12,3 -5,0 -11,0 -19,0 -7,0 -13,0 -18,0 -4,-1 -8,-2 -10,-3 -3,-1 -5,-2 -6,-3 0,-2 -1,-4 0,-6l31 -160c1,-4 2,-9 2,-13 1,-5 1,-9 1,-14 0,-9 -2,-17 -5,-23 -3,-6 -10,-8 -18,-8 -8,0 -17,2 -25,7 -9,5 -17,13 -25,21 -8,9 -15,20 -21,32 -6,11 -10,24 -13,37l-24 121c0,2 -1,4 -3,6 -1,1 -4,2 -7,3 -3,1 -7,2 -12,3 -5,0 -11,0 -18,0 -8,0 -13,0 -18,0 -5,-1 -8,-2 -11,-3 -3,-1 -4,-2 -5,-3 -1,-2 -1,-4 -1,-6l32 -160c1,-4 2,-9 2,-14 1,-5 1,-10 1,-14 0,-9 -2,-16 -5,-22 -4,-6 -10,-8 -19,-8 -8,0 -16,2 -25,7 -8,5 -17,13 -24,21 -8,9 -15,20 -21,32 -6,11 -11,24 -13,37l-24 121c-1,2 -2,4 -3,6 -2,1 -4,2 -7,3 -3,1 -7,2 -12,3 -5,0 -11,0 -19,0 -7,0 -13,0 -18,0 -4,-1 -8,-2 -11,-3 -2,-1 -4,-2 -5,-3 -1,-2 -1,-4 0,-6l53 -267c0,-2 1,-4 2,-5 2,-2 4,-3 6,-4 3,-1 7,-1 11,-2 4,0 9,0 15,0 6,0 11,0 15,0 4,1 7,1 10,2 2,1 3,2 4,4 1,1 1,3 0,5l-8 44c4,-7 9,-14 16,-21 7,-7 15,-14 24,-20 9,-5 19,-10 29,-14 11,-4 21,-5 32,-5 12,0 22,1 31,4 8,3 15,8 20,13 6,6 10,12 13,19 3,8 5,16 6,24 4,-7 10,-14 17,-21 7,-7 15,-14 24,-20 9,-5 18,-10 29,-14 10,-4 21,-5 32,-5 14,0 25,2 35,5 9,4 17,10 23,17 5,6 10,14 12,24 3,9 4,19 4,30 0,7 0,14 -1,21 -1,7 -2,14 -4,22l-32 164zm321 1c-1,4 -4,7 -10,9 -5,1 -14,2 -26,2 -6,0 -11,0 -15,0 -4,-1 -7,-1 -10,-2 -2,-1 -3,-2 -4,-4 -1,-1 -1,-3 -1,-5l9 -43c-3,6 -8,13 -15,20 -6,7 -14,14 -23,19 -9,6 -19,11 -30,15 -10,3 -22,5 -33,5 -16,0 -30,-3 -40,-8 -11,-6 -19,-13 -26,-23 -6,-9 -11,-20 -13,-32 -3,-12 -4,-25 -4,-38 0,-13 1,-27 3,-41 3,-15 6,-30 11,-45 5,-15 12,-29 19,-42 8,-14 18,-26 29,-37 10,-10 23,-19 37,-25 14,-6 30,-9 48,-9 16,0 31,3 43,10 13,7 24,17 34,30l5 -24c0,-4 4,-7 9,-9 6,-2 15,-2 27,-2 6,0 11,0 15,0 4,1 7,1 9,2 2,1 4,2 5,4 0,1 1,3 0,5l-53 268zm-37 -188c-7,-10 -15,-19 -24,-24 -8,-5 -18,-8 -29,-8 -8,0 -16,2 -23,6 -7,4 -13,9 -19,16 -5,6 -10,14 -14,23 -4,9 -7,18 -10,27 -3,10 -5,19 -6,29 -2,10 -2,18 -2,27 0,5 0,11 1,16 1,6 3,11 5,15 3,4 6,7 10,10 4,2 9,4 15,4 9,0 18,-3 27,-8 9,-6 18,-13 26,-22 8,-9 15,-20 21,-32 6,-12 11,-24 13,-38l9 -41zm399 -20c0,7 0,14 -1,21 -1,7 -2,14 -4,22l-32 164c-1,2 -2,4 -3,6 -2,1 -4,2 -7,3 -3,1 -7,2 -12,3 -5,0 -11,0 -19,0 -7,0 -13,0 -18,0 -4,-1 -8,-2 -11,-3 -2,-1 -4,-2 -5,-3 -1,-2 -1,-4 0,-6l31 -160c1,-4 2,-9 3,-14 0,-5 0,-10 0,-14 0,-9 -1,-16 -5,-22 -4,-6 -10,-8 -19,-8 -9,0 -17,2 -26,7 -9,5 -17,13 -25,21 -8,9 -15,20 -21,32 -6,11 -11,24 -13,37l-24 121c-1,2 -2,4 -3,6 -2,1 -4,2 -7,3 -3,1 -7,2 -12,3 -5,0 -11,0 -19,0 -7,0 -13,0 -18,0 -4,-1 -8,-2 -10,-3 -3,-1 -5,-2 -6,-3 0,-2 -1,-4 0,-6l53 -267c0,-2 1,-4 3,-5 1,-2 3,-3 6,-4 2,-1 6,-1 10,-2 4,0 9,0 15,0 7,0 12,0 15,0 4,1 7,1 10,2 2,1 3,2 4,4 1,1 1,3 0,5l-8 44c4,-7 9,-14 16,-21 7,-7 15,-14 24,-20 10,-5 19,-10 30,-14 11,-4 22,-5 33,-5 14,0 26,2 36,6 9,4 17,9 22,16 6,7 11,15 13,25 3,9 4,19 4,29zm330 30c0,15 -1,29 -4,45 -2,15 -7,29 -12,44 -6,14 -14,28 -23,41 -9,12 -20,23 -32,33 -13,10 -27,17 -44,23 -16,5 -34,8 -55,8 -20,0 -38,-2 -52,-7 -15,-5 -27,-11 -37,-20 -10,-10 -17,-21 -22,-34 -5,-13 -7,-28 -7,-45 0,-15 1,-29 4,-45 3,-15 7,-30 13,-44 6,-14 13,-28 22,-41 9,-13 20,-24 33,-33 12,-10 27,-17 43,-23 17,-6 35,-8 56,-8 20,0 37,2 52,7 14,4 27,11 36,20 10,9 17,20 22,34 5,13 7,28 7,45zm-77 6c0,-9 -1,-16 -3,-23 -2,-6 -4,-12 -8,-16 -4,-5 -9,-8 -15,-10 -6,-3 -14,-4 -23,-4 -10,0 -18,2 -26,6 -8,4 -16,9 -22,16 -6,6 -12,14 -16,22 -5,9 -9,18 -12,28 -2,9 -5,19 -6,29 -1,10 -2,19 -2,28 0,8 1,16 2,22 2,7 5,12 9,17 4,4 9,8 15,10 6,3 13,4 22,4 10,0 19,-2 27,-6 8,-4 15,-9 21,-16 7,-6 12,-14 17,-23 4,-8 8,-18 11,-27 3,-10 5,-20 7,-29 1,-10 2,-19 2,-28z"/>
   <path class="fil1" d="M3024 942c0,2 0,4 0,8 -1,4 -1,8 -2,12 -1,5 -2,10 -3,15 -1,5 -3,10 -4,14 -2,5 -3,8 -5,11 -2,3 -4,4 -6,4 -2,0 -4,0 -6,-1 -1,0 -3,-1 -6,-2 -2,-1 -4,-1 -7,-2 -2,-1 -5,-1 -9,-1 -7,0 -14,3 -21,8 -8,5 -15,12 -22,20 -7,9 -13,19 -19,30 -5,11 -9,23 -12,35l-24 120c0,2 -1,4 -2,6 -2,1 -4,2 -7,3 -3,1 -8,2 -13,3 -5,0 -11,0 -18,0 -7,0 -13,0 -18,0 -4,-1 -8,-2 -11,-3 -2,-1 -4,-2 -5,-3 -1,-2 -1,-4 -1,-6l54 -267c0,-2 1,-4 2,-5 2,-2 4,-3 6,-4 3,-1 7,-1 11,-2 4,0 9,0 15,0 6,0 11,0 15,0 4,1 7,1 9,2 2,1 4,2 5,4 0,1 0,3 0,5l-8 43c5,-9 10,-17 16,-24 7,-7 13,-13 20,-19 7,-5 15,-9 22,-12 8,-3 15,-4 23,-4 3,0 6,0 9,0 3,1 6,1 8,2 3,0 5,1 8,2 2,1 3,2 5,3 1,1 1,3 1,5zm204 7c0,2 0,5 0,8 -1,3 -1,6 -2,10 -1,4 -2,7 -3,11 -1,3 -2,7 -4,9 -1,3 -3,6 -5,8 -2,2 -4,3 -6,3l-58 0 -26 125c0,3 -1,6 -1,10 -1,4 -1,8 -1,10 0,8 2,14 6,18 4,4 10,6 18,6 4,0 9,-1 12,-1 3,-1 6,-2 9,-3 2,-1 5,-2 6,-2 2,-1 4,-1 5,-1 2,0 3,0 5,2 1,1 1,4 1,7 0,4 0,8 -1,13 -1,5 -2,10 -3,14 -1,4 -3,9 -5,12 -1,4 -3,7 -5,8 -1,2 -4,4 -8,6 -3,1 -8,3 -13,4 -4,1 -10,2 -15,3 -6,0 -11,1 -17,1 -12,0 -23,-2 -32,-4 -9,-3 -16,-7 -22,-12 -7,-5 -11,-12 -14,-21 -3,-8 -5,-18 -5,-30 0,-2 0,-5 0,-8 1,-3 1,-6 2,-9 0,-3 0,-6 1,-10 0,-3 1,-6 2,-8l26 -130 -33 0c-2,0 -4,-1 -5,-3 -2,-2 -2,-5 -2,-10 0,-3 0,-8 1,-13 1,-6 2,-11 3,-16 2,-6 4,-10 7,-14 2,-4 5,-6 9,-6l32 0 12 -59c0,-2 1,-4 3,-6 1,-1 4,-3 7,-4 3,-1 7,-2 12,-2 4,-1 11,-1 18,-1 7,0 13,0 18,1 5,0 8,1 11,2 3,1 5,3 5,4 1,2 2,4 1,6l-12 59 58 0c3,0 5,1 6,4 2,2 2,5 2,9zm275 56c0,15 -3,28 -10,39 -6,12 -16,21 -30,30 -13,8 -31,14 -52,19 -21,4 -46,6 -75,6l-27 0c-1,5 -1,9 -2,14 0,4 -1,8 -1,12 0,16 5,29 13,37 8,8 22,12 40,12 13,0 25,-1 36,-3 10,-2 19,-4 27,-6 8,-3 14,-5 20,-7 5,-2 9,-2 11,-2 2,0 4,0 5,2 1,1 2,3 2,6 0,4 -1,7 -1,12 -1,4 -2,9 -3,13 -1,4 -2,8 -4,12 -2,4 -4,7 -6,9 -2,2 -7,4 -13,7 -6,2 -14,4 -23,6 -9,2 -19,4 -30,5 -11,2 -23,2 -34,2 -19,0 -36,-2 -50,-6 -15,-4 -27,-10 -36,-18 -10,-8 -17,-19 -22,-31 -4,-13 -7,-28 -7,-45 0,-14 1,-28 4,-43 2,-15 7,-30 12,-45 6,-15 13,-29 22,-43 8,-13 19,-25 31,-35 13,-11 27,-19 44,-25 16,-6 35,-9 56,-9 18,0 33,2 46,6 13,4 24,10 32,17 9,7 15,15 19,24 4,9 6,19 6,28zm-74 6c0,-8 -3,-15 -9,-20 -7,-5 -16,-8 -27,-8 -10,0 -19,2 -27,5 -8,4 -15,9 -21,15 -6,6 -11,13 -15,21 -4,9 -8,17 -10,27l25 0c15,0 29,-1 39,-3 11,-2 20,-5 26,-9 7,-3 11,-8 14,-13 3,-4 5,-10 5,-15zm377 -101c0,15 -3,31 -7,46 -5,15 -12,28 -22,40 -9,12 -22,22 -37,30 -15,9 -34,14 -55,16l-14 57c-1,3 -4,6 -10,8 -6,2 -14,3 -25,3 -6,0 -11,0 -16,-1 -4,0 -8,-1 -10,-2 -3,0 -4,-1 -5,-3 -1,-1 -1,-3 -1,-5l11 -71c1,-6 3,-11 4,-15 2,-4 4,-7 7,-10 2,-2 5,-4 8,-5 4,-1 7,-1 12,-1l2 0c14,0 27,-2 37,-7 10,-5 17,-11 24,-19 6,-7 10,-15 12,-24 3,-9 4,-17 4,-25 0,-8 -1,-15 -3,-21 -2,-6 -6,-12 -10,-17 -5,-4 -10,-8 -17,-10 -7,-3 -15,-4 -24,-4 -11,0 -20,1 -29,3 -8,2 -15,5 -21,7 -6,3 -11,5 -15,8 -4,2 -7,3 -9,3 -2,0 -3,-1 -4,-3 -1,-2 -2,-6 -2,-10 0,-2 0,-5 1,-10 0,-4 1,-8 2,-13 1,-5 2,-9 4,-13 2,-5 3,-8 6,-10 2,-2 6,-5 12,-7 6,-3 13,-6 21,-8 8,-2 16,-4 25,-5 9,-2 18,-2 27,-2 15,0 28,1 40,4 12,2 22,6 30,11 9,5 16,10 22,17 6,6 11,13 14,20 4,8 7,16 8,24 2,8 3,16 3,24zm-139 255c0,4 -1,8 -2,13 0,5 -1,9 -3,14 -1,5 -3,10 -5,14 -2,4 -4,8 -6,10 -4,4 -9,7 -15,9 -6,2 -13,3 -23,3 -7,0 -13,-1 -17,-2 -5,-1 -9,-3 -11,-5 -3,-2 -5,-5 -6,-8 -1,-3 -1,-6 -1,-10 0,-3 0,-7 1,-12 0,-5 1,-10 3,-15 1,-5 3,-9 5,-14 1,-4 4,-8 7,-11 4,-4 9,-7 15,-9 6,-2 13,-2 21,-2 8,0 14,0 19,2 5,1 8,3 11,5 3,2 4,5 5,8 1,3 2,7 2,10z"/>
  </g>
 </g>
</svg>
