<!-- Generator: Adobe Illustrator 21.1.0, SVG Export Plug-In  -->
<svg version="1.1"
	 xmlns="http://www.w3.org/2000/svg" xmlns:xlink="http://www.w3.org/1999/xlink" xmlns:a="http://ns.adobe.com/AdobeSVGViewerExtensions/3.0/"
	 x="0px" y="0px" width="175.4px" height="67.5px" viewBox="0 0 175.4 67.5" style="enable-background:new 0 0 175.4 67.5;"
	 xml:space="preserve">
<style type="text/css">
	.st0{fill:#E80805;}
	.st1{fill:#FFFFFF;}
	.st2{fill:url(#SVGID_1_);}
	.st3{clip-path:url(#SVGID_3_);}
	.st4{opacity:0.5;fill:#D4A389;enable-background:new    ;}
	.st5{fill:#0B090C;}
	.st6{fill:#A92A1D;}
	.st7{fill:url(#SVGID_4_);}
	.st8{clip-path:url(#SVGID_6_);}
</style>
<defs>
</defs>
<path class="st0" d="M167.4,53.1H55.6c-6.6,0-12-5.4-12-12V30.6c0-6.6,5.4-12,12-12h111.8c4.4,0,8,3.6,8,8v18.5
	C175.4,49.5,171.8,53.1,167.4,53.1z"/>
<g>
	<path class="st1" d="M84.9,35.8c-0.1-2-0.2-4.3-0.2-6.1h-0.1c-0.5,1.7-1.1,3.4-1.8,5.4L80.3,42h-1.4l-2.3-6.7
		c-0.7-2-1.2-3.8-1.6-5.5l0,0c0,1.8-0.1,4.1-0.3,6.3L74.3,42h-1.7l1-14.2h2.3l2.4,6.8c0.6,1.7,1.1,3.3,1.4,4.8h0.1
		c0.4-1.4,0.9-3,1.5-4.8l2.5-6.8h2.3L87,42h-1.8L84.9,35.8z"/>
	<path class="st1" d="M92.1,29c0,0.6-0.4,1.1-1.2,1.1c-0.7,0-1.1-0.5-1.1-1.1c0-0.7,0.5-1.2,1.2-1.2C91.6,27.8,92.1,28.3,92.1,29z
		 M90,42V31.8h1.8V42H90z"/>
	<path class="st1" d="M94.7,40.1c0.5,0.4,1.5,0.7,2.4,0.7c1.3,0,2-0.7,2-1.5c0-0.9-0.5-1.4-1.9-1.9c-1.8-0.7-2.7-1.7-2.7-2.9
		c0-1.6,1.3-3,3.5-3c1,0,1.9,0.3,2.5,0.6l-0.5,1.3c-0.4-0.1-1.1-0.4-2-0.4c-1.1,0-1.7,0.6-1.7,1.4c0,0.8,0.6,1.2,1.9,1.7
		c1.8,0.7,2.7,1.6,2.7,3.1c0,1.8-1.4,3-3.8,3c-1.1,0-2.1-0.3-2.9-0.7L94.7,40.1z"/>
	<path class="st1" d="M107.8,28c0.9-0.1,2-0.3,3.5-0.3c1.8,0,3.1,0.4,4,1.2c0.8,0.7,1.2,1.7,1.2,3s-0.4,2.3-1.1,3
		c-1,1-2.5,1.6-4.3,1.6c-0.5,0-1,0-1.5-0.1V42h-1.8C107.8,42,107.8,28,107.8,28z M109.6,34.8c0.4,0.1,0.9,0.1,1.5,0.1
		c2.2,0,3.5-1.1,3.5-3c0-1.9-1.3-2.8-3.3-2.8c-0.8,0-1.4,0.1-1.7,0.1V34.8z"/>
	<path class="st1" d="M127,39.2c0,1,0,2,0.1,2.8h-1.6l-0.1-1.7l0,0c-0.5,0.8-1.6,1.9-3.4,1.9c-1.6,0-3.5-0.9-3.5-4.5v-5.9h1.8v5.6
		c0,1.9,0.6,3.2,2.3,3.2c1.2,0,2.1-0.9,2.4-1.7c0.1-0.3,0.2-0.6,0.2-0.9v-6.2h1.8C127,31.8,127,39.2,127,39.2z"/>
	<path class="st1" d="M130.1,34.6c0-1,0-1.9-0.1-2.8h1.6l0.1,1.7l0,0c0.5-1,1.7-1.9,3.4-1.9c1.4,0,3.6,0.8,3.6,4.3V42h-1.8v-5.9
		c0-1.6-0.6-3-2.4-3c-1.2,0-2.2,0.9-2.5,1.9c-0.1,0.2-0.1,0.5-0.1,0.9V42h-1.8V34.6z"/>
	<path class="st1" d="M143.9,28.9v2.9h2.6v1.4h-2.6v5.5c0,1.3,0.4,2,1.4,2c0.5,0,0.8-0.1,1.1-0.1l0.1,1.4c-0.4,0.1-0.9,0.3-1.6,0.3
		c-0.9,0-1.6-0.3-2-0.8c-0.5-0.5-0.7-1.4-0.7-2.6v-5.5h-1.6V32h1.6v-2.4L143.9,28.9z"/>
	<path class="st1" d="M157.7,36.8c0,3.8-2.6,5.4-5.1,5.4c-2.8,0-4.9-2-4.9-5.2c0-3.4,2.2-5.4,5-5.4
		C155.7,31.6,157.7,33.7,157.7,36.8z M149.6,36.9c0,2.2,1.3,3.9,3.1,3.9s3.1-1.7,3.1-3.9c0-1.7-0.9-3.9-3-3.9S149.6,35,149.6,36.9z"
		/>
	<path class="st1" d="M159.8,40.1c0.5,0.4,1.5,0.7,2.4,0.7c1.3,0,2-0.7,2-1.5c0-0.9-0.5-1.4-1.9-1.9c-1.8-0.7-2.7-1.7-2.7-2.9
		c0-1.6,1.3-3,3.5-3c1,0,1.9,0.3,2.5,0.6l-0.5,1.3c-0.4-0.3-1.1-0.6-2.1-0.6c-1.1,0-1.7,0.6-1.7,1.4c0,0.8,0.6,1.2,1.9,1.7
		c1.8,0.7,2.7,1.6,2.7,3.1c0,1.8-1.4,3-3.8,3c-1.1,0-2.1-0.3-2.9-0.7L159.8,40.1z"/>
</g>
<g>
	
		<radialGradient id="SVGID_1_" cx="436.4126" cy="257.7688" r="35.215" gradientTransform="matrix(0.6338 0.7735 0.7734 -0.6337 -445.9444 -145.0513)" gradientUnits="userSpaceOnUse">
		<stop  offset="0" style="stop-color:#FA0000"/>
		<stop  offset="1" style="stop-color:#8E060A"/>
	</radialGradient>
	
	
</g>
</svg>
