<!-- Generator: Adobe Illustrator 21.1.0, SVG Export Plug-In  -->
<svg version="1.1"
	 xmlns="http://www.w3.org/2000/svg" xmlns:xlink="http://www.w3.org/1999/xlink" xmlns:a="http://ns.adobe.com/AdobeSVGViewerExtensions/3.0/"
	 x="0px" y="0px" width="177.4px" height="67.5px" viewBox="0 0 177.4 67.5"
	 style="overflow:scroll;enable-background:new 0 0 177.4 67.5;" xml:space="preserve">
<style type="text/css">
	.st0{fill:#fa0f0c;}
	.st1{fill:#FFFFFF;}
	.st2{fill:url(#SVGID_1_);}
	.st3{clip-path:url(#SVGID_3_);}
	.st4{opacity:0.5;fill:#D4A389;enable-background:new    ;}
	.st5{fill:#0B090C;}
	.st6{fill:#A92A1D;}
	.st7{fill:url(#SVGID_4_);}
	.st8{clip-path:url(#SVGID_6_);}
</style>
<defs>
</defs>
<path class="st0" d="M165.4,53.1H57.6c-6.6,0-12-5.4-12-12V30.6c0-6.6,5.4-12,12-12h107.8c6.6,0,12,5.4,12,12v10.5
	C177.4,47.7,172,53.1,165.4,53.1z"/>
<g>
	<path class="st1" d="M84.9,35.8c-0.1-2-0.2-4.3-0.2-6.1h-0.1c-0.5,1.7-1.1,3.4-1.8,5.4l-2.5,6.9h-1.4l-2.3-6.7
		c-0.7-2-1.2-3.8-1.6-5.5h0c0,1.8-0.1,4.1-0.3,6.3L74.3,42h-1.7l1-14.2h2.3l2.4,6.8c0.6,1.7,1.1,3.3,1.4,4.8h0.1
		c0.4-1.4,0.9-3,1.5-4.8l2.5-6.8h2.3L87,42h-1.8L84.9,35.8z"/>
	<path class="st1" d="M92.1,29c0,0.6-0.4,1.1-1.2,1.1c-0.7,0-1.1-0.5-1.1-1.1c0-0.7,0.5-1.2,1.2-1.2C91.6,27.8,92.1,28.3,92.1,29z
		 M90,42V31.8h1.8V42H90z"/>
	<path class="st1" d="M94.7,40.1c0.5,0.4,1.5,0.7,2.4,0.7c1.3,0,2-0.7,2-1.5c0-0.9-0.5-1.4-1.9-1.9c-1.8-0.7-2.7-1.7-2.7-2.9
		c0-1.6,1.3-3,3.5-3c1,0,1.9,0.3,2.5,0.6l-0.5,1.3C99.6,33.3,98.9,33,98,33c-1.1,0-1.7,0.6-1.7,1.4c0,0.8,0.6,1.2,1.9,1.7
		c1.8,0.7,2.7,1.6,2.7,3.1c0,1.8-1.4,3-3.8,3c-1.1,0-2.1-0.3-2.9-0.7L94.7,40.1z"/>
	<path class="st1" d="M107.8,28c0.9-0.1,2-0.3,3.5-0.3c1.8,0,3.1,0.4,4,1.2c0.8,0.7,1.2,1.7,1.2,3c0,1.3-0.4,2.3-1.1,3
		c-1,1-2.5,1.6-4.3,1.6c-0.5,0-1,0-1.5-0.1V42h-1.8V28z M109.6,34.8c0.4,0.1,0.9,0.1,1.5,0.1c2.2,0,3.5-1.1,3.5-3
		c0-1.9-1.3-2.8-3.3-2.8c-0.8,0-1.4,0.1-1.7,0.1V34.8z"/>
	<path class="st1" d="M127,39.2c0,1,0,2,0.1,2.8h-1.6l-0.1-1.7h0c-0.5,0.8-1.6,1.9-3.4,1.9c-1.6,0-3.5-0.9-3.5-4.5v-5.9h1.8v5.6
		c0,1.9,0.6,3.2,2.3,3.2c1.2,0,2.1-0.9,2.4-1.7c0.1-0.3,0.2-0.6,0.2-0.9v-6.2h1.8V39.2z"/>
	<path class="st1" d="M130.1,34.6c0-1,0-1.9-0.1-2.8h1.6l0.1,1.7h0c0.5-1,1.7-1.9,3.4-1.9c1.4,0,3.6,0.8,3.6,4.3V42h-1.8v-5.9
		c0-1.6-0.6-3-2.4-3c-1.2,0-2.2,0.9-2.5,1.9c-0.1,0.2-0.1,0.5-0.1,0.9V42h-1.8V34.6z"/>
	<path class="st1" d="M143.9,28.9v2.9h2.6v1.4h-2.6v5.5c0,1.3,0.4,2,1.4,2c0.5,0,0.8-0.1,1.1-0.1l0.1,1.4c-0.4,0.1-0.9,0.3-1.6,0.3
		c-0.9,0-1.6-0.3-2-0.8c-0.5-0.5-0.7-1.4-0.7-2.6v-5.5h-1.6v-1.4h1.6v-2.4L143.9,28.9z"/>
	<path class="st1" d="M157.7,36.8c0,3.8-2.6,5.4-5.1,5.4c-2.8,0-4.9-2-4.9-5.2c0-3.4,2.2-5.4,5-5.4
		C155.7,31.6,157.7,33.7,157.7,36.8z M149.6,36.9c0,2.2,1.3,3.9,3.1,3.9c1.8,0,3.1-1.7,3.1-3.9c0-1.7-0.9-3.9-3-3.9
		S149.6,35,149.6,36.9z"/>
	<path class="st1" d="M159.8,40.1c0.5,0.4,1.5,0.7,2.4,0.7c1.3,0,2-0.7,2-1.5c0-0.9-0.5-1.4-1.9-1.9c-1.8-0.7-2.7-1.7-2.7-2.9
		c0-1.6,1.3-3,3.5-3c1,0,1.9,0.3,2.5,0.6l-0.5,1.3c-0.4-0.3-1.1-0.6-2.1-0.6c-1.1,0-1.7,0.6-1.7,1.4c0,0.8,0.6,1.2,1.9,1.7
		c1.8,0.7,2.7,1.6,2.7,3.1c0,1.8-1.4,3-3.8,3c-1.1,0-2.1-0.3-2.9-0.7L159.8,40.1z"/>
</g>
<g>
	
		<radialGradient id="SVGID_1_" cx="236.2867" cy="111.4908" r="35.2154" gradientTransform="matrix(0.6338 0.7735 -0.7734 0.6337 -33.5128 -224.2458)" gradientUnits="userSpaceOnUse">
		<stop  offset="0" style="stop-color:#D80313"/>
		<stop  offset="1" style="stop-color:#621719"/>
	</radialGradient>
	<path class="st2" d="M26.1,0.9c9-2.1,18.2-0.4,25.5,4.1s13,11.9,15.1,21s0.4,18.2-4.1,25.5s-11.9,13-21,15.1
		C32.5,68.8,23.4,67,16,62.5c-7.3-4.4-13-11.8-15.1-21S0.5,23.4,5,16.1S17,3.1,26.1,0.9z"/>
	<g>
		<g>
			<g>
				<defs>
					<path id="SVGID_2_" d="M26.1,0.9c9-2.1,18.2-0.4,25.5,4.1s13,11.9,15.1,21s0.4,18.2-4.1,25.5s-11.9,13-21,15.1
						C32.5,68.8,23.4,67,16,62.5c-7.3-4.4-13-11.8-15.1-21S0.5,23.4,5,16.1S17,3.1,26.1,0.9z"/>
				</defs>
				<clipPath id="SVGID_3_">
					<use xlink:href="#SVGID_2_"  style="overflow:visible;"/>
				</clipPath>
				<g class="st3">
					<path class="st4" d="M27.4,2.4c11.1-2.6,22.3,0.7,30.1,8c-7.7-6.2-17.9-8.8-28-6.4C12.1,8.1,1.3,25.6,5.5,43
						c2.4,10.1,9.3,18,18.2,22c-10-3.6-18-12.1-20.6-23.2C-1.2,24.1,9.7,6.6,27.4,2.4z"/>
				</g>
			</g>
		</g>
	</g>
	<ellipse transform="matrix(0.9731 -0.2306 0.2306 0.9731 -3.8796 2.5787)" class="st1" cx="9.1" cy="17.9" rx="3" ry="3"/>
	<g>
		<path class="st5" d="M10.8,41c-0.3,0.5-0.5,0.9-0.6,1.5c-0.1,0.5,0,1,0.3,1.1c0.2,0.1,0.5-0.4,0.8-0.7c0.2-0.3,0.4-0.4,0.7-0.5
			c0.4-0.1,1,0,2.1,0c1.1,0.2,2.6,0.3,4.3,1c1.6,0.7,3.2,1.8,4.8,3.3c1.6,1.5,3,3.3,4.5,4.6c1.4,1.3,2.7,2.1,3.8,2.7
			c1.2,0.5,2,0.8,3.1,0.8c1,0.1,2.1-0.1,3.7-0.5c1.6-0.3,3.7-0.8,5.3-1.4c1.6-0.7,2.6-1.5,3.3-2.8s1-3,1.8-5s1.7-4.4,2.7-6.1
			c0.8-1.6,1.6-2.4,2.6-3.3c1-0.7,2.2-1.5,3-1.8c0.7-0.4,1-0.4,1.3-0.3c0.2,0.1,0.4,0.3,0.6,0.6c0.2,0.3,0.5,0.6,0.7,0.8
			s0.4,0.1,0.3-0.3c-0.1-0.4-0.4-1.1-1-1.7c-0.6-0.7-1.4-1.2-2.1-1.6c-0.7-0.3-1.1-0.5-1.2-0.3c-0.1,0.1,0.1,0.5,0.5,0.8
			c0.3,0.3,0.7,0.7,0.8,0.8c0,0.2-0.1,0.2-0.9,0.6c-0.6,0.4-1.7,0.9-3.7,1.9c-2,0.9-4.8,2.2-7.7,3.2c-2.8,1-5.6,1.6-8.4,2.2
			c-2.8,0.6-5.7,0.9-8.3,1.3s-4.9,0.3-6.8,0.3s-3.8-0.3-5.1-0.5c-1.4-0.3-2.3-0.5-2.8-0.7s-0.7-0.3-0.6-0.4c0.1-0.1,0.2-0.4,0.3-0.7
			s0.2-0.8,0.2-1s-0.3-0.2-0.5-0.2c-0.2,0.1-0.4,0.3-0.7,0.8C11.4,39.9,11.1,40.6,10.8,41z"/>
		<path class="st6" d="M32,54.2c0.9,0.3,1.7,0.5,2.5,0.5c1,0.1,2.1-0.1,3.7-0.5c1.2-0.2,2.7-0.5,4-0.9c0.2-0.1,0.3-0.3,0.4-0.3
			c1.5-1.2,2-2.1,2.7-3.1s1.4-2,1.8-2.5c0.3-0.6,0.2-0.8-0.3-0.8c-0.5-0.1-1.3,0-2.2,0.3S43,47.6,42,48.3c-1,0.6-2.3,1.6-2.9,2
			c-0.6,0.4-0.8,0.3-0.7,0.1s0.3-0.5,0.8-0.8c0.5-0.4,1.3-0.9,1.7-1.3c0.3-0.4,0.3-0.5,0.1-0.5c-0.2-0.1-0.7,0.2-1.6,0.6
			c-0.9,0.4-2.4,1.1-3.8,2c-1.4,1-2.7,2.2-3.2,3.2C32.1,54,32,54.1,32,54.2z"/>
		<path class="st1" d="M22.6,44.3c1,1,2.9,2.8,4.6,3.7c1.7,1,3,1.2,5.3,1s5.6-1,8.4-1.9c2.8-0.9,5-1.8,6.3-3s1.7-2.6,2.1-3.8
			c0.4-1.1,0.8-2,0.8-2.3c-0.1-0.3-0.5-0.1-2.4,0.5C46,39.1,43,40,39.6,40.8s-7.3,1.5-10.2,1.9c-2.8,0.4-4.5,0.4-5.7,0.3
			c-1.1,0-1.6,0-1.7,0C21.5,43.1,21.6,43.3,22.6,44.3z"/>
		<path class="st5" d="M33.9,58.6c0.5,0.1,1.7,0.3,3,0.3c1.2,0,2.5,0,3.9-0.4s3.1-1.2,4.1-1.7s1.2-0.9,1-1s-1,0.1-2.3,0.6
			c-1.3,0.4-3.2,1-4.6,1.3s-2.7,0.4-3.4,0.5c-0.8,0.1-1.2,0.1-1.5,0.2C33.6,58.4,33.4,58.5,33.9,58.6z"/>
	</g>
</g>
</svg>
